<?xml version="1.0" standalone="no"?>
<!DOCTYPE svg PUBLIC "-//W3C//DTD SVG 1.1//EN" "http://www.w3.org/Graphics/SVG/1.1/DTD/svg11.dtd">
<svg width="100%" height="100%" viewBox="0 0 44 44" version="1.1" xmlns="http://www.w3.org/2000/svg" xmlns:xlink="http://www.w3.org/1999/xlink" xml:space="preserve" style="fill-rule:evenodd;clip-rule:evenodd;stroke-linejoin:round;stroke-miterlimit:1.41421;">
    <g transform="matrix(1,0,0,1,-847,-41.9998)">
        <path id="Ellipse 1 copy 19" d="M868.5,42C880.374,42 890,51.626 890,63.5C890,75.374 880.374,85 868.5,85C856.626,85 847,75.374 847,63.5C847,51.626 856.626,42 868.5,42Z" style="fill:rgb(0,189,243);"/>
        <path id="Forma 1 copy 51" d="M868.501,68.019C872.533,68.019 875.669,63.897 875.669,59.631L875.669,58.294C875.669,54.027 872.533,51 868.501,51C864.469,51 861.332,54.027 861.332,58.294L861.332,59.631C861.332,63.897 864.469,68.019 868.501,68.019ZM879.951,75.067C879.948,75.045 879.942,75.023 879.94,75.002C879.906,74.734 879.854,74.473 879.782,74.218C879.782,74.215 879.782,74.213 879.78,74.211C879.63,73.668 879.376,73.144 878.996,72.629L878.996,72.626C878.374,71.777 877.435,70.912 875.91,70.067C875.104,69.621 874.749,69.417 874.251,69.417C873.458,69.417 872.766,70.024 871.601,71.079L871.598,71.079L870.538,72.039C870.5,72.075 869.357,73.667 868.501,73.667C867.645,73.667 866.502,72.075 866.464,72.039L865.404,71.079L865.401,71.079C864.236,70.024 863.544,69.417 862.751,69.417C862.253,69.417 861.808,69.621 861.092,70.067C859.613,70.987 858.628,71.776 858.008,72.624L858.005,72.625C858.003,72.627 858.003,72.631 858.001,72.632C857.626,73.144 857.375,73.664 857.224,74.204C857.222,74.209 857.219,74.214 857.218,74.22C857.148,74.473 857.096,74.731 857.062,74.996C857.06,75.02 857.053,75.043 857.051,75.068C857.02,75.349 857.002,75.635 857.002,75.933C857.002,75.966 857.001,82.138 857.002,82.166C857.002,84.181 857.772,85 859.877,85L877.126,85C879.249,85 880,84.225 880,82.166C880.001,82.138 880,75.966 880,75.933C880,75.635 879.982,75.349 879.951,75.067Z" style="fill:white;fill-rule:nonzero;"/>
    </g>
</svg>
