<?xml version="1.0" standalone="no"?>
<!DOCTYPE svg PUBLIC "-//W3C//DTD SVG 1.1//EN" "http://www.w3.org/Graphics/SVG/1.1/DTD/svg11.dtd">
<svg width="100%" height="100%" viewBox="0 0 35 29" version="1.1" xmlns="http://www.w3.org/2000/svg" xmlns:xlink="http://www.w3.org/1999/xlink" xml:space="preserve" style="fill-rule:evenodd;clip-rule:evenodd;stroke-linejoin:round;stroke-miterlimit:1.41421;">
    <g transform="matrix(1,0,0,1,-928.993,-47.0192)">
        <path id="Forma 1 copy 5" d="M962.951,69.66C961.652,64.033 957.607,56.192 945.374,54.536L945.374,49.574C945.374,48.539 944.758,47.607 943.817,47.213C942.876,46.818 941.793,47.039 941.074,47.772L929.967,59.117C928.669,60.443 928.668,62.584 929.966,63.91L941.074,75.255C941.792,75.988 942.877,76.209 943.818,75.814C944.759,75.419 945.375,74.487 945.375,73.453L945.375,68.652C949.549,68.657 955.566,69.215 959.846,71.923C960.557,72.373 961.464,72.344 962.144,71.847C962.823,71.352 963.143,70.489 962.951,69.66Z" style="fill:rgb(0,191,243);fill-rule:nonzero;"/>
    </g>
</svg>
