<?xml version="1.0" standalone="no"?>
<!DOCTYPE svg PUBLIC "-//W3C//DTD SVG 1.1//EN" "http://www.w3.org/Graphics/SVG/1.1/DTD/svg11.dtd">
<svg width="100%" height="100%" viewBox="0 0 916 176" version="1.1" xmlns="http://www.w3.org/2000/svg" xmlns:xlink="http://www.w3.org/1999/xlink" xml:space="preserve" style="fill-rule:evenodd;clip-rule:evenodd;stroke-linejoin:round;stroke-miterlimit:1.41421;">
    <g transform="matrix(1,0,0,1,-33.6065,-238.482)">
        <path d="M876.365,380.866L686.819,380.866C676.349,380.866 667.863,388.228 667.863,397.309C667.863,406.39 676.349,413.751 686.819,413.751L876.365,413.751L876.365,380.866Z" style="fill:rgb(211,247,69);fill-rule:nonzero;"/>
        <rect x="814.252" y="380.865" width="62.113" height="32.886" style="fill:rgb(169,199,80);fill-rule:nonzero;"/>
        <path d="M300.648,363.972C300.648,370.413 295.441,375.634 289.018,375.634C282.596,375.634 277.389,370.413 277.389,363.972C277.389,355.024 282.596,334.414 289.018,334.414C295.441,334.414 300.648,357.531 300.648,363.972" style="fill:rgb(170,201,40);fill-rule:nonzero;"/>
        <path d="M300.648,363.972C300.648,355.713 295.442,334.414 289.018,334.414L289.018,375.634C295.442,375.634 300.648,370.413 300.648,363.972" style="fill:rgb(132,162,34);fill-rule:nonzero;"/>
        <path d="M288.077,364.005L287.373,382.885L290.664,382.885L289.962,364.005L288.077,364.005Z" style="fill:rgb(139,99,56);fill-rule:nonzero;"/>
        <path d="M289.019,364.005L289.019,382.885L290.665,382.885L289.962,364.005L289.019,364.005Z" style="fill:rgb(117,75,38);fill-rule:nonzero;"/>
        <path d="M338.491,337.869C338.491,352.031 329.895,363.513 319.29,363.513C308.683,363.513 300.088,352.031 300.088,337.869C300.088,323.707 308.683,312.226 319.29,312.226C329.895,312.226 338.491,323.707 338.491,337.869" style="fill:rgb(170,201,40);fill-rule:nonzero;"/>
        <path d="M338.491,337.869C338.491,323.707 329.895,312.226 319.29,312.226L319.29,363.513C329.895,363.513 338.491,352.031 338.491,337.869" style="fill:rgb(132,162,34);fill-rule:nonzero;"/>
        <path d="M317.733,344.311L316.574,375.484L322.005,375.484L320.845,344.311L317.733,344.311Z" style="fill:rgb(139,99,56);fill-rule:nonzero;"/>
        <path d="M319.29,344.31L319.29,375.483L322.005,375.483L320.846,344.31L319.29,344.31Z" style="fill:rgb(117,75,38);fill-rule:nonzero;"/>
        <path d="M129.337,360.086C129.337,365.052 125.322,369.078 120.369,369.078C115.417,369.078 111.402,365.052 111.402,360.086C111.402,353.186 115.417,337.294 120.369,337.294C125.322,337.294 129.337,355.12 129.337,360.086" style="fill:rgb(170,201,40);fill-rule:nonzero;"/>
        <path d="M129.337,360.086C129.337,353.717 125.323,337.294 120.369,337.294L120.369,369.078C125.323,369.078 129.337,365.052 129.337,360.086" style="fill:rgb(132,162,34);fill-rule:nonzero;"/>
        <path d="M119.644,360.111L119.102,374.669L121.639,374.669L121.098,360.111L119.644,360.111Z" style="fill:rgb(139,99,56);fill-rule:nonzero;"/>
        <path d="M120.37,360.111L120.37,374.669L121.639,374.669L121.098,360.111L120.37,360.111Z" style="fill:rgb(117,75,38);fill-rule:nonzero;"/>
        <rect x="715.642" y="305.206" width="142.294" height="6.952" style="fill:rgb(120,113,108);fill-rule:nonzero;"/>
        <path d="M710.284,295.783L710.284,305.205L864.163,305.205L864.163,278.904L710.284,295.783Z" style="fill:rgb(247,96,94);fill-rule:nonzero;"/>
        <rect x="710.284" y="335.682" width="153.009" height="45.183" style="fill:rgb(255,215,138);fill-rule:nonzero;"/>
        <rect x="710.284" y="312.157" width="153.009" height="23.525" style="fill:rgb(255,215,138);fill-rule:nonzero;"/>
        <rect x="727.047" y="346.406" width="80.453" height="23.736" style="fill:rgb(68,141,153);fill-rule:nonzero;"/>
        <rect x="824.588" y="346.406" width="25.75" height="23.736" style="fill:rgb(68,141,153);fill-rule:nonzero;"/>
        <rect x="824.193" y="318.047" width="25.751" height="11.746" style="fill:rgb(52,115,130);fill-rule:nonzero;"/>
        <rect x="765.137" y="318.047" width="25.752" height="11.746" style="fill:rgb(68,141,153);fill-rule:nonzero;"/>
        <rect x="727.047" y="318.047" width="25.751" height="11.746" style="fill:rgb(68,141,153);fill-rule:nonzero;"/>
        <path d="M864.163,305.206L864.163,290.127L726.701,305.206L864.163,305.206Z" style="fill:rgb(238,61,68);fill-rule:nonzero;"/>
        <g>
            <g opacity="0.149994">
                <clipPath id="_clip1">
                    <rect x="777.699" y="312.157" width="85.594" height="23.525"/>
                </clipPath>
                <g clip-path="url(#_clip1)">
                    <path d="M777.699,335.682L863.293,335.682L863.293,312.157L801.222,312.157L777.699,335.682Z" style="fill:black;fill-rule:nonzero;"/>
                </g>
            </g>
        </g>
        <g>
            <g opacity="0.149994">
                <clipPath id="_clip2">
                    <rect x="766.002" y="335.682" width="97.291" height="45.183"/>
                </clipPath>
                <g clip-path="url(#_clip2)">
                    <path d="M766.002,380.866L863.293,380.866L863.293,335.683L811.184,335.683L766.002,380.866Z" style="fill:black;fill-rule:nonzero;"/>
                </g>
            </g>
        </g>
        <path d="M170.573,359.177L169.704,370.341L173.776,370.341L172.907,359.177L170.573,359.177Z" style="fill:rgb(139,99,56);fill-rule:nonzero;"/>
        <path d="M171.741,359.177L171.741,370.341L173.777,370.341L172.908,359.177L171.741,359.177Z" style="fill:rgb(117,75,38);fill-rule:nonzero;"/>
        <path d="M160.396,362.733L171.741,314.078L183.084,362.733L160.396,362.733Z" style="fill:rgb(170,201,40);fill-rule:nonzero;"/>
        <path d="M183.084,362.733L171.741,314.078L171.741,362.733L183.084,362.733Z" style="fill:rgb(110,138,30);fill-rule:nonzero;"/>
        <path d="M427.456,353.56L425.238,382.045L435.63,382.045L433.413,353.56L427.456,353.56Z" style="fill:rgb(139,99,56);fill-rule:nonzero;"/>
        <path d="M430.435,353.56L430.435,382.045L435.631,382.045L433.414,353.56L430.435,353.56Z" style="fill:rgb(117,75,38);fill-rule:nonzero;"/>
        <path d="M401.489,362.632L430.434,238.482L459.379,362.632L401.489,362.632Z" style="fill:rgb(170,201,40);fill-rule:nonzero;"/>
        <path d="M459.379,362.632L430.435,238.482L430.435,362.632L459.379,362.632Z" style="fill:rgb(110,138,30);fill-rule:nonzero;"/>
        <path d="M164.662,343.709C164.662,352.168 159.527,359.026 153.193,359.026C146.858,359.026 141.724,352.168 141.724,343.709C141.724,335.25 146.858,328.393 153.193,328.393C159.527,328.393 164.662,335.25 164.662,343.709" style="fill:rgb(170,201,40);fill-rule:nonzero;"/>
        <path d="M164.662,343.709C164.662,335.25 159.527,328.393 153.193,328.393L153.193,359.026C159.527,359.026 164.662,352.168 164.662,343.709" style="fill:rgb(132,162,34);fill-rule:nonzero;"/>
        <path d="M152.264,347.556L151.571,366.176L154.815,366.176L154.123,347.556L152.264,347.556Z" style="fill:rgb(139,99,56);fill-rule:nonzero;"/>
        <path d="M153.193,347.556L153.193,366.176L154.815,366.176L154.123,347.556L153.193,347.556Z" style="fill:rgb(117,75,38);fill-rule:nonzero;"/>
        <path d="M378.376,365.329C299.18,365.329 304.36,397.309 176.313,397.309L580.439,397.309C452.391,397.309 457.573,365.329 378.376,365.329" style="fill:rgb(188,229,52);fill-rule:nonzero;"/>
        <path d="M580.44,397.309C452.391,397.309 457.573,365.329 378.376,365.329L378.376,397.309L580.44,397.309Z" style="fill:rgb(153,190,42);fill-rule:nonzero;"/>
        <path d="M710.284,365.329C631.088,365.329 636.268,397.309 508.221,397.309L912.347,397.309C784.3,397.309 789.481,365.329 710.284,365.329" style="fill:rgb(188,229,52);fill-rule:nonzero;"/>
        <path d="M912.348,397.309C784.3,397.309 789.482,365.329 710.285,365.329L710.285,397.309L912.348,397.309Z" style="fill:rgb(153,190,42);fill-rule:nonzero;"/>
        <path d="M150.563,365.329C111.595,365.329 112.979,395.546 53.549,397.232L53.549,397.309L252.835,397.309C188.026,397.309 190.647,365.329 150.563,365.329" style="fill:rgb(188,229,52);fill-rule:nonzero;"/>
        <path d="M252.836,397.309C188.026,397.309 190.648,365.329 150.564,365.329L150.564,397.309L252.836,397.309Z" style="fill:rgb(153,190,42);fill-rule:nonzero;"/>
        <path d="M381.803,374.262L380.008,397.309L388.417,397.309L386.622,374.262L381.803,374.262Z" style="fill:rgb(139,99,56);fill-rule:nonzero;"/>
        <path d="M384.212,374.262L384.212,397.309L388.417,397.309L386.622,374.262L384.212,374.262Z" style="fill:rgb(117,75,38);fill-rule:nonzero;"/>
        <path d="M360.793,381.602L384.212,281.154L407.631,381.602L360.793,381.602Z" style="fill:rgb(170,201,40);fill-rule:nonzero;"/>
        <path d="M407.631,381.602L384.212,281.154L384.212,381.602L407.631,381.602Z" style="fill:rgb(110,138,30);fill-rule:nonzero;"/>
        <path d="M648.09,390.824C644.508,390.824 641.603,393.728 641.603,397.311L654.577,397.311C654.577,393.728 651.674,390.824 648.09,390.824" style="fill:rgb(255,255,192);fill-rule:nonzero;"/>
        <path d="M459.38,392.278C456.602,392.278 454.349,394.53 454.349,397.309L464.409,397.309C464.409,394.53 462.159,392.278 459.38,392.278" style="fill:rgb(255,255,192);fill-rule:nonzero;"/>
        <path d="M355.848,390.847C352.279,390.847 349.385,393.74 349.385,397.308L362.31,397.308C362.31,393.74 359.415,390.847 355.848,390.847" style="fill:rgb(255,255,192);fill-rule:nonzero;"/>
        <path d="M178.808,392.278C176.029,392.278 173.777,394.53 173.777,397.309L183.839,397.309C183.839,394.53 181.586,392.278 178.808,392.278" style="fill:rgb(255,255,192);fill-rule:nonzero;"/>
        <path d="M195.875,393.006C193.498,393.006 191.572,394.932 191.572,397.309L200.179,397.309C200.179,394.932 198.252,393.006 195.875,393.006" style="fill:rgb(255,255,192);fill-rule:nonzero;"/>
        <path d="M949.522,397.308L61.45,397.308C46.072,397.308 33.606,404.67 33.606,413.751L949.522,413.751L949.522,397.308Z" style="fill:rgb(211,247,69);fill-rule:nonzero;"/>
        <path d="M697.773,367.562L696.903,378.726L700.974,378.726L700.106,367.562L697.773,367.562Z" style="fill:rgb(139,99,56);fill-rule:nonzero;"/>
        <path d="M698.94,367.562L698.94,378.726L700.974,378.726L700.106,367.562L698.94,367.562Z" style="fill:rgb(117,75,38);fill-rule:nonzero;"/>
        <path d="M687.596,371.118L698.941,322.462L710.284,371.118L687.596,371.118Z" style="fill:rgb(170,201,40);fill-rule:nonzero;"/>
        <path d="M710.284,371.118L698.94,322.462L698.94,371.118L710.284,371.118Z" style="fill:rgb(110,138,30);fill-rule:nonzero;"/>
        <path d="M691.861,352.094C691.861,360.553 686.727,367.41 680.392,367.41C674.058,367.41 668.924,360.553 668.924,352.094C668.924,343.635 674.058,336.778 680.392,336.778C686.727,336.778 691.861,343.635 691.861,352.094" style="fill:rgb(170,201,40);fill-rule:nonzero;"/>
        <path d="M691.861,352.094C691.861,343.635 686.727,336.778 680.392,336.778L680.392,367.41C686.727,367.41 691.861,360.553 691.861,352.094" style="fill:rgb(132,162,34);fill-rule:nonzero;"/>
        <path d="M679.463,355.941L678.77,374.561L682.015,374.561L681.322,355.941L679.463,355.941Z" style="fill:rgb(139,99,56);fill-rule:nonzero;"/>
        <path d="M680.393,355.941L680.393,374.561L682.015,374.561L681.323,355.941L680.393,355.941Z" style="fill:rgb(117,75,38);fill-rule:nonzero;"/>
        <path d="M579.594,393.363L579.594,374.743L532.873,374.743L532.873,388.562C516.616,388.291 500.773,388.562 477.144,388.562C479.291,392.287 481.883,396.162 484.522,399.529L627.041,399.529C628.559,397.592 630.063,395.482 631.475,393.331C620.969,393.099 597.948,393.363 579.594,393.363" style="fill:rgb(151,155,155);fill-rule:nonzero;"/>
        <path d="M629.499,402.693C629.499,400.946 628.082,399.529 626.334,399.529L481.588,399.529C479.84,399.529 478.423,400.946 478.423,402.693L478.423,403.477C478.423,405.224 479.84,406.64 481.588,406.64L626.334,406.64C628.082,406.64 629.499,405.224 629.499,403.477L629.499,402.693Z" style="fill:rgb(151,155,155);fill-rule:nonzero;"/>
        <path d="M631.484,409.804C631.484,408.056 630.067,406.64 628.32,406.64L483.572,406.64C481.825,406.64 480.408,408.056 480.408,409.804L480.408,410.588C480.408,412.335 481.825,413.751 483.572,413.751L628.32,413.751C630.067,413.751 631.484,412.335 631.484,410.588L631.484,409.804Z" style="fill:rgb(171,177,178);fill-rule:nonzero;"/>
        <rect x="539.147" y="388.775" width="32.511" height="0.527" style="fill:rgb(17,52,71);fill-rule:nonzero;"/>
        <rect x="563.742" y="385.223" width="13.96" height="0.527" style="fill:rgb(17,52,71);fill-rule:nonzero;"/>
        <rect x="515.288" y="399.002" width="29.424" height="0.527" style="fill:rgb(17,52,71);fill-rule:nonzero;"/>
        <path d="M477.295,388.825L476.995,388.298L532.608,388.288L532.608,374.479L579.858,374.479L579.858,393.037L631.682,393.04L631.336,393.568L579.33,393.564L579.33,375.007L533.136,375.007L533.136,388.815L477.295,388.825Z" style="fill:rgb(17,52,71);fill-rule:nonzero;"/>
        <rect x="562.452" y="354.582" width="5.009" height="13.921" style="fill:rgb(255,200,158);fill-rule:nonzero;"/>
        <path d="M562.715,368.239L567.197,368.239L567.197,354.845L562.715,354.845L562.715,368.239ZM567.726,368.766L562.189,368.766L562.189,354.317L567.726,354.317L567.726,368.766Z" style="fill:rgb(17,52,71);fill-rule:nonzero;"/>
        <rect x="546.74" y="353.737" width="5.01" height="13.921" style="fill:rgb(255,200,158);fill-rule:nonzero;"/>
        <path d="M547.004,367.395L551.486,367.395L551.486,354.001L547.004,354.001L547.004,367.395ZM552.013,367.922L546.477,367.922L546.477,353.474L552.013,353.474L552.013,367.922Z" style="fill:rgb(17,52,71);fill-rule:nonzero;"/>
        <path d="M570.458,353.408C570.458,354.864 569.277,356.045 567.821,356.045L562.445,356.045C560.988,356.045 559.809,354.892 559.809,353.47L559.809,350.897C559.809,349.381 558.58,348.153 557.065,348.153C555.549,348.153 554.321,349.381 554.321,350.897L554.321,353.47C554.321,354.892 553.141,356.045 551.685,356.045L546.263,356.045C544.807,356.045 543.626,354.864 543.626,353.408L543.626,341.735L548.076,341.39L565.934,341.39L570.458,341.629L570.458,353.408Z" style="fill:rgb(17,52,71);fill-rule:nonzero;"/>
        <path d="M557.065,347.889C558.722,347.889 560.072,349.238 560.072,350.896L560.072,353.47C560.072,354.744 561.136,355.781 562.445,355.781L567.821,355.781C569.128,355.781 570.193,354.716 570.193,353.408L570.193,341.878L565.919,341.653L548.076,341.654L543.889,341.979L543.889,353.408C543.889,354.716 544.954,355.781 546.262,355.781L551.684,355.781C552.993,355.781 554.058,354.744 554.058,353.47L554.058,350.896C554.058,349.238 555.407,347.889 557.065,347.889M567.821,356.308L562.445,356.308C560.845,356.308 559.544,355.035 559.544,353.47L559.544,350.896C559.544,349.529 558.431,348.416 557.065,348.416C555.697,348.416 554.586,349.529 554.586,350.896L554.586,353.47C554.586,355.035 553.285,356.308 551.684,356.308L546.262,356.308C544.664,356.308 543.363,355.007 543.363,353.408L543.363,341.491L548.056,341.127L565.933,341.126L570.721,341.378L570.721,353.408C570.721,355.007 569.419,356.308 567.821,356.308" style="fill:rgb(17,52,71);fill-rule:nonzero;"/>
        <path d="M544.197,368.486L544.185,368.486L544.185,366.437L553.519,366.437L553.527,374.501L540.114,374.501C540.07,370.829 541.214,369.374 544.197,368.486" style="fill:rgb(17,52,71);fill-rule:nonzero;"/>
        <path d="M569.933,368.486C572.916,369.374 574.061,370.828 574.016,374.501L560.599,374.501L560.598,366.437L569.933,366.437L569.933,368.486Z" style="fill:rgb(17,52,71);fill-rule:nonzero;"/>
        <path d="M577.701,326.898C573.426,326.898 571.226,320.035 570.365,317.351L574.739,314.02C575.691,316.988 577.123,320.236 577.625,321.002C578.383,319.346 579.183,315.663 578.863,312.126L584.115,311.65C584.551,316.454 583.363,325.833 578.546,326.811C578.256,326.87 577.973,326.898 577.701,326.898" style="fill:rgb(255,200,158);fill-rule:nonzero;"/>
        <path d="M570.674,317.447C571.535,320.131 573.71,326.634 577.701,326.634C577.96,326.634 578.227,326.607 578.493,326.552C583.063,325.625 584.238,316.729 583.875,311.936L579.148,312.364C579.397,315.688 578.685,319.323 577.865,321.112L577.667,321.545L577.405,321.146C576.907,320.387 575.549,317.308 574.604,314.454L570.674,317.447ZM577.701,327.161C573.235,327.161 570.969,320.093 570.115,317.432L570.059,317.254L570.206,317.141L574.876,313.583L574.99,313.939C575.794,316.446 576.96,319.2 577.589,320.404C578.31,318.502 578.875,315.173 578.601,312.149L578.577,311.886L584.354,311.364L584.377,311.626C584.82,316.512 583.58,326.058 578.598,327.069C578.297,327.131 577.995,327.161 577.701,327.161" style="fill:rgb(17,52,71);fill-rule:nonzero;"/>
        <path d="M538.186,339.238L540.375,341.416C540.707,341.744 540.707,342.277 540.379,342.608C540.051,342.937 539.518,342.939 539.188,342.611L537.001,340.437C537.39,340.032 537.79,339.636 538.186,339.238" style="fill:rgb(255,200,158);fill-rule:nonzero;"/>
        <path d="M537.185,340.247L539.374,342.423C539.594,342.642 539.973,342.641 540.194,342.421C540.302,342.311 540.362,342.165 540.362,342.011C540.361,341.856 540.3,341.711 540.19,341.602L538,339.425C538.125,339.301 538.248,339.174 538.371,339.049L540.562,341.227C540.772,341.436 540.888,341.713 540.889,342.009C540.89,342.305 540.776,342.583 540.567,342.792C540.397,342.964 540.18,343.073 539.942,343.107C539.594,343.158 539.251,343.045 539.002,342.797L536.819,340.627C536.938,340.498 537.062,340.373 537.185,340.247" style="fill:rgb(17,52,71);fill-rule:nonzero;"/>
        <path d="M538.775,340.025C538.925,339.024 539.072,337.811 539.241,336.407C539.92,330.77 541.056,321.337 543.917,317.265L539.602,314.233C535.979,319.391 534.791,329.251 534.005,335.776C533.842,337.14 533.7,338.317 533.562,339.242L538.775,340.025Z" style="fill:rgb(255,200,158);fill-rule:nonzero;"/>
        <path d="M533.86,339.021L538.553,339.725C538.69,338.775 538.825,337.655 538.978,336.375C539.65,330.812 540.762,321.565 543.553,317.331L539.669,314.603C536.2,319.762 535.04,329.4 534.267,335.808C534.118,337.054 533.986,338.138 533.86,339.021M538.997,340.326L533.26,339.464L533.3,339.203C533.438,338.284 533.579,337.112 533.742,335.756C534.533,329.194 535.725,319.293 539.386,314.082L539.539,313.866L544.285,317.201L544.132,317.417C541.31,321.434 540.178,330.827 539.504,336.438C539.334,337.841 539.188,339.053 539.037,340.064L538.997,340.326Z" style="fill:rgb(17,52,71);fill-rule:nonzero;"/>
        <rect x="552.826" y="297.677" width="8.479" height="13.242" style="fill:rgb(255,200,158);fill-rule:nonzero;"/>
        <path d="M561.041,297.94L553.09,297.94L553.09,310.655L561.041,310.655L561.041,297.94ZM552.562,297.413L561.568,297.413L561.568,311.183L552.562,311.183L552.562,297.413Z" style="fill:rgb(17,52,71);fill-rule:nonzero;"/>
        <path d="M557.431,306.834L557.141,306.394L559.035,305.148L559.035,303.829L559.563,303.829L559.563,305.433L557.431,306.834Z" style="fill:rgb(17,52,71);fill-rule:nonzero;"/>
        <path d="M537.442,313.199C539.287,311.036 542.946,306.622 546.631,306.358L552.826,306.358C552.826,308.341 554.724,309.949 557.065,309.949C559.407,309.949 561.304,308.341 561.304,306.358L567.498,306.358C569.761,306.622 571.987,308.492 576.162,313.199C573.77,316.259 572.807,317.651 570.888,321.024C570.888,321.024 570.927,335.023 570.927,341.653L543.202,341.653C543.202,335.023 543.37,321.024 543.37,321.024C540.888,317.19 539.336,315.557 537.442,313.199" style="fill:rgb(224,71,63);fill-rule:nonzero;"/>
        <path d="M543.467,341.39L570.664,341.39C570.664,334.733 570.625,321.162 570.625,321.025L570.625,320.954L570.659,320.893C572.585,317.508 573.566,316.099 575.819,313.21C571.663,308.54 569.544,306.869 567.482,306.622L561.558,306.622C561.399,308.625 559.445,310.213 557.066,310.213C554.686,310.213 552.732,308.625 552.572,306.622L546.632,306.622C543.182,306.869 539.686,310.973 537.807,313.178L537.784,313.203C538.159,313.667 538.521,314.104 538.88,314.538C540.308,316.263 541.656,317.892 543.59,320.881L543.633,320.947L543.633,321.027C543.631,321.165 543.47,334.734 543.467,341.39M571.192,341.917L542.939,341.917L542.939,341.653C542.939,335.356 543.091,322.248 543.106,321.1C541.211,318.18 539.881,316.574 538.474,314.874C538.07,314.385 537.662,313.893 537.238,313.364L537.1,313.194L537.406,312.835C539.334,310.572 542.924,306.359 546.613,306.095L553.09,306.095L553.09,306.358C553.09,308.192 554.872,309.685 557.066,309.685C559.257,309.685 561.041,308.192 561.041,306.358L561.041,306.095L567.529,306.096C569.797,306.361 571.942,308.044 576.359,313.024L576.504,313.188L576.369,313.361C574.051,316.328 573.076,317.715 571.152,321.093C571.155,322.177 571.192,335.339 571.192,341.653L571.192,341.917Z" style="fill:rgb(17,52,71);fill-rule:nonzero;"/>
        <path d="M551.033,287.961C551.033,289.729 549.6,291.161 547.834,291.161C546.066,291.161 544.633,289.729 544.633,287.961C544.633,286.193 546.066,284.76 547.834,284.76C549.6,284.76 551.033,286.193 551.033,287.961" style="fill:rgb(255,200,158);fill-rule:nonzero;"/>
        <path d="M544.897,287.961C544.897,289.58 546.213,290.898 547.834,290.898C549.454,290.898 550.77,289.58 550.77,287.961C550.77,286.342 549.454,285.024 547.834,285.024C546.213,285.024 544.897,286.342 544.897,287.961M544.369,287.961C544.369,286.051 545.924,284.497 547.834,284.497C549.743,284.497 551.296,286.051 551.296,287.961C551.296,289.871 549.743,291.425 547.834,291.425C545.924,291.425 544.369,289.871 544.369,287.961" style="fill:rgb(17,52,71);fill-rule:nonzero;"/>
        <path d="M547.754,287.637L546.309,287.352L546.445,286.787L547.89,287.072L547.754,287.637Z" style="fill:rgb(17,52,71);fill-rule:nonzero;"/>
        <path d="M563.097,288.021C563.097,289.788 564.531,291.221 566.298,291.221C568.065,291.221 569.498,289.788 569.498,288.021C569.498,286.253 568.065,284.82 566.298,284.82C564.531,284.82 563.097,286.253 563.097,288.021" style="fill:rgb(255,200,158);fill-rule:nonzero;"/>
        <path d="M563.361,288.021C563.361,289.64 564.678,290.957 566.298,290.957C567.917,290.957 569.234,289.64 569.234,288.021C569.234,286.401 567.917,285.084 566.298,285.084C564.678,285.084 563.361,286.401 563.361,288.021M562.833,288.021C562.833,286.11 564.386,284.557 566.298,284.557C568.208,284.557 569.761,286.11 569.761,288.021C569.761,289.931 568.208,291.484 566.298,291.484C564.386,291.484 562.833,289.931 562.833,288.021" style="fill:rgb(17,52,71);fill-rule:nonzero;"/>
        <path d="M547.834,295.364C547.834,299.062 550.83,302.06 554.528,302.06L559.602,302.06C563.3,302.06 566.298,299.062 566.298,295.364L566.298,278.997C566.298,275.299 563.3,272.302 559.602,272.302L554.528,272.302C550.83,272.302 547.834,275.299 547.834,278.997L547.834,295.364Z" style="fill:rgb(255,200,158);fill-rule:nonzero;"/>
        <path d="M554.528,272.565C550.982,272.565 548.097,275.451 548.097,278.997L548.097,295.364C548.097,298.911 550.982,301.795 554.528,301.795L559.601,301.795C563.148,301.795 566.034,298.911 566.034,295.364L566.034,278.997C566.034,275.451 563.148,272.565 559.601,272.565L554.528,272.565ZM547.569,295.364L547.569,278.997C547.569,275.16 550.691,272.038 554.528,272.038L559.601,272.038C563.439,272.038 566.56,275.16 566.56,278.997L566.56,295.364C566.56,299.201 563.439,302.323 559.601,302.323L554.528,302.323C550.691,302.323 547.569,299.201 547.569,295.364" style="fill:rgb(17,52,71);fill-rule:nonzero;"/>
        <path d="M560.931,287.18C560.931,287.808 561.441,288.317 562.069,288.317C562.697,288.317 563.205,287.808 563.205,287.18C563.205,286.552 562.697,286.043 562.069,286.043C561.441,286.043 560.931,286.552 560.931,287.18" style="fill:rgb(17,52,71);fill-rule:nonzero;"/>
        <path d="M552.451,287.18C552.451,287.808 552.962,288.317 553.59,288.317C554.217,288.317 554.726,287.808 554.726,287.18C554.726,286.552 554.217,286.043 553.59,286.043C552.962,286.043 552.451,286.552 552.451,287.18" style="fill:rgb(17,52,71);fill-rule:nonzero;"/>
        <path d="M561.936,287.017C561.936,287.25 562.125,287.44 562.359,287.44C562.592,287.44 562.782,287.25 562.782,287.017C562.782,286.784 562.592,286.594 562.359,286.594C562.125,286.594 561.936,286.784 561.936,287.017" style="fill:white;fill-rule:nonzero;"/>
        <path d="M553.457,287.017C553.457,287.25 553.646,287.44 553.881,287.44C554.114,287.44 554.303,287.25 554.303,287.017C554.303,286.784 554.114,286.594 553.881,286.594C553.646,286.594 553.457,286.784 553.457,287.017" style="fill:white;fill-rule:nonzero;"/>
        <path d="M566.389,287.698L567.938,287.421L567.791,286.871L566.242,287.148L566.389,287.698Z" style="fill:rgb(17,52,71);fill-rule:nonzero;"/>
        <rect x="555.495" y="291.266" width="4.643" height="0.527" style="fill:rgb(17,52,71);fill-rule:nonzero;"/>
        <g>
            <g opacity="0.199997">
                <clipPath id="_clip3">
                    <rect x="549.364" y="289.186" width="4.517" height="1.404"/>
                </clipPath>
                <g clip-path="url(#_clip3)">
                    <path d="M553.881,289.888C553.881,290.276 552.869,290.59 551.623,290.59C550.375,290.59 549.364,290.276 549.364,289.888C549.364,289.5 550.375,289.186 551.623,289.186C552.869,289.186 553.881,289.5 553.881,289.888" style="fill:rgb(239,47,32);fill-rule:nonzero;"/>
                </g>
            </g>
        </g>
        <g>
            <g opacity="0.199997">
                <clipPath id="_clip4">
                    <rect x="560.947" y="289.186" width="4.516" height="1.404"/>
                </clipPath>
                <g clip-path="url(#_clip4)">
                    <path d="M565.463,289.888C565.463,290.276 564.451,290.59 563.205,290.59C561.957,290.59 560.947,290.276 560.947,289.888C560.947,289.5 561.957,289.186 563.205,289.186C564.451,289.186 565.463,289.5 565.463,289.888" style="fill:rgb(239,47,32);fill-rule:nonzero;"/>
                </g>
            </g>
        </g>
        <path d="M531.863,343.072L532.709,337.042C532.813,336.589 539.55,338.128 539.515,338.592L538.782,345.115C538.747,345.579 538.343,345.925 537.879,345.893C536.945,345.831 537.003,344.627 537.102,343.398L536.931,346.021C536.896,346.486 536.491,346.833 536.026,346.796C535.562,346.76 535.216,346.355 535.253,345.89L535.366,343.18L535.112,345.032C535.05,345.493 534.624,345.816 534.164,345.753C533.702,345.689 533.381,345.264 533.442,344.803L533.806,342.148L533.506,343.45C533.402,343.904 532.949,344.186 532.495,344.081C532.043,343.977 531.759,343.525 531.863,343.072" style="fill:rgb(255,200,158);fill-rule:nonzero;"/>
        <path d="M537.366,343.415L537.318,344.143C537.271,345.413 537.568,345.608 537.896,345.63C538.216,345.651 538.495,345.411 538.519,345.085L539.242,338.67C538.605,338.268 534.03,337.136 532.949,337.224L532.121,343.13C532.049,343.442 532.244,343.753 532.554,343.825C532.625,343.841 532.697,343.844 532.767,343.833C533.006,343.8 533.195,343.625 533.25,343.391L533.55,342.088L534.067,342.183L533.704,344.838C533.661,345.156 533.883,345.448 534.199,345.491C534.511,345.533 534.808,345.304 534.851,344.996L535.105,343.144L535.629,343.191L535.515,345.911C535.49,346.229 535.729,346.508 536.048,346.533C536.361,346.558 536.645,346.311 536.669,346.004L536.791,344.123C536.801,343.882 536.819,343.63 536.84,343.377L537.366,343.415ZM536.006,347.059C535.398,347.011 534.942,346.478 534.989,345.88L534.994,345.759C534.763,345.956 534.442,346.057 534.128,346.014C533.523,345.931 533.098,345.372 533.181,344.767L533.259,344.208C533.134,344.283 532.994,344.334 532.844,344.356C532.707,344.375 532.57,344.37 532.436,344.339C531.843,344.202 531.47,343.607 531.602,343.035L532.452,336.982C532.476,336.878 532.559,336.747 532.816,336.709C533.739,336.575 539.031,337.743 539.652,338.322C539.766,338.429 539.784,338.539 539.777,338.621L539.045,345.134C539.007,345.656 538.617,346.072 538.098,346.147C538.02,346.158 537.94,346.161 537.861,346.156C537.574,346.137 537.361,346.036 537.205,345.885L537.195,346.042C537.154,346.561 536.766,346.977 536.253,347.051C536.172,347.062 536.088,347.065 536.006,347.059" style="fill:rgb(17,52,71);fill-rule:nonzero;"/>
        <path d="M538.093,344.964L538.164,344.442L537.064,344.291L536.992,344.814L538.093,344.964Z" style="fill:rgb(17,52,71);fill-rule:nonzero;"/>
        <path d="M536.15,345.814L536.212,345.291L535.301,345.184L535.24,345.707L536.15,345.814Z" style="fill:rgb(17,52,71);fill-rule:nonzero;"/>
        <path d="M534.269,344.833L534.385,344.319L533.567,344.133L533.45,344.648L534.269,344.833Z" style="fill:rgb(17,52,71);fill-rule:nonzero;"/>
        <path d="M532.768,343.499L532.916,342.993L531.954,342.711L531.805,343.217L532.768,343.499Z" style="fill:rgb(17,52,71);fill-rule:nonzero;"/>
        <path d="M539.016,338.192L539.511,334.538L534.257,333.394L533.864,336.959L539.016,338.192Z" style="fill:rgb(17,52,71);fill-rule:nonzero;"/>
        <path d="M579.115,304.66L579.45,306.539C579.261,305.616 578.967,304.88 578.227,305.011C577.768,305.09 577.458,305.522 577.536,305.981L577.874,308.592L577.738,308.511C577.34,308.27 576.822,308.399 576.582,308.798C576.342,309.197 576.472,309.714 576.87,309.954L578.154,310.756L578.379,312.491C578.456,312.949 585.366,312.838 585.359,312.373L584.741,306.316C584.734,305.85 584.351,305.479 583.886,305.485C583.422,305.492 583.051,305.875 583.055,306.34L583.075,307.677L582.795,305.011C582.746,304.547 582.332,304.211 581.87,304.26C581.406,304.309 581.07,304.724 581.119,305.187L581.313,307.046L580.779,304.387C580.702,303.927 580.269,303.616 579.81,303.692C579.35,303.766 579.04,304.2 579.115,304.66" style="fill:rgb(255,200,158);fill-rule:nonzero;"/>
        <path d="M579.853,303.952C580.167,303.9 580.467,304.114 580.518,304.43L581.055,307.098L581.578,307.018L581.381,305.16C581.349,304.85 581.584,304.556 581.897,304.523C582.214,304.49 582.499,304.721 582.535,305.039L582.814,307.704L583.339,307.674L583.32,306.337C583.318,306.096 583.459,305.882 583.681,305.791C583.749,305.764 583.819,305.75 583.891,305.749C584.209,305.744 584.473,306.001 584.478,306.32L585.083,312.254C584.052,312.597 579.339,312.589 578.626,312.35L578.396,310.564C578.364,310.548 577.007,309.729 577.007,309.729C576.874,309.649 576.781,309.522 576.743,309.373C576.705,309.222 576.728,309.067 576.809,308.933C576.969,308.667 577.338,308.577 577.603,308.737L577.621,308.747C577.777,308.889 578.844,309.854 578.844,309.854L579.008,309.765C579.018,309.76 579.959,309.26 580.626,309.529C580.902,309.64 581.092,309.87 581.208,310.235L581.709,310.075C581.685,310.001 581.66,309.93 581.631,309.863C581.458,309.463 581.185,309.186 580.82,309.039C580.122,308.758 579.286,309.06 578.93,309.218L578.124,308.476L577.796,305.948C577.744,305.625 577.958,305.326 578.272,305.271C578.597,305.213 578.931,305.332 579.19,306.577L579.316,307.295L579.836,307.206C579.796,306.955 579.374,304.614 579.374,304.614C579.325,304.311 579.542,304.004 579.853,303.952M578.855,304.703L578.882,304.857C578.695,304.748 578.464,304.701 578.18,304.751C578.103,304.764 578.027,304.786 577.954,304.816C577.468,305.013 577.187,305.51 577.276,306.025L577.546,308.159C577.33,308.109 577.103,308.121 576.888,308.207C576.666,308.298 576.48,308.455 576.357,308.662C576.204,308.916 576.161,309.213 576.23,309.5C576.301,309.787 576.482,310.028 576.735,310.181L577.906,310.885L578.118,312.525C578.131,312.607 578.175,312.71 578.31,312.785C579.052,313.2 584.469,313.072 585.334,312.723C585.575,312.625 585.624,312.476 585.623,312.37L585.003,306.289C584.997,305.702 584.493,305.214 583.883,305.222C583.747,305.224 583.612,305.251 583.484,305.303C583.343,305.359 583.219,305.443 583.118,305.545L583.057,304.983C582.993,304.377 582.449,303.935 581.842,304C581.527,304.032 581.238,304.207 581.06,304.452L581.037,304.335C580.94,303.742 580.369,303.332 579.767,303.432C579.685,303.445 579.608,303.467 579.531,303.498C579.049,303.693 578.772,304.189 578.855,304.703" style="fill:rgb(17,52,71);fill-rule:nonzero;"/>
        <path d="M555.096,283.759C555.096,284.311 554.649,284.758 554.097,284.758L549.035,284.758C548.484,284.758 548.036,284.311 548.036,283.759L548.036,283.495C548.036,282.944 548.484,282.497 549.035,282.497L554.097,282.497C554.649,282.497 555.096,282.944 555.096,283.495L555.096,283.759Z" style="fill:rgb(17,52,71);fill-rule:nonzero;"/>
        <path d="M566.542,283.759C566.542,284.311 566.095,284.758 565.543,284.758L560.482,284.758C559.93,284.758 559.482,284.311 559.482,283.759L559.482,283.495C559.482,282.944 559.93,282.497 560.482,282.497L565.543,282.497C566.095,282.497 566.542,282.944 566.542,283.495L566.542,283.759Z" style="fill:rgb(17,52,71);fill-rule:nonzero;"/>
        <path d="M562.782,275.489L560.93,277.526L560.137,275.753L558.475,277.526L557.816,275.753L551.565,276.508L547.832,287.306L546.516,284.758L546.516,275.753L553.457,271.021L562.068,272.037L563.012,270.098L564.474,272.735L567.549,272.301L566.291,274.185L567.549,276.426L567.937,284.821L566.241,287.148L566.034,278.996L564.474,280.644L562.782,275.489Z" style="fill:rgb(17,52,71);fill-rule:nonzero;"/>
        <path d="M578.91,312.784L578.802,316.144L584.031,316.704L584.199,312.784L578.91,312.784Z" style="fill:rgb(17,52,71);fill-rule:nonzero;"/>
        <rect x="564.472" y="306.622" width="3.077" height="8.935" style="fill:white;fill-rule:nonzero;"/>
        <rect x="546.809" y="306.622" width="3.076" height="8.935" style="fill:white;fill-rule:nonzero;"/>
        <rect x="543.566" y="325.64" width="5.102" height="3.077" style="fill:white;fill-rule:nonzero;"/>
        <rect x="566.291" y="325.64" width="4.349" height="3.077" style="fill:white;fill-rule:nonzero;"/>
        <rect x="546.809" y="315.556" width="20.74" height="13.161" style="fill:white;fill-rule:nonzero;"/>
        <path d="M550.878,326.023L550.878,320.056L549.883,320.056L549.883,319.24C550.162,319.207 550.429,319.101 550.684,318.921C550.937,318.742 551.118,318.525 551.231,318.269L552.046,318.269L552.046,326.023L550.878,326.023Z" style="fill:rgb(224,71,63);fill-rule:nonzero;"/>
        <path d="M557.086,323.704C557.086,323.243 556.981,322.933 556.771,322.777C556.671,322.703 556.533,322.665 556.357,322.665C556.047,322.665 555.836,322.798 555.725,323.061C555.659,323.222 555.627,323.436 555.627,323.704L555.627,324.075C555.627,324.331 555.705,324.537 555.861,324.694C555.993,324.826 556.158,324.896 556.357,324.904C556.673,324.887 556.895,324.731 557.018,324.434C557.064,324.335 557.086,324.215 557.086,324.075L557.086,323.704ZM557.123,320.294C557.114,319.764 556.947,319.431 556.621,319.295C556.548,319.263 556.459,319.246 556.357,319.246C556.154,319.246 555.988,319.302 555.861,319.412C555.758,319.503 555.685,319.619 555.642,319.761C555.599,319.903 555.581,320.08 555.589,320.294C555.602,320.631 555.654,320.873 555.75,321.021C555.874,321.219 556.076,321.317 556.357,321.317C556.637,321.317 556.841,321.213 556.969,321.003C557.076,320.827 557.127,320.59 557.123,320.294M558.254,324.254C558.254,324.77 558.073,325.206 557.711,325.565C557.348,325.924 556.91,326.103 556.399,326.103L556.307,326.103C555.791,326.103 555.355,325.922 554.995,325.559C554.637,325.197 554.458,324.762 554.458,324.254L554.458,323.55C554.458,323.076 554.616,322.661 554.934,322.307C555.069,322.155 555.229,322.028 555.41,321.93C555.097,321.769 554.854,321.501 554.68,321.126C554.594,320.932 554.551,320.689 554.551,320.396L554.551,319.976C554.551,319.473 554.699,319.057 554.995,318.726C555.325,318.355 555.762,318.17 556.307,318.17L556.399,318.17C556.947,318.17 557.386,318.355 557.716,318.726C558.014,319.061 558.161,319.477 558.161,319.976L558.161,320.396C558.161,320.878 558.018,321.279 557.729,321.596C557.6,321.736 557.458,321.847 557.302,321.93C557.648,322.123 557.916,322.418 558.106,322.814C558.204,323.016 558.254,323.261 558.254,323.55L558.254,324.254Z" style="fill:rgb(224,71,63);fill-rule:nonzero;"/>
        <path d="M560.684,320.458C560.684,319.725 560.883,319.164 561.278,318.776C561.62,318.434 562.07,318.263 562.626,318.263C563.137,318.263 563.573,318.455 563.933,318.838C564.294,319.221 564.475,319.668 564.475,320.18C564.475,320.708 564.357,321.217 564.122,321.707C563.995,321.979 563.696,322.447 563.225,323.111C563.097,323.292 562.908,323.574 562.657,323.958L562.447,324.273C562.311,324.479 562.207,324.642 562.137,324.762C562.104,324.823 562.088,324.86 562.088,324.873L564.382,324.873L564.382,326.017L560.665,326.017L560.665,324.945C560.665,324.92 560.75,324.778 560.921,324.517C560.999,324.398 561.088,324.267 561.188,324.123L561.492,323.685C561.669,323.441 561.949,323.052 562.329,322.516C562.687,322.014 562.955,321.558 563.132,321.15C563.278,320.816 563.349,320.505 563.349,320.217C563.349,319.982 563.283,319.782 563.151,319.617C563.007,319.444 562.821,319.357 562.595,319.357C562.268,319.357 562.038,319.545 561.902,319.92C561.857,320.044 561.834,320.192 561.834,320.365L561.834,320.663L560.684,320.663L560.684,320.458Z" style="fill:rgb(224,71,63);fill-rule:nonzero;"/>
        <path d="M552.643,306.358L549.654,306.358L554.79,325.814L557.921,325.814L564.606,306.358L561.463,306.358L556.469,322.7L552.643,306.358Z" style="fill:rgb(17,52,71);fill-rule:nonzero;"/>
        <path d="M560.665,328.902C560.665,331.14 558.851,332.954 556.614,332.954C554.376,332.954 552.562,331.14 552.562,328.902C552.562,326.665 554.376,324.851 556.614,324.851C558.851,324.851 560.665,326.665 560.665,328.902" style="fill:rgb(255,211,26);fill-rule:nonzero;"/>
        <path d="M556.614,325.114C554.525,325.114 552.826,326.813 552.826,328.902C552.826,330.99 554.525,332.69 556.614,332.69C558.703,332.69 560.401,330.99 560.401,328.902C560.401,326.813 558.703,325.114 556.614,325.114M556.614,333.217C554.233,333.217 552.299,331.281 552.299,328.902C552.299,326.522 554.233,324.586 556.614,324.586C558.993,324.586 560.928,326.522 560.928,328.902C560.928,331.281 558.993,333.217 556.614,333.217" style="fill:rgb(17,52,71);fill-rule:nonzero;"/>
        <path d="M556.294,331.659L556.294,327.415L555.586,327.415L555.586,326.834C555.785,326.811 555.976,326.736 556.155,326.608C556.335,326.48 556.465,326.326 556.545,326.144L557.125,326.144L557.125,331.659L556.294,331.659Z" style="fill:rgb(17,52,71);fill-rule:nonzero;"/>
        <path d="M557.375,295.167C557.307,295.167 557.237,295.165 557.168,295.162C555.945,295.102 554.984,294.489 554.597,293.523L555.086,293.327C555.395,294.096 556.184,294.585 557.195,294.635C558.379,294.693 559.518,294.146 559.958,293.303L560.426,293.547C559.91,294.532 558.703,295.167 557.375,295.167" style="fill:rgb(17,52,71);fill-rule:nonzero;"/>
        <path d="M557.109,296.391L557.039,295.869L558.948,295.61L559.019,296.132L557.109,296.391Z" style="fill:rgb(17,52,71);fill-rule:nonzero;"/>
        <rect x="607.789" y="373.63" width="5.008" height="13.921" style="fill:rgb(255,200,158);fill-rule:nonzero;"/>
        <path d="M608.052,387.287L612.534,387.287L612.534,373.893L608.052,373.893L608.052,387.287ZM613.061,387.815L607.525,387.815L607.525,373.367L613.061,373.367L613.061,387.815Z" style="fill:rgb(17,52,71);fill-rule:nonzero;"/>
        <rect x="592.076" y="372.786" width="5.01" height="13.921" style="fill:rgb(255,200,158);fill-rule:nonzero;"/>
        <path d="M592.34,386.444L596.822,386.444L596.822,373.05L592.34,373.05L592.34,386.444ZM597.35,386.971L591.813,386.971L591.813,372.523L597.35,372.523L597.35,386.971Z" style="fill:rgb(17,52,71);fill-rule:nonzero;"/>
        <path d="M620.082,358.373L617.893,360.551C617.562,360.879 617.561,361.412 617.889,361.743C618.217,362.072 618.75,362.074 619.08,361.746L621.267,359.572C620.879,359.167 620.479,358.771 620.082,358.373" style="fill:rgb(255,200,158);fill-rule:nonzero;"/>
        <path d="M621.084,359.383L618.895,361.559C618.675,361.778 618.296,361.777 618.075,361.557C617.967,361.447 617.907,361.302 617.907,361.147C617.908,360.992 617.969,360.847 618.078,360.738L620.269,358.561C620.144,358.437 620.022,358.311 619.898,358.185L617.706,360.363C617.496,360.572 617.381,360.85 617.38,361.145C617.379,361.441 617.493,361.719 617.702,361.928C617.872,362.1 618.089,362.208 618.326,362.243C618.675,362.294 619.018,362.181 619.267,361.933L621.451,359.762C621.33,359.634 621.207,359.508 621.084,359.383" style="fill:rgb(17,52,71);fill-rule:nonzero;"/>
        <path d="M619.492,359.16C619.342,358.159 619.196,356.946 619.026,355.542C618.347,349.906 617.211,340.472 614.35,336.4L618.665,333.368C622.288,338.525 623.475,348.387 624.262,354.911C624.426,356.275 624.568,357.452 624.707,358.378L619.492,359.16Z" style="fill:rgb(255,200,158);fill-rule:nonzero;"/>
        <path d="M624,354.944C623.229,348.536 622.068,338.899 618.598,333.738L614.715,336.467C617.506,340.701 618.618,349.948 619.289,355.511C619.441,356.791 619.578,357.911 619.715,358.861L624.408,358.157C624.281,357.274 624.15,356.19 624,354.944M619.231,359.2C619.08,358.19 618.934,356.977 618.765,355.574C618.09,349.963 616.958,340.57 614.135,336.552L613.982,336.337L618.729,333.002L618.881,333.217C622.542,338.429 623.734,348.329 624.525,354.891C624.687,356.248 624.829,357.42 624.968,358.339L625.006,358.6L619.271,359.461L619.231,359.2Z" style="fill:rgb(17,52,71);fill-rule:nonzero;"/>
        <path d="M626.404,362.208L625.558,356.178C625.455,355.725 618.718,357.264 618.753,357.728L619.486,364.251C619.521,364.715 619.924,365.06 620.388,365.029C621.322,364.968 621.264,363.763 621.166,362.534L621.336,365.158C621.371,365.622 621.777,365.969 622.241,365.932C622.706,365.896 623.052,365.491 623.015,365.027L622.901,362.316L623.156,364.167C623.218,364.629 623.643,364.952 624.104,364.889C624.566,364.825 624.887,364.4 624.825,363.939L624.462,361.283L624.761,362.586C624.866,363.04 625.318,363.322 625.773,363.218C626.225,363.113 626.508,362.661 626.404,362.208" style="fill:rgb(255,200,158);fill-rule:nonzero;"/>
        <path d="M621.429,362.513C621.45,362.766 621.468,363.018 621.477,363.259L621.599,365.14C621.623,365.447 621.908,365.693 622.221,365.669C622.538,365.645 622.778,365.365 622.753,365.046L622.639,362.328L623.162,362.281L623.417,364.132C623.459,364.44 623.758,364.669 624.07,364.628C624.386,364.584 624.608,364.292 624.565,363.974L624.2,361.319L624.719,361.223L625.019,362.527C625.074,362.761 625.262,362.936 625.5,362.97C625.572,362.98 625.643,362.977 625.713,362.961C626.024,362.889 626.219,362.578 626.148,362.266L625.319,356.36C624.239,356.272 619.662,357.404 619.027,357.806L619.748,364.221C619.773,364.547 620.053,364.787 620.372,364.766C620.7,364.744 620.997,364.549 620.95,363.28L620.903,362.551L621.429,362.513ZM622.016,366.187C621.502,366.113 621.114,365.698 621.073,365.178L621.063,365.021C620.907,365.172 620.695,365.273 620.407,365.292C620.328,365.297 620.247,365.294 620.17,365.283C619.651,365.208 619.262,364.792 619.224,364.27L618.491,357.758C618.485,357.675 618.502,357.565 618.616,357.458C619.237,356.879 624.53,355.712 625.452,355.845C625.709,355.882 625.791,356.014 625.817,356.118L626.666,362.171C626.797,362.743 626.426,363.337 625.831,363.475C625.698,363.505 625.561,363.512 625.424,363.492C625.274,363.47 625.135,363.419 625.01,363.345L625.087,363.904C625.17,364.508 624.745,365.067 624.14,365.15C623.826,365.193 623.505,365.092 623.275,364.895L623.28,365.016C623.326,365.615 622.869,366.148 622.262,366.195C622.181,366.201 622.097,366.199 622.016,366.187" style="fill:rgb(17,52,71);fill-rule:nonzero;"/>
        <path d="M620.176,364.099L620.105,363.577L621.205,363.427L621.277,363.949L620.176,364.099Z" style="fill:rgb(17,52,71);fill-rule:nonzero;"/>
        <path d="M624,363.969L623.884,363.454L624.702,363.269L624.818,363.783L624,363.969Z" style="fill:rgb(17,52,71);fill-rule:nonzero;"/>
        <path d="M625.501,362.634L625.352,362.128L626.314,361.846L626.463,362.352L625.501,362.634Z" style="fill:rgb(17,52,71);fill-rule:nonzero;"/>
        <path d="M619.252,357.328L618.758,353.674L624.011,352.53L624.404,356.095L619.252,357.328Z" style="fill:rgb(17,52,71);fill-rule:nonzero;"/>
        <path d="M615.817,360.579L611.366,360.235L593.509,360.234L588.985,360.473L590.304,382.798L598.317,382.798L599.634,369.74C599.634,368.225 600.863,366.997 602.379,366.997C603.893,366.997 605.122,368.225 605.122,369.74L606.439,382.798L614.498,382.798L615.817,360.579Z" style="fill:rgb(51,95,114);fill-rule:nonzero;"/>
        <path d="M606.678,382.535L614.25,382.535L615.539,360.822L611.346,360.497L593.51,360.498L589.264,360.723L590.553,382.535L598.079,382.535L599.372,369.727C599.379,368.075 600.726,366.734 602.379,366.734C604.032,366.734 605.379,368.075 605.385,369.727L606.678,382.535ZM614.748,383.062L606.201,383.062L604.859,369.741C604.859,368.373 603.745,367.261 602.379,367.261C601.012,367.261 599.899,368.373 599.899,369.741L599.899,369.767L598.555,383.062L590.055,383.062L588.706,360.224L593.496,359.971L611.366,359.971L616.096,360.336L614.748,383.062Z" style="fill:rgb(17,52,71);fill-rule:nonzero;"/>
        <path d="M584.84,358.286L587.03,360.464C587.361,360.792 587.362,361.326 587.034,361.656C586.706,361.986 586.172,361.988 585.842,361.66L583.656,359.486C584.044,359.08 584.444,358.685 584.84,358.286" style="fill:rgb(255,200,158);fill-rule:nonzero;"/>
        <path d="M583.838,359.296L586.027,361.472C586.248,361.691 586.627,361.69 586.847,361.47C586.956,361.359 587.016,361.214 587.016,361.06C587.016,360.905 586.953,360.76 586.845,360.65L584.654,358.474C584.779,358.35 584.901,358.223 585.024,358.098L587.216,360.276C587.426,360.485 587.541,360.762 587.543,361.058C587.543,361.354 587.429,361.631 587.221,361.841C587.05,362.013 586.834,362.121 586.596,362.156C586.248,362.207 585.905,362.093 585.656,361.846L583.473,359.675C583.593,359.547 583.715,359.421 583.838,359.296" style="fill:rgb(17,52,71);fill-rule:nonzero;"/>
        <path d="M585.43,359.073C585.58,358.073 585.727,356.859 585.896,355.456C586.575,349.819 587.711,340.386 590.573,336.312L586.258,333.282C582.635,338.439 581.448,348.299 580.66,354.824C580.496,356.189 580.356,357.365 580.216,358.29L585.43,359.073Z" style="fill:rgb(255,200,158);fill-rule:nonzero;"/>
        <path d="M580.515,358.07L585.208,358.774C585.345,357.824 585.481,356.704 585.635,355.424C586.305,349.861 587.418,340.614 590.208,336.38L586.325,333.651C582.856,338.811 581.695,348.449 580.923,354.857C580.773,356.103 580.642,357.187 580.515,358.07M585.653,359.374L579.916,358.513L579.955,358.252C580.093,357.333 580.235,356.161 580.399,354.804C581.188,348.242 582.381,338.341 586.041,333.131L586.194,332.915L590.94,336.249L590.788,336.465C587.965,340.483 586.834,349.876 586.158,355.487C585.989,356.89 585.844,358.102 585.692,359.113L585.653,359.374Z" style="fill:rgb(17,52,71);fill-rule:nonzero;"/>
        <rect x="598.161" y="316.726" width="8.479" height="13.242" style="fill:rgb(255,200,158);fill-rule:nonzero;"/>
        <path d="M606.377,316.989L598.426,316.989L598.426,329.704L606.377,329.704L606.377,316.989ZM597.898,316.462L606.904,316.462L606.904,330.232L597.898,330.232L597.898,316.462Z" style="fill:rgb(17,52,71);fill-rule:nonzero;"/>
        <path d="M602.767,325.883L602.477,325.443L604.371,324.197L604.371,322.878L604.899,322.878L604.899,324.481L602.767,325.883Z" style="fill:rgb(17,52,71);fill-rule:nonzero;"/>
        <path d="M581.361,339.131C583.571,333.33 587.256,325.406 591.967,325.406L598.161,325.406C598.161,327.389 600.06,328.997 602.401,328.997C604.742,328.997 606.64,327.389 606.64,325.406L612.834,325.406C617.312,325.406 621.699,333.199 623.909,339.001C620.847,340.634 617.766,342.058 615.975,342.768C615.975,342.768 616.263,354.072 616.263,360.702L588.539,360.702C588.539,354.072 588.902,342.768 588.902,342.768C587.219,341.745 583.5,340.304 581.361,339.131" style="fill:rgb(146,207,226);fill-rule:nonzero;"/>
        <path d="M588.803,360.438L616,360.438C615.993,353.853 615.715,342.885 615.713,342.774L615.707,342.59L615.878,342.522C617.404,341.918 620.319,340.607 623.579,338.877C621.023,332.267 616.739,325.67 612.834,325.67L606.895,325.67C606.736,327.673 604.781,329.261 602.402,329.261C600.022,329.261 598.068,327.673 597.908,325.67L591.968,325.67C588.549,325.67 585.091,330.158 581.69,339.009C582.664,339.528 583.934,340.099 585.163,340.653C586.692,341.342 588.135,341.992 589.039,342.542L589.171,342.622L589.166,342.776C589.162,342.887 588.812,353.854 588.803,360.438M616.529,360.965L588.275,360.965L588.275,360.702C588.275,354.563 588.59,344.299 588.633,342.914C587.75,342.397 586.387,341.783 584.948,341.134C583.621,340.537 582.25,339.919 581.235,339.362L581.033,339.251L581.114,339.037C584.677,329.688 588.228,325.143 591.968,325.143L598.426,325.143L598.426,325.406C598.426,327.241 600.209,328.733 602.402,328.733C604.594,328.733 606.377,327.241 606.377,325.406L606.377,325.143L612.834,325.143C617.32,325.143 621.737,332.557 624.156,338.907L624.239,339.124L624.033,339.233C620.787,340.964 617.857,342.294 616.244,342.944C616.282,344.434 616.529,354.605 616.529,360.702L616.529,360.965Z" style="fill:rgb(17,52,71);fill-rule:nonzero;"/>
        <path d="M589.534,387.534L589.521,387.534L589.521,385.486L598.856,385.486L598.863,393.55L585.45,393.55C585.406,389.877 586.55,388.422 589.534,387.534" style="fill:rgb(17,52,71);fill-rule:nonzero;"/>
        <path d="M615.269,387.534C618.253,388.422 619.397,389.877 619.353,393.55L605.936,393.55L605.934,385.486L615.269,385.486L615.269,387.534Z" style="fill:rgb(17,52,71);fill-rule:nonzero;"/>
        <path d="M578.518,362.121L579.364,356.091C579.469,355.637 586.205,357.177 586.17,357.641L585.437,364.164C585.403,364.628 584.998,364.973 584.534,364.942C583.6,364.88 583.658,363.676 583.758,362.447L583.587,365.07C583.551,365.535 583.146,365.882 582.682,365.845C582.217,365.809 581.872,365.404 581.907,364.939L582.021,362.229L581.767,364.081C581.705,364.542 581.28,364.865 580.818,364.801C580.356,364.738 580.036,364.313 580.098,363.852L580.461,361.196L580.162,362.498C580.056,362.953 579.605,363.235 579.151,363.13C578.697,363.026 578.414,362.574 578.518,362.121" style="fill:rgb(255,200,158);fill-rule:nonzero;"/>
        <path d="M584.021,362.464L583.973,363.192C583.926,364.462 584.223,364.657 584.551,364.679C584.872,364.7 585.15,364.46 585.175,364.134L585.896,357.718C585.261,357.316 580.685,356.185 579.604,356.273L578.776,362.179C578.704,362.491 578.899,362.802 579.209,362.874C579.281,362.89 579.351,362.893 579.423,362.882C579.661,362.849 579.849,362.674 579.904,362.439L580.204,361.136L580.723,361.232L580.358,363.887C580.315,364.205 580.538,364.497 580.853,364.54C581.166,364.582 581.464,364.353 581.506,364.044L581.76,362.193L582.285,362.24L582.17,364.96C582.146,365.278 582.384,365.557 582.703,365.582C583.016,365.606 583.3,365.36 583.325,365.053L583.447,363.172C583.455,362.931 583.473,362.678 583.495,362.426L584.021,362.464ZM582.661,366.108C582.053,366.06 581.598,365.527 581.644,364.928L581.649,364.808C581.418,365.005 581.098,365.106 580.782,365.063C580.178,364.98 579.753,364.421 579.836,363.816L579.913,363.257C579.79,363.332 579.649,363.383 579.498,363.405C579.363,363.424 579.224,363.418 579.091,363.388C578.497,363.25 578.125,362.656 578.257,362.084L579.108,356.031C579.131,355.927 579.214,355.795 579.471,355.757C580.394,355.624 585.685,356.792 586.306,357.371C586.421,357.478 586.439,357.587 586.431,357.67L585.7,364.183C585.661,364.705 585.272,365.12 584.752,365.196C584.675,365.207 584.594,365.21 584.516,365.205C584.228,365.186 584.016,365.084 583.861,364.934L583.851,365.09C583.809,365.61 583.421,366.026 582.906,366.1C582.827,366.111 582.743,366.114 582.661,366.108" style="fill:rgb(17,52,71);fill-rule:nonzero;"/>
        <path d="M584.747,364.012L584.818,363.49L583.718,363.34L583.646,363.862L584.747,364.012Z" style="fill:rgb(17,52,71);fill-rule:nonzero;"/>
        <path d="M582.805,364.863L582.867,364.34L581.956,364.232L581.895,364.756L582.805,364.863Z" style="fill:rgb(17,52,71);fill-rule:nonzero;"/>
        <path d="M580.923,363.882L581.039,363.367L580.221,363.182L580.105,363.697L580.923,363.882Z" style="fill:rgb(17,52,71);fill-rule:nonzero;"/>
        <path d="M579.422,362.548L579.57,362.042L578.608,361.76L578.46,362.266L579.422,362.548Z" style="fill:rgb(17,52,71);fill-rule:nonzero;"/>
        <path d="M585.67,357.241L586.164,353.587L580.912,352.443L580.518,356.008L585.67,357.241Z" style="fill:rgb(17,52,71);fill-rule:nonzero;"/>
        <path d="M622.014,364.981L621.952,364.458L622.862,364.35L622.924,364.873L622.014,364.981Z" style="fill:rgb(17,52,71);fill-rule:nonzero;"/>
        <rect x="609.808" y="325.67" width="3.077" height="8.935" style="fill:white;fill-rule:nonzero;"/>
        <rect x="592.145" y="325.67" width="3.077" height="8.935" style="fill:white;fill-rule:nonzero;"/>
        <path d="M589.022,347.766L589.108,344.688L594.004,344.688L594.004,347.766L589.022,347.766Z" style="fill:white;fill-rule:nonzero;"/>
        <path d="M611.627,347.766L611.627,344.688L615.758,344.688L615.826,347.766L611.627,347.766Z" style="fill:white;fill-rule:nonzero;"/>
        <path d="M608.618,307.69C608.618,309.457 610.052,310.89 611.819,310.89C613.586,310.89 615.019,309.457 615.019,307.69C615.019,305.922 613.586,304.49 611.819,304.49C610.052,304.49 608.618,305.922 608.618,307.69" style="fill:rgb(255,200,158);fill-rule:nonzero;"/>
        <path d="M611.819,304.753C610.199,304.753 608.881,306.07 608.881,307.69C608.881,309.309 610.199,310.626 611.819,310.626C613.439,310.626 614.756,309.309 614.756,307.69C614.756,306.07 613.439,304.753 611.819,304.753M611.819,311.153C609.909,311.153 608.355,309.6 608.355,307.69C608.355,305.779 609.909,304.226 611.819,304.226C613.728,304.226 615.283,305.779 615.283,307.69C615.283,309.6 613.728,311.153 611.819,311.153" style="fill:rgb(17,52,71);fill-rule:nonzero;"/>
        <path d="M595.834,307.69C595.834,309.457 594.4,310.89 592.632,310.89C590.865,310.89 589.433,309.457 589.433,307.69C589.433,305.922 590.865,304.49 592.632,304.49C594.4,304.49 595.834,305.922 595.834,307.69" style="fill:rgb(255,200,158);fill-rule:nonzero;"/>
        <path d="M592.632,304.753C591.013,304.753 589.695,306.07 589.695,307.69C589.695,309.309 591.013,310.626 592.632,310.626C594.251,310.626 595.57,309.309 595.57,307.69C595.57,306.07 594.251,304.753 592.632,304.753M592.632,311.153C590.723,311.153 589.168,309.6 589.168,307.69C589.168,305.779 590.723,304.226 592.632,304.226C594.543,304.226 596.097,305.779 596.097,307.69C596.097,309.6 594.543,311.153 592.632,311.153" style="fill:rgb(17,52,71);fill-rule:nonzero;"/>
        <path d="M602.129,293.127C596.791,293.127 592.465,297.454 592.465,302.791L592.465,311.942C592.465,317.279 596.791,321.606 602.129,321.606C607.466,321.606 611.792,317.279 611.792,311.942L611.792,302.791C611.792,297.454 607.466,293.127 602.129,293.127" style="fill:rgb(255,200,158);fill-rule:nonzero;"/>
        <path d="M602.129,293.391C596.945,293.391 592.729,297.607 592.729,302.79L592.729,311.942C592.729,317.124 596.945,321.342 602.129,321.342C607.312,321.342 611.528,317.124 611.528,311.942L611.528,302.79C611.528,297.607 607.312,293.391 602.129,293.391M602.129,321.869C596.654,321.869 592.201,317.415 592.201,311.942L592.201,302.79C592.201,297.317 596.654,292.864 602.129,292.864C607.603,292.864 612.056,297.317 612.056,302.79L612.056,311.942C612.056,317.415 607.603,321.869 602.129,321.869" style="fill:rgb(17,52,71);fill-rule:nonzero;"/>
        <path d="M592.576,307.366L591.39,307.106L591.502,306.592L592.689,306.851L592.576,307.366Z" style="fill:rgb(17,52,71);fill-rule:nonzero;"/>
        <path d="M611.875,307.366L613.062,307.106L612.949,306.592L611.762,306.851L611.875,307.366Z" style="fill:rgb(17,52,71);fill-rule:nonzero;"/>
        <path d="M598.526,306.849C598.526,307.477 598.017,307.986 597.389,307.986C596.761,307.986 596.253,307.477 596.253,306.849C596.253,306.222 596.761,305.712 597.389,305.712C598.017,305.712 598.526,306.222 598.526,306.849" style="fill:rgb(17,52,71);fill-rule:nonzero;"/>
        <path d="M608.588,306.849C608.588,307.477 608.078,307.986 607.45,307.986C606.822,307.986 606.314,307.477 606.314,306.849C606.314,306.221 606.822,305.711 607.45,305.711C608.078,305.711 608.588,306.221 608.588,306.849" style="fill:rgb(17,52,71);fill-rule:nonzero;"/>
        <path d="M598.235,306.592C598.235,306.825 598.046,307.015 597.812,307.015C597.579,307.015 597.389,306.825 597.389,306.592C597.389,306.359 597.579,306.169 597.812,306.169C598.046,306.169 598.235,306.359 598.235,306.592" style="fill:white;fill-rule:nonzero;"/>
        <path d="M608.296,306.592C608.296,306.825 608.107,307.015 607.873,307.015C607.64,307.015 607.45,306.825 607.45,306.592C607.45,306.359 607.64,306.169 607.873,306.169C608.107,306.169 608.296,306.359 608.296,306.592" style="fill:white;fill-rule:nonzero;"/>
        <rect x="601.379" y="310.934" width="3.207" height="0.528" style="fill:rgb(17,52,71);fill-rule:nonzero;"/>
        <g>
            <g opacity="0.199997">
                <clipPath id="_clip5">
                    <rect x="592.424" y="307.986" width="3.824" height="2.791"/>
                </clipPath>
                <g clip-path="url(#_clip5)">
                    <path d="M596.248,309.382C596.248,310.153 595.392,310.778 594.336,310.778C593.279,310.778 592.424,310.153 592.424,309.382C592.424,308.611 593.279,307.986 594.336,307.986C595.392,307.986 596.248,308.611 596.248,309.382" style="fill:rgb(239,47,32);fill-rule:nonzero;"/>
                </g>
            </g>
        </g>
        <g>
            <g opacity="0.199997">
                <clipPath id="_clip6">
                    <rect x="608.067" y="307.986" width="3.826" height="2.791"/>
                </clipPath>
                <g clip-path="url(#_clip6)">
                    <path d="M611.893,309.382C611.893,310.153 611.036,310.778 609.98,310.778C608.924,310.778 608.068,310.153 608.068,309.382C608.068,308.611 608.924,307.986 609.98,307.986C611.036,307.986 611.893,308.611 611.893,309.382" style="fill:rgb(239,47,32);fill-rule:nonzero;"/>
                </g>
            </g>
        </g>
        <rect x="592.145" y="334.605" width="20.74" height="13.161" style="fill:white;fill-rule:nonzero;"/>
        <path d="M594.674,339.507C594.674,338.773 594.871,338.212 595.267,337.824C595.61,337.483 596.059,337.312 596.615,337.312C597.127,337.312 597.563,337.503 597.923,337.886C598.283,338.27 598.464,338.717 598.464,339.228C598.464,339.756 598.347,340.265 598.112,340.756C597.984,341.028 597.686,341.495 597.215,342.159C597.087,342.34 596.898,342.623 596.646,343.007L596.436,343.321C596.301,343.528 596.197,343.691 596.127,343.81C596.094,343.871 596.077,343.909 596.077,343.922L598.372,343.922L598.372,345.065L594.654,345.065L594.654,343.993C594.654,343.969 594.74,343.826 594.91,343.566C594.988,343.447 595.077,343.315 595.178,343.171L595.481,342.733C595.659,342.49 595.938,342.1 596.318,341.565C596.676,341.062 596.945,340.607 597.122,340.198C597.267,339.865 597.339,339.553 597.339,339.265C597.339,339.03 597.272,338.83 597.141,338.665C596.996,338.492 596.811,338.405 596.584,338.405C596.258,338.405 596.028,338.593 595.892,338.969C595.846,339.092 595.824,339.24 595.824,339.413L595.824,339.711L594.674,339.711L594.674,339.507Z" style="fill:rgb(146,207,226);fill-rule:nonzero;"/>
        <path d="M602.692,343.959C603.229,343.959 603.497,343.709 603.497,343.211L603.497,342.754C603.497,341.959 603.08,341.562 602.248,341.562L602.248,340.562C602.697,340.562 603.029,340.436 603.243,340.185C603.441,339.959 603.54,339.642 603.54,339.233L603.54,339.055C603.54,338.548 603.317,338.295 602.872,338.295C602.625,338.295 602.443,338.389 602.328,338.578C602.242,338.721 602.198,338.908 602.198,339.137L602.198,339.34L601.054,339.34L601.054,339.16C601.054,338.608 601.194,338.159 601.474,337.813C601.793,337.417 602.24,337.219 602.817,337.219C603.364,337.219 603.803,337.404 604.133,337.775C604.431,338.109 604.579,338.526 604.579,339.024L604.579,339.352C604.579,339.834 604.434,340.251 604.146,340.602C604.022,340.75 603.879,340.876 603.713,340.978C604.058,341.172 604.328,341.467 604.517,341.862C604.616,342.065 604.666,342.31 604.666,342.598L604.666,343.211C604.666,343.784 604.469,344.253 604.078,344.621C603.703,344.975 603.251,345.152 602.724,345.152C602.209,345.152 601.771,344.971 601.414,344.608C601.054,344.246 600.875,343.81 600.875,343.303L600.875,343.112L601.988,343.025L602.012,343.297C602.029,343.491 602.098,343.65 602.22,343.773C602.341,343.897 602.5,343.959 602.692,343.959" style="fill:rgb(146,207,226);fill-rule:nonzero;"/>
        <path d="M610.588,337.312L610.588,338.486L608.95,345.065L607.803,345.065L609.442,338.486L607.076,338.486L607.076,337.312L610.588,337.312Z" style="fill:rgb(146,207,226);fill-rule:nonzero;"/>
        <path d="M601.298,303.358C601.298,303.671 601.044,303.926 600.73,303.926L594.312,303.926C593.998,303.926 593.744,303.671 593.744,303.358C593.744,303.044 593.998,302.79 594.312,302.79L600.73,302.79C601.044,302.79 601.298,303.044 601.298,303.358" style="fill:rgb(17,52,71);fill-rule:nonzero;"/>
        <path d="M599.873,303.358C599.873,303.671 599.619,303.926 599.305,303.926L592.887,303.926C592.574,303.926 592.32,303.671 592.32,303.358C592.32,303.044 592.574,302.79 592.887,302.79L599.305,302.79C599.619,302.79 599.873,303.044 599.873,303.358" style="fill:rgb(17,52,71);fill-rule:nonzero;"/>
        <path d="M611.845,303.358C611.845,303.671 611.59,303.926 611.277,303.926L604.859,303.926C604.545,303.926 604.291,303.671 604.291,303.358C604.291,303.044 604.545,302.79 604.859,302.79L611.277,302.79C611.59,302.79 611.845,303.044 611.845,303.358" style="fill:rgb(17,52,71);fill-rule:nonzero;"/>
        <path d="M607.582,297.444L596.676,305.222L596.253,303.926L593.027,307.689L593.371,303.926L592.424,304.502L590.524,304.944C590.524,304.944 588.992,299.964 592.201,295.269C593.731,293.031 601.994,287.2 609.808,295.071C615.702,294.346 613.672,304.765 613.672,304.765L611.893,304.502L610.588,303.926L609.979,305.403L607.582,297.444Z" style="fill:rgb(17,52,71);fill-rule:nonzero;"/>
        <rect x="601.865" y="360.701" width="0.528" height="6.101" style="fill:rgb(17,52,71);fill-rule:nonzero;"/>
        <rect x="593.721" y="360.702" width="0.527" height="22.097" style="fill:rgb(17,52,71);fill-rule:nonzero;"/>
        <rect x="610.03" y="360.702" width="0.527" height="22.097" style="fill:rgb(17,52,71);fill-rule:nonzero;"/>
        <path d="M598.044,325.418L594.82,325.407L600.048,345.207L603.18,345.207L609.982,325.407L606.826,325.407L601.728,342.093L598.044,325.418Z" style="fill:rgb(17,52,71);fill-rule:nonzero;"/>
        <path d="M605.924,348.294C605.924,350.532 604.111,352.346 601.871,352.346C599.634,352.346 597.82,350.532 597.82,348.294C597.82,346.056 599.634,344.243 601.871,344.243C604.111,344.243 605.924,346.056 605.924,348.294" style="fill:rgb(255,211,26);fill-rule:nonzero;"/>
        <path d="M601.871,344.507C599.783,344.507 598.084,346.206 598.084,348.295C598.084,350.383 599.783,352.083 601.871,352.083C603.961,352.083 605.66,350.383 605.66,348.295C605.66,346.206 603.961,344.507 601.871,344.507M601.871,352.61C599.493,352.61 597.557,350.674 597.557,348.295C597.557,345.915 599.493,343.98 601.871,343.98C604.251,343.98 606.187,345.915 606.187,348.295C606.187,350.674 604.251,352.61 601.871,352.61" style="fill:rgb(17,52,71);fill-rule:nonzero;"/>
        <path d="M600.523,346.835C600.523,346.313 600.665,345.914 600.945,345.639C601.189,345.395 601.508,345.273 601.905,345.273C602.267,345.273 602.578,345.409 602.835,345.683C603.09,345.955 603.218,346.273 603.218,346.636C603.218,347.012 603.135,347.374 602.968,347.723C602.877,347.916 602.665,348.25 602.331,348.721C602.24,348.85 602.105,349.051 601.925,349.324L601.777,349.548C601.68,349.695 601.606,349.811 601.556,349.896C601.533,349.939 601.521,349.965 601.521,349.975L603.154,349.975L603.154,350.788L600.509,350.788L600.509,350.026C600.509,350.008 600.57,349.907 600.691,349.722C600.747,349.637 600.811,349.543 600.882,349.441L601.097,349.129C601.224,348.957 601.422,348.68 601.692,348.298C601.948,347.941 602.138,347.617 602.264,347.327C602.367,347.089 602.419,346.868 602.419,346.663C602.419,346.496 602.371,346.354 602.278,346.236C602.174,346.114 602.043,346.052 601.881,346.052C601.65,346.052 601.486,346.185 601.39,346.452C601.357,346.54 601.341,346.645 601.341,346.769L601.341,346.98L600.523,346.98L600.523,346.835Z" style="fill:rgb(17,52,71);fill-rule:nonzero;"/>
        <path d="M602.798,315.32C604.217,315.235 605.294,313.933 605.215,312.408L600.053,312.717C600.155,314.241 601.38,315.405 602.798,315.32" style="fill:white;fill-rule:nonzero;"/>
        <path d="M524.679,364.265L522.488,366.442C522.158,366.77 522.157,367.304 522.485,367.635C522.813,367.964 523.346,367.966 523.676,367.638L525.863,365.464C525.473,365.058 525.075,364.663 524.679,364.265" style="fill:rgb(255,200,158);fill-rule:nonzero;"/>
        <path d="M525.68,365.275L523.492,367.451C523.27,367.67 522.891,367.67 522.672,367.45C522.563,367.339 522.502,367.194 522.503,367.039C522.503,366.885 522.564,366.739 522.674,366.63L524.864,364.453C524.739,364.329 524.618,364.203 524.493,364.078L522.302,366.256C522.093,366.464 521.977,366.742 521.975,367.037C521.975,367.333 522.09,367.611 522.297,367.82C522.469,367.992 522.684,368.101 522.923,368.135C523.27,368.186 523.612,368.073 523.862,367.825L526.046,365.655C525.926,365.526 525.803,365.401 525.68,365.275" style="fill:rgb(17,52,71);fill-rule:nonzero;"/>
        <path d="M524.088,365.053C523.938,364.052 523.792,362.839 523.623,361.435C522.943,355.799 521.807,346.365 518.945,342.293L523.261,339.261C526.884,344.418 528.071,354.279 528.858,360.804C529.022,362.168 529.163,363.345 529.303,364.271L524.088,365.053Z" style="fill:rgb(255,200,158);fill-rule:nonzero;"/>
        <path d="M528.596,360.835C527.825,354.428 526.662,344.79 523.195,339.629L519.311,342.358C522.1,346.592 523.214,355.839 523.884,361.402C524.038,362.682 524.174,363.802 524.311,364.752L529.004,364.048C528.877,363.165 528.746,362.081 528.596,360.835M523.827,365.091C523.675,364.081 523.53,362.868 523.361,361.466C522.685,355.854 521.553,346.462 518.731,342.444L518.579,342.228L523.325,338.893L523.477,339.109C527.138,344.32 528.331,354.221 529.12,360.783C529.283,362.139 529.425,363.311 529.564,364.231L529.602,364.491L523.867,365.353L523.827,365.091Z" style="fill:rgb(17,52,71);fill-rule:nonzero;"/>
        <rect x="501.559" y="322.705" width="8.478" height="13.242" style="fill:rgb(255,200,158);fill-rule:nonzero;"/>
        <path d="M501.822,335.683L509.774,335.683L509.774,322.968L501.822,322.968L501.822,335.683ZM510.301,336.21L501.295,336.21L501.295,322.44L510.301,322.44L510.301,336.21Z" style="fill:rgb(17,52,71);fill-rule:nonzero;"/>
        <path d="M505.7,331.863L505.41,331.422L507.304,330.176L507.304,328.857L507.832,328.857L507.832,330.461L505.7,331.863Z" style="fill:rgb(17,52,71);fill-rule:nonzero;"/>
        <rect x="495.402" y="381.718" width="5.01" height="13.921" style="fill:rgb(255,200,158);fill-rule:nonzero;"/>
        <path d="M495.665,395.376L500.148,395.376L500.148,381.982L495.665,381.982L495.665,395.376ZM500.675,395.903L495.138,395.903L495.138,381.455L500.675,381.455L500.675,395.903Z" style="fill:rgb(17,52,71);fill-rule:nonzero;"/>
        <rect x="511.114" y="380.874" width="5.009" height="13.921" style="fill:rgb(255,200,158);fill-rule:nonzero;"/>
        <path d="M511.378,394.531L515.859,394.531L515.859,381.137L511.378,381.137L511.378,394.531ZM516.387,395.059L510.85,395.059L510.85,380.611L516.387,380.611L516.387,395.059Z" style="fill:rgb(17,52,71);fill-rule:nonzero;"/>
        <path d="M519.236,366.762L514.786,366.418L496.93,366.417L492.406,366.656L492.406,383.708L503.055,383.708L503.055,375.924C503.055,374.408 504.283,373.18 505.798,373.18C507.313,373.18 508.541,374.408 508.541,375.924L508.541,383.708L519.236,383.708L519.236,366.762Z" style="fill:rgb(71,158,178);fill-rule:nonzero;"/>
        <path d="M508.806,383.445L518.974,383.445L518.974,367.007L514.768,366.681L496.931,366.681L492.669,366.907L492.669,383.445L502.792,383.445L502.792,375.924C502.792,374.266 504.14,372.917 505.799,372.917C507.457,372.917 508.806,374.266 508.806,375.924L508.806,383.445ZM519.501,383.972L508.279,383.972L508.279,375.924C508.279,374.557 507.166,373.444 505.799,373.444C504.432,373.444 503.32,374.557 503.32,375.924L503.32,383.972L492.142,383.972L492.142,366.407L496.916,366.154L514.786,366.154L519.501,366.519L519.501,383.972Z" style="fill:rgb(17,52,71);fill-rule:nonzero;"/>
        <path d="M526.25,341.306C524.04,335.504 520.944,331.386 516.232,331.386L510.037,331.386C510.037,333.369 508.14,334.977 505.799,334.977C503.457,334.977 501.56,333.369 501.56,331.386L495.365,331.386C490.888,331.386 487.331,335.438 485.121,341.24C487.029,342.688 489.997,344.404 491.976,346.052C491.976,346.052 491.936,360.051 491.936,366.681L519.661,366.681C519.661,360.051 519.494,346.052 519.494,346.052C521.781,344.306 524.543,342.543 526.25,341.306" style="fill:rgb(255,137,49);fill-rule:nonzero;"/>
        <path d="M492.199,366.417L519.397,366.417C519.392,359.762 519.232,346.192 519.23,346.054L519.228,345.922L519.334,345.842C520.74,344.769 522.328,343.687 523.729,342.733C524.536,342.183 525.301,341.662 525.931,341.21C523.442,334.777 520.268,331.649 516.232,331.649L510.291,331.649C510.133,333.652 508.178,335.24 505.799,335.24C503.419,335.24 501.465,333.652 501.305,331.649L495.365,331.649C491.396,331.649 487.785,335.108 485.438,341.148C486.212,341.724 487.137,342.337 488.113,342.983C489.531,343.922 490.995,344.891 492.144,345.849L492.239,345.929L492.239,346.052C492.238,346.19 492.2,359.761 492.199,366.417M519.925,366.944L491.672,366.944L491.672,366.681C491.672,360.458 491.708,347.582 491.711,346.175C490.599,345.262 489.187,344.327 487.822,343.423C486.771,342.728 485.778,342.07 484.961,341.45L484.803,341.33L484.873,341.146C487.336,334.682 491.062,331.122 495.365,331.122L501.822,331.122L501.822,331.386C501.822,333.22 503.606,334.712 505.799,334.712C507.99,334.712 509.774,333.22 509.774,331.386L509.774,331.122L516.232,331.122C520.553,331.122 523.91,334.422 526.497,341.211L526.568,341.4L526.404,341.519C525.74,342.001 524.908,342.568 524.025,343.168C522.666,344.095 521.128,345.143 519.76,346.181C519.777,347.629 519.925,360.468 519.925,366.681L519.925,366.944Z" style="fill:rgb(17,52,71);fill-rule:nonzero;"/>
        <rect x="495.315" y="340.584" width="20.742" height="13.161" style="fill:white;fill-rule:nonzero;"/>
        <path d="M499.388,351.06L499.388,345.093L498.393,345.093L498.393,344.277C498.673,344.244 498.941,344.138 499.194,343.958C499.447,343.779 499.629,343.561 499.741,343.307L500.557,343.307L500.557,351.06L499.388,351.06Z" style="fill:rgb(255,137,49);fill-rule:nonzero;"/>
        <path d="M502.986,345.495C502.986,344.762 503.183,344.201 503.58,343.813C503.922,343.471 504.371,343.3 504.927,343.3C505.439,343.3 505.875,343.492 506.236,343.875C506.595,344.259 506.776,344.706 506.776,345.217C506.776,345.745 506.659,346.254 506.424,346.744C506.297,347.016 505.998,347.484 505.527,348.148C505.399,348.329 505.21,348.612 504.959,348.995L504.749,349.31C504.613,349.516 504.509,349.68 504.439,349.799C504.406,349.86 504.39,349.897 504.39,349.911L506.683,349.911L506.683,351.054L502.967,351.054L502.967,349.982C502.967,349.957 503.052,349.815 503.222,349.555C503.301,349.435 503.39,349.304 503.49,349.16L503.795,348.721C503.971,348.478 504.25,348.089 504.629,347.553C504.989,347.051 505.257,346.595 505.434,346.187C505.579,345.853 505.651,345.542 505.651,345.253C505.651,345.019 505.586,344.819 505.454,344.654C505.31,344.481 505.124,344.395 504.896,344.395C504.571,344.395 504.34,344.582 504.205,344.957C504.159,345.081 504.136,345.229 504.136,345.402L504.136,345.7L502.986,345.7L502.986,345.495Z" style="fill:rgb(255,137,49);fill-rule:nonzero;"/>
        <path d="M511.006,349.948C511.541,349.948 511.81,349.698 511.81,349.2L511.81,348.743C511.81,347.949 511.394,347.551 510.561,347.551L510.561,346.551C511.01,346.551 511.341,346.425 511.557,346.174C511.754,345.947 511.854,345.631 511.854,345.223L511.854,345.043C511.854,344.537 511.631,344.284 511.186,344.284C510.938,344.284 510.756,344.378 510.641,344.567C510.555,344.71 510.512,344.896 510.512,345.126L510.512,345.328L509.367,345.328L509.367,345.15C509.367,344.597 509.508,344.148 509.787,343.802C510.106,343.406 510.552,343.208 511.13,343.208C511.678,343.208 512.116,343.393 512.446,343.764C512.744,344.098 512.892,344.514 512.892,345.013L512.892,345.341C512.892,345.823 512.748,346.24 512.459,346.59C512.335,346.739 512.192,346.864 512.027,346.968C512.373,347.161 512.641,347.456 512.83,347.851C512.929,348.053 512.978,348.299 512.978,348.587L512.978,349.199C512.978,349.773 512.783,350.242 512.391,350.61C512.016,350.964 511.565,351.141 511.037,351.141C510.522,351.141 510.085,350.96 509.726,350.597C509.367,350.234 509.189,349.8 509.189,349.292L509.189,349.1L510.301,349.014L510.325,349.286C510.342,349.48 510.411,349.638 510.532,349.762C510.654,349.886 510.812,349.948 511.006,349.948" style="fill:rgb(255,137,49);fill-rule:nonzero;"/>
        <path d="M499.766,312.989C499.766,314.756 498.334,316.189 496.567,316.189C494.799,316.189 493.366,314.756 493.366,312.989C493.366,311.222 494.799,309.788 496.567,309.788C498.334,309.788 499.766,311.222 499.766,312.989" style="fill:rgb(255,200,158);fill-rule:nonzero;"/>
        <path d="M493.629,312.989C493.629,314.608 494.946,315.925 496.566,315.925C498.185,315.925 499.502,314.608 499.502,312.989C499.502,311.37 498.185,310.052 496.566,310.052C494.946,310.052 493.629,311.37 493.629,312.989M493.102,312.989C493.102,311.079 494.656,309.525 496.566,309.525C498.475,309.525 500.029,311.079 500.029,312.989C500.029,314.899 498.475,316.452 496.566,316.452C494.656,316.452 493.102,314.899 493.102,312.989" style="fill:rgb(17,52,71);fill-rule:nonzero;"/>
        <path d="M496.486,312.665L495.042,312.381L495.178,311.815L496.622,312.1L496.486,312.665Z" style="fill:rgb(17,52,71);fill-rule:nonzero;"/>
        <path d="M511.83,313.049C511.83,314.817 513.263,316.248 515.03,316.248C516.798,316.248 518.23,314.817 518.23,313.049C518.23,311.281 516.798,309.848 515.03,309.848C513.263,309.848 511.83,311.281 511.83,313.049" style="fill:rgb(255,200,158);fill-rule:nonzero;"/>
        <path d="M512.094,313.049C512.094,314.668 513.411,315.985 515.031,315.985C516.65,315.985 517.967,314.668 517.967,313.049C517.967,311.429 516.65,310.111 515.031,310.111C513.411,310.111 512.094,311.429 512.094,313.049M511.566,313.049C511.566,311.139 513.12,309.585 515.031,309.585C516.941,309.585 518.495,311.139 518.495,313.049C518.495,314.959 516.941,316.512 515.031,316.512C513.12,316.512 511.566,314.959 511.566,313.049" style="fill:rgb(17,52,71);fill-rule:nonzero;"/>
        <path d="M496.566,320.391C496.566,324.089 499.563,327.087 503.26,327.087L508.334,327.087C512.032,327.087 515.03,324.089 515.03,320.391L515.03,304.024C515.03,300.326 512.032,297.329 508.334,297.329L503.26,297.329C499.563,297.329 496.566,300.326 496.566,304.024L496.566,320.391Z" style="fill:rgb(255,200,158);fill-rule:nonzero;"/>
        <g>
            <g opacity="0.199997">
                <clipPath id="_clip7">
                    <rect x="496.566" y="316.189" width="18.464" height="10.898"/>
                </clipPath>
                <g clip-path="url(#_clip7)">
                    <path d="M515.03,320.391C515.03,324.089 512.032,327.087 508.334,327.087L503.26,327.087C499.563,327.087 496.566,324.089 496.566,320.391L496.566,316.248L499.249,318.251L504.756,316.821L508.164,316.821L513.202,318.251L515.03,316.188L515.03,320.391Z" style="fill:rgb(17,52,71);fill-rule:nonzero;"/>
                </g>
            </g>
        </g>
        <path d="M503.261,297.593C499.715,297.593 496.83,300.478 496.83,304.025L496.83,320.392C496.83,323.938 499.715,326.823 503.261,326.823L508.334,326.823C511.881,326.823 514.768,323.938 514.768,320.392L514.768,304.025C514.768,300.478 511.881,297.593 508.334,297.593L503.261,297.593ZM496.302,320.392L496.302,304.025C496.302,300.188 499.425,297.066 503.261,297.066L508.334,297.066C512.172,297.066 515.293,300.188 515.293,304.025L515.293,320.392C515.293,324.229 512.172,327.351 508.334,327.351L503.261,327.351C499.425,327.351 496.302,324.229 496.302,320.392" style="fill:rgb(17,52,71);fill-rule:nonzero;"/>
        <path d="M509.663,312.208C509.663,312.836 510.173,313.345 510.801,313.345C511.429,313.345 511.937,312.836 511.937,312.208C511.937,311.58 511.429,311.071 510.801,311.071C510.173,311.071 509.663,311.58 509.663,312.208" style="fill:rgb(17,52,71);fill-rule:nonzero;"/>
        <path d="M501.184,312.208C501.184,312.836 501.695,313.345 502.323,313.345C502.95,313.345 503.459,312.836 503.459,312.208C503.459,311.58 502.95,311.071 502.323,311.071C501.695,311.071 501.184,311.58 501.184,312.208" style="fill:rgb(17,52,71);fill-rule:nonzero;"/>
        <path d="M510.669,312.045C510.669,312.278 510.858,312.467 511.092,312.467C511.325,312.467 511.515,312.278 511.515,312.045C511.515,311.811 511.325,311.622 511.092,311.622C510.858,311.622 510.669,311.811 510.669,312.045" style="fill:white;fill-rule:nonzero;"/>
        <path d="M502.19,312.045C502.19,312.278 502.379,312.467 502.613,312.467C502.847,312.467 503.035,312.278 503.035,312.045C503.035,311.811 502.847,311.622 502.613,311.622C502.379,311.622 502.19,311.811 502.19,312.045" style="fill:white;fill-rule:nonzero;"/>
        <path d="M515.121,312.725L516.67,312.449L516.523,311.899L514.975,312.175L515.121,312.725Z" style="fill:rgb(17,52,71);fill-rule:nonzero;"/>
        <rect x="504.756" y="316.294" width="3.408" height="0.527" style="fill:rgb(17,52,71);fill-rule:nonzero;"/>
        <g>
            <g opacity="0.199997">
                <clipPath id="_clip8">
                    <rect x="498.097" y="314.214" width="2.942" height="2.808"/>
                </clipPath>
                <g clip-path="url(#_clip8)">
                    <path d="M501.039,315.618C501.039,316.393 500.381,317.022 499.568,317.022C498.755,317.022 498.097,316.393 498.097,315.618C498.097,314.843 498.755,314.214 499.568,314.214C500.381,314.214 501.039,314.843 501.039,315.618" style="fill:rgb(239,47,32);fill-rule:nonzero;"/>
                </g>
            </g>
        </g>
        <g>
            <g opacity="0.199997">
                <clipPath id="_clip9">
                    <rect x="511.09" y="314.214" width="2.942" height="2.808"/>
                </clipPath>
                <g clip-path="url(#_clip9)">
                    <path d="M514.032,315.618C514.032,316.393 513.373,317.022 512.56,317.022C511.748,317.022 511.09,316.393 511.09,315.618C511.09,314.843 511.748,314.214 512.56,314.214C513.373,314.214 514.032,314.843 514.032,315.618" style="fill:rgb(239,47,32);fill-rule:nonzero;"/>
                </g>
            </g>
        </g>
        <path d="M518.665,393.513L518.679,393.513L518.679,391.465L509.344,391.465L509.336,399.528L522.749,399.528C522.793,395.856 521.648,394.401 518.665,393.513" style="fill:rgb(17,52,71);fill-rule:nonzero;"/>
        <path d="M492.932,393.513C489.948,394.401 488.804,395.855 488.848,399.528L502.265,399.528L502.267,391.465L492.932,391.465L492.932,393.513Z" style="fill:rgb(17,52,71);fill-rule:nonzero;"/>
        <path d="M531,368.1L530.154,362.07C530.05,361.616 523.313,363.156 523.348,363.62L524.082,370.143C524.116,370.607 524.52,370.952 524.983,370.921C525.919,370.859 525.861,369.655 525.761,368.426L525.931,371.049C525.968,371.514 526.373,371.861 526.836,371.824C527.301,371.788 527.646,371.382 527.611,370.918L527.498,368.208L527.751,370.059C527.814,370.521 528.239,370.843 528.7,370.781C529.161,370.717 529.483,370.292 529.42,369.83L529.057,367.175L529.357,368.477C529.462,368.931 529.914,369.214 530.368,369.109C530.822,369.005 531.104,368.553 531,368.1" style="fill:rgb(255,200,158);fill-rule:nonzero;"/>
        <path d="M526.023,368.405C526.044,368.658 526.062,368.91 526.071,369.151L526.194,371.032C526.218,371.338 526.502,371.585 526.816,371.561C527.134,371.536 527.373,371.257 527.348,370.938L527.234,368.219L527.758,368.172L528.012,370.024C528.054,370.332 528.353,370.561 528.665,370.519C528.98,370.476 529.203,370.184 529.16,369.866L528.795,367.211L529.314,367.115L529.614,368.418C529.668,368.653 529.857,368.827 530.095,368.862C530.166,368.872 530.237,368.869 530.308,368.853C530.62,368.781 530.814,368.47 530.743,368.158L529.914,362.251C528.832,362.164 524.257,363.295 523.621,363.697L524.343,370.113C524.368,370.439 524.647,370.679 524.966,370.657C525.294,370.636 525.592,370.441 525.544,369.171L525.498,368.443L526.023,368.405ZM526.611,372.079C526.096,372.005 525.709,371.589 525.668,371.07L525.657,370.913C525.502,371.063 525.29,371.165 525.001,371.184C524.922,371.189 524.843,371.186 524.765,371.175C524.247,371.1 523.857,370.683 523.818,370.162L523.085,363.649C523.08,363.566 523.097,363.456 523.21,363.35C523.833,362.771 529.125,361.603 530.047,361.737C530.304,361.774 530.386,361.906 530.411,362.01L531.261,368.063C531.393,368.635 531.021,369.229 530.426,369.366C530.293,369.397 530.156,369.404 530.019,369.384C529.869,369.362 529.729,369.311 529.606,369.237L529.682,369.795C529.764,370.4 529.339,370.959 528.736,371.041C528.42,371.085 528.099,370.984 527.869,370.787L527.875,370.907C527.92,371.506 527.464,372.039 526.857,372.087C526.775,372.093 526.692,372.091 526.611,372.079" style="fill:rgb(17,52,71);fill-rule:nonzero;"/>
        <path d="M524.772,369.991L524.7,369.469L525.8,369.318L525.872,369.841L524.772,369.991Z" style="fill:rgb(17,52,71);fill-rule:nonzero;"/>
        <path d="M526.713,370.842L526.651,370.319L527.562,370.211L527.624,370.734L526.713,370.842Z" style="fill:rgb(17,52,71);fill-rule:nonzero;"/>
        <path d="M528.596,369.861L528.479,369.346L529.297,369.161L529.414,369.675L528.596,369.861Z" style="fill:rgb(17,52,71);fill-rule:nonzero;"/>
        <path d="M530.097,368.526L529.949,368.02L530.91,367.738L531.059,368.244L530.097,368.526Z" style="fill:rgb(17,52,71);fill-rule:nonzero;"/>
        <rect x="495.314" y="331.649" width="3.079" height="8.935" style="fill:white;fill-rule:nonzero;"/>
        <rect x="512.978" y="331.649" width="3.079" height="8.935" style="fill:white;fill-rule:nonzero;"/>
        <rect x="514.195" y="350.667" width="5.104" height="3.078" style="fill:white;fill-rule:nonzero;"/>
        <rect x="492.224" y="350.667" width="4.348" height="3.078" style="fill:white;fill-rule:nonzero;"/>
        <path d="M510.355,300.41C510.355,300.41 504.746,304.928 504.963,304.736C505.18,304.545 507.158,301.172 507.158,301.172L502.251,305.362L503.376,302.315L498.709,307.757L498.709,305.253L496.939,309.788L496.883,313.345L495.632,310.395L495.243,302.732L499.718,295.894L511.091,295.894L512.592,298.292L515.347,298.546L516.67,309.788L515.336,313.579L514.834,306.233L514.137,307.213L510.355,300.41Z" style="fill:rgb(17,52,71);fill-rule:nonzero;"/>
        <path d="M508.33,309.261C508.33,309.674 508.666,310.009 509.078,310.009L514.221,310.009C514.634,310.009 514.969,309.674 514.969,309.261C514.969,308.847 514.634,308.512 514.221,308.512L509.078,308.512C508.666,308.512 508.33,308.847 508.33,309.261" style="fill:rgb(17,52,71);fill-rule:nonzero;"/>
        <path d="M498.214,309.261C498.214,309.674 498.549,310.009 498.963,310.009L504.106,310.009C504.519,310.009 504.854,309.674 504.854,309.261C504.854,308.847 504.519,308.512 504.106,308.512L498.963,308.512C498.549,308.512 498.214,308.847 498.214,309.261" style="fill:rgb(17,52,71);fill-rule:nonzero;"/>
        <rect x="492.407" y="381.193" width="10.649" height="0.528" style="fill:rgb(17,52,71);fill-rule:nonzero;"/>
        <rect x="508.541" y="381.193" width="10.695" height="0.528" style="fill:rgb(17,52,71);fill-rule:nonzero;"/>
        <path d="M501.432,331.496L498.221,331.496L503.661,351.296L506.791,351.296L513.594,331.496L510.301,331.496L505.339,348.183L501.432,331.496Z" style="fill:rgb(17,52,71);fill-rule:nonzero;"/>
        <path d="M509.535,354.384C509.535,356.622 507.721,358.436 505.483,358.436C503.245,358.436 501.431,356.622 501.431,354.384C501.431,352.147 503.245,350.332 505.483,350.332C507.721,350.332 509.535,352.147 509.535,354.384" style="fill:rgb(255,211,26);fill-rule:nonzero;"/>
        <path d="M505.483,350.596C503.394,350.596 501.695,352.295 501.695,354.384C501.695,356.472 503.394,358.172 505.483,358.172C507.572,358.172 509.271,356.472 509.271,354.384C509.271,352.295 507.572,350.596 505.483,350.596M505.483,358.699C503.103,358.699 501.168,356.763 501.168,354.384C501.168,352.005 503.103,350.068 505.483,350.068C507.862,350.068 509.798,352.005 509.798,354.384C509.798,356.763 507.862,358.699 505.483,358.699" style="fill:rgb(17,52,71);fill-rule:nonzero;"/>
        <path d="M492.702,357.458C489.359,357.458 485.677,356.763 483.882,354.09C480.977,349.766 485.013,343.961 486.338,342.053L490.668,345.063C488.058,348.816 487.926,350.654 488.259,351.149C489.118,352.43 494.232,352.43 498.058,351.575L499.207,356.722C498.289,356.927 495.624,357.458 492.702,357.458" style="fill:rgb(255,200,158);fill-rule:nonzero;"/>
        <path d="M486.405,342.421C484.979,344.484 481.398,349.919 484.101,353.943C485.55,356.101 488.444,357.195 492.702,357.195C495.347,357.195 497.762,356.76 498.892,356.521L497.859,351.889C496.204,352.237 494.311,352.435 492.62,352.435C491.196,352.435 488.705,352.287 488.04,351.296C487.568,350.595 487.925,348.609 490.303,345.131L486.405,342.421ZM492.702,357.722C488.257,357.722 485.216,356.549 483.663,354.237C480.658,349.764 484.771,343.847 486.122,341.903L486.291,341.759L491.055,345.001L490.885,345.214C488.258,348.993 488.257,350.674 488.479,351.003C488.853,351.561 490.441,351.907 492.62,351.907C494.363,351.907 496.324,351.692 498,351.318L498.258,351.261L499.522,356.922L499.265,356.98C498.264,357.203 495.623,357.722 492.702,357.722" style="fill:rgb(17,52,71);fill-rule:nonzero;"/>
        <path d="M505.275,356.357C505.655,356.357 505.846,356.18 505.846,355.825L505.846,355.5C505.846,354.935 505.55,354.653 504.957,354.653L504.957,353.94C505.277,353.94 505.513,353.852 505.666,353.672C505.806,353.512 505.877,353.286 505.877,352.996L505.877,352.869C505.877,352.508 505.718,352.329 505.402,352.329C505.225,352.329 505.097,352.396 505.015,352.53C504.954,352.631 504.921,352.764 504.921,352.927L504.921,353.072L504.109,353.072L504.109,352.944C504.109,352.551 504.209,352.232 504.408,351.985C504.633,351.704 504.952,351.564 505.362,351.564C505.752,351.564 506.064,351.695 506.298,351.959C506.509,352.196 506.616,352.493 506.616,352.847L506.616,353.081C506.616,353.423 506.513,353.72 506.308,353.969C506.22,354.074 506.117,354.164 506,354.237C506.247,354.375 506.437,354.585 506.572,354.866C506.642,355.009 506.677,355.184 506.677,355.39L506.677,355.825C506.677,356.232 506.538,356.567 506.258,356.827C505.992,357.08 505.671,357.206 505.296,357.206C504.929,357.206 504.619,357.077 504.364,356.818C504.109,356.561 503.982,356.252 503.982,355.891L503.982,355.755L504.773,355.693L504.791,355.886C504.802,356.024 504.852,356.137 504.938,356.225C505.024,356.313 505.136,356.357 505.275,356.357" style="fill:rgb(17,52,71);fill-rule:nonzero;"/>
        <path d="M501.932,344.214C501.941,344.591 501.641,344.903 501.262,344.911L500.655,344.923C500.278,344.931 499.965,344.632 499.957,344.255L499.929,342.907C499.921,342.53 500.221,342.217 500.599,342.209L501.206,342.197C501.583,342.19 501.896,342.489 501.904,342.866L501.932,344.214Z" style="fill:rgb(74,163,101);fill-rule:nonzero;"/>
        <path d="M501.221,342.46L500.604,342.472C500.373,342.478 500.188,342.669 500.193,342.901L500.221,344.249C500.226,344.476 500.413,344.659 500.641,344.659L500.641,344.923L500.649,344.659L501.257,344.647C501.369,344.645 501.474,344.599 501.551,344.518C501.629,344.437 501.67,344.331 501.668,344.219L501.641,342.871C501.635,342.645 501.448,342.46 501.221,342.46M500.641,345.187C500.128,345.187 499.704,344.771 499.693,344.26L499.666,342.912C499.655,342.39 500.072,341.957 500.593,341.945L501.201,341.933C501.732,341.933 502.157,342.349 502.167,342.859L502.195,344.208C502.2,344.46 502.108,344.701 501.932,344.883C501.757,345.065 501.522,345.169 501.269,345.174L500.641,345.187Z" style="fill:rgb(17,52,71);fill-rule:nonzero;"/>
        <path d="M502.815,359.873L500.002,359.932C499.234,359.948 498.599,359.339 498.582,358.571L498.371,348.392L499.951,344.084L501.929,344.043L503.963,348.276L504.174,358.455C504.191,359.223 503.582,359.858 502.815,359.873" style="fill:rgb(212,245,254);fill-rule:nonzero;"/>
        <path d="M504.119,355.728L498.526,355.844L498.371,348.392L503.964,348.276L504.119,355.728Z" style="fill:rgb(146,207,226);fill-rule:nonzero;"/>
        <path d="M501.813,350.119L501.674,351.316L501.473,350.126L501.121,350.133L500.983,351.332L500.782,350.14L500.429,350.148L500.85,352.371L501.172,352.366L501.325,351.133L501.542,352.357L501.864,352.35L502.167,350.112L501.813,350.119Z" style="fill:rgb(212,245,254);fill-rule:nonzero;"/>
        <path d="M502.637,351.493L502.742,350.611L502.886,351.488L502.637,351.493ZM502.502,350.104L502.169,352.345L502.52,352.337L502.591,351.823L502.943,351.815L503.032,352.326L503.386,352.319L502.967,350.095L502.502,350.104Z" style="fill:rgb(212,245,254);fill-rule:nonzero;"/>
        <path d="M503.308,350.088L503.315,350.426L503.674,350.419L503.712,352.313L504.049,352.306L504.002,350.074L503.308,350.088Z" style="fill:rgb(212,245,254);fill-rule:nonzero;"/>
        <path d="M498.635,348.436L498.846,358.565C498.859,359.173 499.364,359.668 499.971,359.668L499.996,359.668L502.809,359.61C503.11,359.603 503.39,359.481 503.597,359.264C503.806,359.047 503.918,358.761 503.912,358.46L503.701,348.338L501.764,344.31L500.135,344.344L498.635,348.436ZM499.971,360.196C499.079,360.196 498.338,359.469 498.319,358.577L498.106,348.348L499.764,343.824L502.093,343.775L504.225,348.213L504.227,348.27L504.439,358.449C504.449,358.891 504.285,359.31 503.978,359.628C503.674,359.947 503.26,360.128 502.82,360.137L499.971,360.196Z" style="fill:rgb(17,52,71);fill-rule:nonzero;"/>
        <path d="M504.066,351.293C503.777,351.383 502.656,352.071 502.656,352.071L497.983,352.387L497.929,350.5C497.856,350.544 496.878,351.053 496.945,352.402C497.004,353.576 497.29,357.399 497.29,357.399C497.309,357.689 497.561,357.909 497.851,357.889L502.624,357.56C502.624,357.56 504.189,356.956 504.499,356.837C505.371,356.5 505.071,355.852 504.699,355.752L504.048,355.734L504.665,355.26C504.866,355.167 504.985,354.966 504.971,354.748C504.955,354.528 504.8,354.339 504.586,354.279L503.873,354.195L504.552,353.784C504.757,353.694 504.883,353.487 504.869,353.267C504.853,353.057 504.716,352.876 504.517,352.806L503.814,352.803L504.484,352.323C505.212,351.833 504.616,351.121 504.066,351.293" style="fill:rgb(255,200,158);fill-rule:nonzero;"/>
        <path d="M503.815,352.803L504.518,352.806C504.717,352.876 504.854,353.057 504.87,353.267C504.884,353.488 504.758,353.695 504.553,353.784L503.874,354.195L504.586,354.279C504.801,354.34 504.956,354.528 504.972,354.748C504.986,354.966 504.867,355.167 504.666,355.26L504.049,355.734L504.7,355.752C505.072,355.852 505.372,356.5 504.5,356.837C504.19,356.956 502.625,357.56 502.625,357.56L497.852,357.889C497.562,357.909 497.31,357.69 497.291,357.4C497.291,357.4 497.004,353.576 496.946,352.403C496.879,351.053 497.857,350.545 497.93,350.5L497.984,352.387L502.886,352.062C502.886,352.062 503.888,351.407 504.175,351.318C504.726,351.145 505.212,351.833 504.485,352.324C504.286,352.457 503.815,352.803 503.815,352.803M498.487,351.828L498.421,349.699C498.24,349.756 498.071,349.824 497.913,349.902L497.912,349.903C496.896,350.402 496.343,351.324 496.42,352.439L496.764,357.436C496.804,358.015 497.308,358.455 497.888,358.415L502.588,358.091C502.716,358.082 502.837,358.05 502.949,358L504.62,357.305C505.254,357.033 505.639,356.761 505.598,356.181C505.58,355.902 505.448,355.647 505.246,355.467C505.421,355.261 505.516,354.991 505.498,354.711C505.478,354.428 505.344,354.172 505.139,353.992C505.318,353.786 505.415,353.514 505.395,353.231C505.377,352.956 505.252,352.706 505.056,352.526C505.225,352.322 505.314,352.058 505.295,351.782C505.281,351.561 505.12,350.739 504.039,350.813L502.631,351.54L498.487,351.828Z" style="fill:rgb(17,52,71);fill-rule:nonzero;"/>
        <path d="M503.586,319.355L503.051,318.093L503.537,317.887L503.947,318.855L508.764,319.243L508.722,319.768L504.401,319.421L503.586,319.355Z" style="fill:rgb(17,52,71);fill-rule:nonzero;"/>
        <path d="M506.006,320.766L505.994,320.238L507.305,320.208L507.317,320.735L506.006,320.766Z" style="fill:rgb(17,52,71);fill-rule:nonzero;"/>
    </g>
</svg>
