<?xml version="1.0" standalone="no"?>
<!DOCTYPE svg PUBLIC "-//W3C//DTD SVG 1.1//EN" "http://www.w3.org/Graphics/SVG/1.1/DTD/svg11.dtd">
<svg width="100%" height="100%" viewBox="0 0 16 16" version="1.1" xmlns="http://www.w3.org/2000/svg" xmlns:xlink="http://www.w3.org/1999/xlink" xml:space="preserve" style="fill-rule:evenodd;clip-rule:evenodd;stroke-linejoin:round;stroke-miterlimit:1.41421;">
    <g transform="matrix(1,0,0,1,-1162,-62)">
        <g id="icon zap">
            <path id="Ellipse 1 copy 2" d="M1170,62C1174.42,62 1178,65.582 1178,70C1178,74.418 1174.42,78 1170,78C1165.58,78 1162,74.418 1162,70C1162,65.582 1165.58,62 1170,62Z" style="fill:rgb(0,190,242);"/>
            <path id="Ellipse 1 copy 21" d="M1170.09,63.001L1170.18,63.002L1170.27,63.005L1170.36,63.009L1170.45,63.014L1170.54,63.02L1170.63,63.028L1170.72,63.036L1170.8,63.046L1170.89,63.056L1170.98,63.068L1171.07,63.081L1171.15,63.094L1171.24,63.109L1171.33,63.125L1171.41,63.142L1171.5,63.16L1171.58,63.179L1171.66,63.199L1171.75,63.22L1171.83,63.242L1171.92,63.266L1172,63.29L1172.08,63.315L1172.16,63.341L1172.25,63.368L1172.33,63.396L1172.41,63.425L1172.49,63.455L1172.57,63.486L1172.65,63.517L1172.73,63.55L1172.8,63.584L1172.88,63.618L1172.96,63.654L1173.04,63.69L1173.11,63.728L1173.19,63.766L1173.26,63.805L1173.34,63.845L1173.41,63.886L1173.48,63.927L1173.56,63.97L1173.63,64.013L1173.7,64.058L1173.77,64.103L1173.84,64.149L1173.91,64.195L1173.98,64.243L1174.05,64.291L1174.12,64.341L1174.19,64.391L1174.26,64.441L1174.32,64.493L1174.39,64.545L1174.45,64.598L1174.52,64.652L1174.58,64.707L1174.64,64.762L1174.71,64.818L1174.77,64.875L1174.83,64.933L1174.89,64.991L1174.95,65.05L1175.01,65.11L1175.07,65.17L1175.12,65.232L1175.18,65.293L1175.24,65.356L1175.29,65.419L1175.35,65.483L1175.4,65.547L1175.45,65.612L1175.51,65.678L1175.56,65.745L1175.61,65.812L1175.66,65.879L1175.71,65.948L1175.76,66.017L1175.8,66.086L1175.85,66.156L1175.9,66.227L1175.94,66.298L1175.99,66.37L1176.03,66.443L1176.07,66.516L1176.11,66.589L1176.15,66.663L1176.19,66.738L1176.23,66.813L1176.27,66.889L1176.31,66.965L1176.35,67.042L1176.38,67.119L1176.42,67.197L1176.45,67.275L1176.48,67.354L1176.51,67.433L1176.55,67.513L1176.58,67.593L1176.6,67.674L1176.63,67.755L1176.66,67.836L1176.68,67.918L1176.71,68.001L1176.73,68.084L1176.76,68.167L1176.78,68.251L1176.8,68.335L1176.82,68.419L1176.84,68.504L1176.86,68.589L1176.88,68.675L1176.89,68.761L1176.9,68.847L1176.92,68.934L1176.93,69.021L1176.94,69.108L1176.95,69.196L1176.96,69.284L1176.97,69.373L1176.98,69.461L1176.99,69.55L1176.99,69.64L1177,69.729L1177,69.819L1177,69.909L1177,70L1177,70.09L1177,70.181L1177,70.271L1176.99,70.36L1176.99,70.449L1176.98,70.539L1176.97,70.627L1176.96,70.716L1176.95,70.804L1176.94,70.891L1176.93,70.979L1176.92,71.066L1176.9,71.153L1176.89,71.239L1176.88,71.325L1176.86,71.411L1176.84,71.496L1176.82,71.581L1176.8,71.665L1176.78,71.749L1176.76,71.833L1176.73,71.916L1176.71,71.999L1176.68,72.082L1176.66,72.164L1176.63,72.245L1176.6,72.326L1176.58,72.407L1176.55,72.487L1176.51,72.567L1176.48,72.646L1176.45,72.725L1176.42,72.803L1176.38,72.881L1176.35,72.958L1176.31,73.035L1176.27,73.111L1176.23,73.187L1176.19,73.262L1176.15,73.337L1176.11,73.411L1176.07,73.484L1176.03,73.557L1175.99,73.63L1175.94,73.702L1175.9,73.773L1175.85,73.844L1175.8,73.914L1175.76,73.983L1175.71,74.052L1175.66,74.12L1175.61,74.188L1175.56,74.255L1175.51,74.322L1175.45,74.387L1175.4,74.453L1175.35,74.517L1175.29,74.581L1175.24,74.644L1175.18,74.707L1175.12,74.768L1175.07,74.83L1175.01,74.89L1174.95,74.95L1174.89,75.009L1174.83,75.067L1174.77,75.125L1174.71,75.182L1174.64,75.238L1174.58,75.293L1174.52,75.348L1174.45,75.402L1174.39,75.455L1174.32,75.507L1174.26,75.559L1174.19,75.609L1174.12,75.659L1174.05,75.709L1173.98,75.757L1173.91,75.804L1173.84,75.851L1173.77,75.897L1173.7,75.942L1173.63,75.987L1173.56,76.03L1173.48,76.073L1173.41,76.114L1173.34,76.155L1173.26,76.195L1173.19,76.234L1173.11,76.272L1173.04,76.31L1172.96,76.346L1172.88,76.382L1172.8,76.416L1172.73,76.45L1172.65,76.483L1172.57,76.514L1172.49,76.545L1172.41,76.575L1172.33,76.604L1172.25,76.632L1172.16,76.659L1172.08,76.685L1172,76.71L1171.92,76.734L1171.83,76.758L1171.75,76.78L1171.66,76.801L1171.58,76.821L1171.5,76.84L1171.41,76.858L1171.33,76.875L1171.24,76.891L1171.15,76.906L1171.07,76.919L1170.98,76.932L1170.89,76.944L1170.8,76.954L1170.72,76.964L1170.63,76.972L1170.54,76.98L1170.45,76.986L1170.36,76.991L1170.27,76.995L1170.18,76.998L1170.09,76.999L1170,77L1169.91,76.999L1169.82,76.998L1169.73,76.995L1169.64,76.991L1169.55,76.986L1169.46,76.98L1169.37,76.972L1169.28,76.964L1169.2,76.954L1169.11,76.944L1169.02,76.932L1168.93,76.919L1168.85,76.906L1168.76,76.891L1168.67,76.875L1168.59,76.858L1168.5,76.84L1168.42,76.821L1168.34,76.801L1168.25,76.78L1168.17,76.758L1168.08,76.734L1168,76.71L1167.92,76.685L1167.84,76.659L1167.76,76.632L1167.67,76.604L1167.59,76.575L1167.51,76.545L1167.43,76.514L1167.35,76.483L1167.28,76.45L1167.2,76.416L1167.12,76.382L1167.04,76.346L1166.96,76.31L1166.89,76.272L1166.81,76.234L1166.74,76.195L1166.66,76.155L1166.59,76.114L1166.52,76.073L1166.44,76.03L1166.37,75.987L1166.3,75.942L1166.23,75.897L1166.16,75.851L1166.09,75.804L1166.02,75.757L1165.95,75.709L1165.88,75.659L1165.81,75.609L1165.75,75.559L1165.68,75.507L1165.61,75.455L1165.55,75.402L1165.48,75.348L1165.42,75.293L1165.36,75.238L1165.29,75.182L1165.23,75.125L1165.17,75.067L1165.11,75.009L1165.05,74.95L1164.99,74.89L1164.93,74.83L1164.88,74.768L1164.82,74.707L1164.76,74.644L1164.71,74.581L1164.65,74.517L1164.6,74.453L1164.55,74.387L1164.49,74.322L1164.44,74.255L1164.39,74.188L1164.34,74.12L1164.29,74.052L1164.24,73.983L1164.19,73.914L1164.15,73.844L1164.1,73.773L1164.06,73.702L1164.01,73.63L1163.97,73.557L1163.93,73.484L1163.89,73.411L1163.85,73.337L1163.81,73.262L1163.77,73.187L1163.73,73.111L1163.69,73.035L1163.65,72.958L1163.62,72.881L1163.58,72.803L1163.55,72.725L1163.52,72.646L1163.49,72.567L1163.45,72.487L1163.42,72.407L1163.4,72.326L1163.37,72.245L1163.34,72.164L1163.32,72.082L1163.29,71.999L1163.27,71.916L1163.24,71.833L1163.22,71.749L1163.2,71.665L1163.18,71.581L1163.16,71.496L1163.14,71.411L1163.12,71.325L1163.11,71.239L1163.09,71.153L1163.08,71.066L1163.07,70.979L1163.06,70.891L1163.05,70.804L1163.04,70.716L1163.03,70.627L1163.02,70.539L1163.01,70.449L1163.01,70.36L1163.01,70.271L1163,70.181L1163,70.09L1163,70L1163,69.909L1163,69.819L1163.01,69.729L1163.01,69.64L1163.01,69.55L1163.02,69.461L1163.03,69.373L1163.04,69.284L1163.05,69.196L1163.06,69.108L1163.07,69.021L1163.08,68.934L1163.09,68.847L1163.11,68.761L1163.12,68.675L1163.14,68.589L1163.16,68.504L1163.18,68.419L1163.2,68.335L1163.22,68.251L1163.24,68.167L1163.27,68.084L1163.29,68.001L1163.32,67.918L1163.34,67.836L1163.37,67.755L1163.4,67.674L1163.42,67.593L1163.45,67.513L1163.49,67.433L1163.52,67.354L1163.55,67.275L1163.58,67.197L1163.62,67.119L1163.65,67.042L1163.69,66.965L1163.73,66.889L1163.77,66.813L1163.81,66.738L1163.85,66.663L1163.89,66.589L1163.93,66.516L1163.97,66.443L1164.01,66.37L1164.06,66.298L1164.1,66.227L1164.15,66.156L1164.19,66.086L1164.24,66.017L1164.29,65.948L1164.34,65.879L1164.39,65.812L1164.44,65.745L1164.49,65.678L1164.55,65.612L1164.6,65.547L1164.65,65.483L1164.71,65.419L1164.76,65.356L1164.82,65.293L1164.88,65.232L1164.93,65.17L1164.99,65.11L1165.05,65.05L1165.11,64.991L1165.17,64.933L1165.23,64.875L1165.29,64.818L1165.36,64.762L1165.42,64.707L1165.48,64.652L1165.55,64.598L1165.61,64.545L1165.68,64.493L1165.75,64.441L1165.81,64.391L1165.88,64.341L1165.95,64.291L1166.02,64.243L1166.09,64.195L1166.16,64.149L1166.23,64.103L1166.3,64.058L1166.37,64.013L1166.44,63.97L1166.52,63.927L1166.59,63.886L1166.66,63.845L1166.74,63.805L1166.81,63.766L1166.89,63.728L1166.96,63.69L1167.04,63.654L1167.12,63.618L1167.2,63.584L1167.28,63.55L1167.35,63.517L1167.43,63.486L1167.51,63.455L1167.59,63.425L1167.67,63.396L1167.76,63.368L1167.84,63.341L1167.92,63.315L1168,63.29L1168.08,63.266L1168.17,63.242L1168.25,63.22L1168.34,63.199L1168.42,63.179L1168.5,63.16L1168.59,63.142L1168.67,63.125L1168.76,63.109L1168.85,63.094L1168.93,63.081L1169.02,63.068L1169.11,63.056L1169.2,63.046L1169.28,63.036L1169.37,63.028L1169.46,63.02L1169.55,63.014L1169.64,63.009L1169.73,63.005L1169.82,63.002L1169.91,63.001L1170,63L1170.09,63.001ZM1169.92,63.855L1169.84,63.856L1169.76,63.859L1169.68,63.862L1169.6,63.867L1169.53,63.872L1169.45,63.879L1169.37,63.886L1169.29,63.894L1169.22,63.904L1169.14,63.914L1169.06,63.925L1168.99,63.937L1168.91,63.95L1168.84,63.964L1168.76,63.979L1168.69,63.995L1168.61,64.012L1168.54,64.029L1168.46,64.048L1168.39,64.067L1168.32,64.087L1168.24,64.108L1168.17,64.13L1168.1,64.153L1168.03,64.177L1167.96,64.201L1167.89,64.227L1167.82,64.253L1167.75,64.28L1167.68,64.308L1167.61,64.337L1167.54,64.366L1167.47,64.397L1167.4,64.428L1167.34,64.46L1167.27,64.493L1167.2,64.526L1167.14,64.56L1167.07,64.595L1167.01,64.631L1166.94,64.668L1166.88,64.705L1166.81,64.743L1166.75,64.782L1166.69,64.822L1166.63,64.862L1166.56,64.903L1166.5,64.945L1166.44,64.987L1166.38,65.031L1166.32,65.075L1166.26,65.119L1166.21,65.165L1166.15,65.21L1166.09,65.257L1166.03,65.305L1165.98,65.353L1165.92,65.401L1165.87,65.45L1165.81,65.501L1165.76,65.551L1165.71,65.602L1165.65,65.654L1165.6,65.707L1165.55,65.76L1165.5,65.814L1165.45,65.868L1165.4,65.923L1165.35,65.978L1165.31,66.034L1165.26,66.091L1165.21,66.148L1165.16,66.206L1165.12,66.265L1165.08,66.323L1165.03,66.383L1164.99,66.443L1164.94,66.503L1164.9,66.564L1164.86,66.626L1164.82,66.688L1164.78,66.751L1164.74,66.814L1164.7,66.877L1164.67,66.941L1164.63,67.006L1164.6,67.071L1164.56,67.137L1164.53,67.202L1164.49,67.269L1164.46,67.336L1164.43,67.403L1164.4,67.471L1164.37,67.539L1164.34,67.608L1164.31,67.677L1164.28,67.746L1164.25,67.816L1164.23,67.887L1164.2,67.958L1164.18,68.029L1164.15,68.1L1164.13,68.172L1164.11,68.244L1164.09,68.317L1164.07,68.39L1164.05,68.463L1164.03,68.537L1164.01,68.611L1164,68.686L1163.98,68.76L1163.96,68.836L1163.95,68.911L1163.94,68.987L1163.92,69.063L1163.91,69.139L1163.9,69.216L1163.89,69.293L1163.89,69.371L1163.88,69.448L1163.87,69.526L1163.87,69.605L1163.86,69.683L1163.86,69.762L1163.86,69.841L1163.86,69.92L1163.85,70L1163.86,70.08L1163.86,70.159L1163.86,70.238L1163.86,70.317L1163.87,70.395L1163.87,70.474L1163.88,70.552L1163.89,70.629L1163.89,70.707L1163.9,70.784L1163.91,70.861L1163.92,70.937L1163.94,71.013L1163.95,71.089L1163.96,71.164L1163.98,71.24L1164,71.314L1164.01,71.389L1164.03,71.463L1164.05,71.537L1164.07,71.61L1164.09,71.683L1164.11,71.755L1164.13,71.828L1164.15,71.9L1164.18,71.971L1164.2,72.042L1164.23,72.113L1164.25,72.184L1164.28,72.253L1164.31,72.323L1164.34,72.392L1164.37,72.461L1164.4,72.529L1164.43,72.597L1164.46,72.664L1164.49,72.731L1164.53,72.797L1164.56,72.863L1164.6,72.929L1164.63,72.994L1164.67,73.059L1164.7,73.122L1164.74,73.186L1164.78,73.249L1164.82,73.312L1164.86,73.374L1164.9,73.436L1164.94,73.497L1164.99,73.557L1165.03,73.617L1165.08,73.677L1165.12,73.735L1165.16,73.794L1165.21,73.852L1165.26,73.909L1165.31,73.966L1165.35,74.022L1165.4,74.077L1165.45,74.132L1165.5,74.186L1165.55,74.24L1165.6,74.293L1165.65,74.346L1165.71,74.398L1165.76,74.449L1165.81,74.499L1165.87,74.55L1165.92,74.599L1165.98,74.647L1166.03,74.695L1166.09,74.743L1166.15,74.789L1166.21,74.835L1166.26,74.881L1166.32,74.925L1166.38,74.969L1166.44,75.012L1166.5,75.055L1166.56,75.097L1166.63,75.138L1166.69,75.178L1166.75,75.218L1166.81,75.257L1166.88,75.295L1166.94,75.332L1167.01,75.369L1167.07,75.404L1167.14,75.44L1167.2,75.474L1167.27,75.507L1167.34,75.54L1167.4,75.572L1167.47,75.603L1167.54,75.634L1167.61,75.663L1167.68,75.692L1167.75,75.72L1167.82,75.747L1167.89,75.773L1167.96,75.799L1168.03,75.823L1168.1,75.847L1168.17,75.87L1168.24,75.892L1168.32,75.913L1168.39,75.933L1168.46,75.952L1168.54,75.971L1168.61,75.988L1168.69,76.005L1168.76,76.021L1168.84,76.036L1168.91,76.05L1168.99,76.063L1169.06,76.075L1169.14,76.086L1169.22,76.096L1169.29,76.106L1169.37,76.114L1169.45,76.121L1169.53,76.128L1169.6,76.133L1169.68,76.138L1169.76,76.141L1169.84,76.144L1169.92,76.145L1170,76.146L1170.08,76.145L1170.16,76.144L1170.24,76.141L1170.32,76.138L1170.39,76.133L1170.47,76.128L1170.55,76.121L1170.63,76.114L1170.71,76.106L1170.78,76.096L1170.86,76.086L1170.94,76.075L1171.01,76.063L1171.09,76.05L1171.16,76.036L1171.24,76.021L1171.31,76.005L1171.39,75.988L1171.46,75.971L1171.54,75.952L1171.61,75.933L1171.68,75.913L1171.76,75.892L1171.83,75.87L1171.9,75.847L1171.97,75.823L1172.04,75.799L1172.11,75.773L1172.18,75.747L1172.25,75.72L1172.32,75.692L1172.39,75.663L1172.46,75.634L1172.53,75.603L1172.6,75.572L1172.66,75.54L1172.73,75.508L1172.8,75.474L1172.86,75.44L1172.93,75.405L1172.99,75.369L1173.06,75.332L1173.12,75.295L1173.19,75.257L1173.25,75.218L1173.31,75.178L1173.37,75.138L1173.44,75.097L1173.5,75.055L1173.56,75.012L1173.62,74.969L1173.68,74.925L1173.74,74.881L1173.79,74.835L1173.85,74.789L1173.91,74.743L1173.96,74.695L1174.02,74.647L1174.08,74.599L1174.13,74.549L1174.19,74.499L1174.24,74.449L1174.29,74.398L1174.35,74.346L1174.4,74.293L1174.45,74.24L1174.5,74.186L1174.55,74.132L1174.6,74.077L1174.65,74.022L1174.69,73.966L1174.74,73.909L1174.79,73.852L1174.84,73.794L1174.88,73.735L1174.92,73.677L1174.97,73.617L1175.01,73.557L1175.06,73.497L1175.1,73.436L1175.14,73.374L1175.18,73.312L1175.22,73.249L1175.26,73.186L1175.3,73.122L1175.33,73.059L1175.37,72.994L1175.4,72.929L1175.44,72.864L1175.47,72.797L1175.51,72.731L1175.54,72.664L1175.57,72.597L1175.6,72.529L1175.63,72.46L1175.66,72.392L1175.69,72.323L1175.72,72.253L1175.75,72.183L1175.77,72.113L1175.8,72.042L1175.82,71.971L1175.85,71.9L1175.87,71.828L1175.89,71.756L1175.91,71.683L1175.93,71.61L1175.95,71.536L1175.97,71.463L1175.99,71.389L1176.01,71.314L1176.02,71.239L1176.04,71.164L1176.05,71.089L1176.06,71.013L1176.08,70.937L1176.09,70.861L1176.1,70.784L1176.11,70.707L1176.11,70.63L1176.12,70.552L1176.13,70.474L1176.13,70.396L1176.14,70.317L1176.14,70.238L1176.14,70.159L1176.14,70.08L1176.15,70L1176.14,69.92L1176.14,69.841L1176.14,69.762L1176.14,69.683L1176.13,69.604L1176.13,69.526L1176.12,69.448L1176.11,69.37L1176.11,69.293L1176.1,69.216L1176.09,69.139L1176.08,69.063L1176.06,68.987L1176.05,68.911L1176.04,68.836L1176.02,68.761L1176.01,68.686L1175.99,68.611L1175.97,68.537L1175.95,68.464L1175.93,68.39L1175.91,68.317L1175.89,68.244L1175.87,68.172L1175.85,68.1L1175.82,68.029L1175.8,67.958L1175.77,67.887L1175.75,67.817L1175.72,67.746L1175.69,67.677L1175.66,67.608L1175.63,67.54L1175.6,67.471L1175.57,67.403L1175.54,67.336L1175.51,67.269L1175.47,67.202L1175.44,67.136L1175.4,67.071L1175.37,67.006L1175.33,66.941L1175.3,66.877L1175.26,66.814L1175.22,66.751L1175.18,66.688L1175.14,66.626L1175.1,66.564L1175.06,66.503L1175.01,66.443L1174.97,66.383L1174.92,66.323L1174.88,66.265L1174.84,66.206L1174.79,66.148L1174.74,66.091L1174.69,66.034L1174.65,65.978L1174.6,65.923L1174.55,65.868L1174.5,65.814L1174.45,65.76L1174.4,65.707L1174.35,65.654L1174.29,65.602L1174.24,65.551L1174.19,65.501L1174.13,65.451L1174.08,65.401L1174.02,65.352L1173.96,65.304L1173.91,65.257L1173.85,65.211L1173.79,65.165L1173.74,65.119L1173.68,65.075L1173.62,65.031L1173.56,64.987L1173.5,64.945L1173.44,64.903L1173.37,64.862L1173.31,64.822L1173.25,64.782L1173.19,64.743L1173.12,64.705L1173.06,64.668L1172.99,64.631L1172.93,64.595L1172.86,64.56L1172.8,64.526L1172.73,64.492L1172.66,64.46L1172.6,64.428L1172.53,64.397L1172.46,64.366L1172.39,64.337L1172.32,64.308L1172.25,64.28L1172.18,64.253L1172.11,64.227L1172.04,64.201L1171.97,64.177L1171.9,64.153L1171.83,64.13L1171.76,64.108L1171.68,64.087L1171.61,64.067L1171.54,64.048L1171.46,64.029L1171.39,64.012L1171.31,63.995L1171.24,63.979L1171.16,63.964L1171.09,63.95L1171.01,63.937L1170.94,63.925L1170.86,63.914L1170.78,63.904L1170.71,63.894L1170.63,63.886L1170.55,63.879L1170.47,63.872L1170.39,63.867L1170.32,63.862L1170.24,63.859L1170.16,63.856L1170.08,63.855L1170,63.854L1169.92,63.855Z" style="fill:white;"/>
            <rect id="Rectangle 2 copy 4" x="1170.32" y="73.462" width="0.753" height="1.538" style="fill:white;"/>
            <rect id="Rectangle 2 copy 41" x="1168.81" y="73.462" width="0.753" height="1.538" style="fill:white;"/>
            <g id="Z copy" transform="matrix(0.695652,0,0,0.678274,1166.55,73.5966)">
                <text x="0px" y="0px" style="font-family:'Montserrat-Light';font-size:14.909px;fill:white;">Z</text>
            </g>
            <rect id="Rectangle 2 copy 42" x="1170.32" y="65" width="0.753" height="1.539" style="fill:white;"/>
            <rect id="Rectangle 2 copy 43" x="1168.81" y="65" width="0.753" height="1.539" style="fill:white;"/>
        </g>
    </g>
</svg>
