<?xml version="1.0" standalone="no"?>
<!DOCTYPE svg PUBLIC "-//W3C//DTD SVG 1.1//EN" "http://www.w3.org/Graphics/SVG/1.1/DTD/svg11.dtd">
<svg width="100%" height="100%" viewBox="0 0 18 19" version="1.1" xmlns="http://www.w3.org/2000/svg" xmlns:xlink="http://www.w3.org/1999/xlink" xml:space="preserve" style="fill-rule:evenodd;clip-rule:evenodd;stroke-linejoin:round;stroke-miterlimit:1.41421;">
    <g transform="matrix(1,0,0,1,-1428,-53.9951)">
        <path id="Forma 1 copy 19" d="M1432.03,72C1431.49,72 1431.05,71.563 1431.05,71.025L1431.05,68.697C1429.26,68.197 1428,66.566 1428,64.688L1428,58.166C1428,55.866 1429.88,53.995 1432.18,53.995L1441.81,53.995C1444.12,53.995 1445.99,55.866 1445.99,58.166L1445.99,64.688C1445.99,66.988 1444.12,68.859 1441.81,68.859L1435.85,68.859L1432.69,71.744C1432.51,71.909 1432.27,72 1432.03,72ZM1432.18,54.886C1430.37,54.886 1428.89,56.357 1428.89,58.165L1428.89,64.687C1428.89,66.262 1430.03,67.615 1431.58,67.905L1431.95,67.972L1431.95,71.024C1431.95,71.104 1432.03,71.107 1432.03,71.107C1432.05,71.107 1432.07,71.1 1432.09,71.086L1435.5,67.966L1441.81,67.966C1443.62,67.966 1445.1,66.495 1445.1,64.687L1445.1,58.165C1445.1,56.357 1443.62,54.886 1441.81,54.886C1441.81,54.886 1432.18,54.886 1432.18,54.886Z" style="fill:rgb(0,191,243);fill-rule:nonzero;"/>
    </g>
</svg>
