<?xml version="1.0" standalone="no"?>
<!DOCTYPE svg PUBLIC "-//W3C//DTD SVG 1.1//EN" "http://www.w3.org/Graphics/SVG/1.1/DTD/svg11.dtd">
<svg width="100%" height="100%" viewBox="0 0 64 57" version="1.1" xmlns="http://www.w3.org/2000/svg" xmlns:xlink="http://www.w3.org/1999/xlink" xml:space="preserve" style="fill-rule:evenodd;clip-rule:evenodd;stroke-linejoin:round;stroke-miterlimit:1.41421;">
    <g transform="matrix(1,0,0,1,-1280,-37)">
        <path id="Forma 1 copy 8" d="M1338.67,37C1341.64,37.028 1344,39.408 1344,42.33L1344,77.088C1344,80.027 1341.61,82.418 1338.67,82.418L1321.48,82.418L1324.69,89.494C1324.87,89.825 1324.96,90.201 1324.96,90.6C1324.96,91.926 1323.89,93 1322.56,93L1301.44,93C1300.62,93 1299.87,92.586 1299.42,91.9C1298.98,91.215 1298.92,90.352 1299.25,89.609L1302.52,82.418L1285.33,82.418C1282.36,82.389 1280,80.009 1280,77.088L1280,42.33C1280,39.408 1282.36,37.028 1285.33,37L1338.67,37ZM1339.2,77.088L1339.2,42.33C1339.2,42.037 1338.96,41.799 1338.67,41.799L1285.33,41.799C1285.04,41.799 1284.8,42.037 1284.8,42.33L1284.8,77.088C1284.8,77.38 1285.04,77.618 1285.33,77.618L1338.67,77.618C1338.97,77.592 1339.17,77.389 1339.2,77.088L1339.2,77.088ZM1313.56,46.318C1314.01,46.349 1314.32,46.677 1314.32,47.078L1314.32,49.847C1315.14,50.037 1315.92,50.324 1316.65,50.696L1318.43,48.574C1318.56,48.42 1318.74,48.323 1318.94,48.306C1319.14,48.288 1319.35,48.351 1319.5,48.481L1321.89,50.483C1322.04,50.612 1322.14,50.798 1322.15,50.998C1322.17,51.199 1322.11,51.398 1321.98,51.553L1320.2,53.676C1320.69,54.335 1321.11,55.054 1321.44,55.823L1324.17,55.342C1324.58,55.269 1324.97,55.545 1325.05,55.958L1325.59,59.025C1325.62,59.224 1325.58,59.428 1325.46,59.593C1325.35,59.758 1325.17,59.87 1324.97,59.905L1322.24,60.387C1322.2,61.232 1322.05,62.05 1321.81,62.829L1324.21,64.214C1324.39,64.315 1324.51,64.48 1324.57,64.675C1324.62,64.87 1324.59,65.077 1324.49,65.252L1322.93,67.949C1322.83,68.124 1322.67,68.251 1322.47,68.303C1322.41,68.32 1322.34,68.329 1322.28,68.329C1322.14,68.329 1322.01,68.294 1321.89,68.227L1319.49,66.841C1318.93,67.445 1318.29,67.981 1317.6,68.435L1318.54,71.039C1318.61,71.228 1318.6,71.437 1318.52,71.62C1318.43,71.803 1318.28,71.944 1318.09,72.013L1315.16,73.078C1315.08,73.108 1314.99,73.124 1314.9,73.124C1314.79,73.124 1314.68,73.1 1314.58,73.052C1314.4,72.967 1314.26,72.813 1314.19,72.624L1313.24,70.02C1312.83,70.069 1312.42,70.095 1312,70.095C1311.58,70.095 1311.17,70.069 1310.76,70.02L1309.81,72.624C1309.74,72.813 1309.6,72.967 1309.42,73.052C1309.32,73.1 1309.21,73.124 1309.1,73.124C1309.01,73.124 1308.92,73.108 1308.84,73.078L1305.91,72.013C1305.72,71.944 1305.57,71.803 1305.48,71.62C1305.4,71.437 1305.39,71.228 1305.46,71.039L1306.4,68.435C1305.71,67.981 1305.07,67.445 1304.51,66.841L1302.11,68.227C1301.99,68.294 1301.86,68.329 1301.73,68.329C1301.66,68.329 1301.59,68.32 1301.53,68.303C1301.33,68.251 1301.17,68.124 1301.07,67.949L1299.51,65.252C1299.41,65.077 1299.38,64.87 1299.43,64.675C1299.49,64.48 1299.61,64.315 1299.79,64.214L1302.19,62.829C1301.95,62.05 1301.8,61.232 1301.76,60.387L1299.03,59.905C1298.83,59.87 1298.65,59.758 1298.54,59.593C1298.42,59.428 1298.38,59.224 1298.41,59.025L1298.95,55.958C1299.03,55.545 1299.42,55.269 1299.83,55.342L1302.56,55.823C1302.89,55.055 1303.31,54.335 1303.8,53.676L1302.02,51.553C1301.89,51.398 1301.83,51.199 1301.85,50.998C1301.86,50.798 1301.96,50.612 1302.11,50.483L1304.5,48.481C1304.82,48.211 1305.3,48.253 1305.57,48.574L1307.35,50.696C1308.08,50.324 1308.86,50.037 1309.68,49.847L1309.68,47.078C1309.68,46.677 1309.99,46.349 1310.44,46.318L1313.56,46.318ZM1312,63.899C1309.69,63.899 1307.82,62.028 1307.82,59.721C1307.82,57.414 1309.69,55.543 1312,55.543C1314.31,55.543 1316.18,57.414 1316.18,59.721C1316.18,62.028 1314.31,63.899 1312,63.899Z" style="fill:rgb(0,191,243);"/>
    </g>
</svg>
