<?xml version="1.0" standalone="no"?>
<!DOCTYPE svg PUBLIC "-//W3C//DTD SVG 1.1//EN" "http://www.w3.org/Graphics/SVG/1.1/DTD/svg11.dtd">
<svg width="100%" height="100%" viewBox="0 0 26 36" version="1.1" xmlns="http://www.w3.org/2000/svg" xmlns:xlink="http://www.w3.org/1999/xlink" xml:space="preserve" style="fill-rule:evenodd;clip-rule:evenodd;stroke-linejoin:round;stroke-miterlimit:1.41421;">
    <g transform="matrix(1,0,0,1,-415,-49.9999)">
        <path id="Forma 1 copy 13" d="M434.312,50L415,50L415,85L440.999,85L440.999,56.943L434.312,50ZM434.679,52.221L438.86,56.561L434.679,56.561L434.679,52.221Z" style="fill:rgb(0,190,242);fill-rule:nonzero;"/>
        <path id="Forma 1 copy 14" d="M419.618,74.801L424.229,74.801L424.229,79.587L419.618,79.587L419.618,74.801ZM435.586,79.587L426.002,79.587L426.002,78.286L435.586,78.286L435.586,79.587ZM422.976,78.286L422.976,76.102L420.872,76.102L420.872,78.286L422.976,78.286ZM419.618,68.338L424.229,68.338L424.229,73.125L419.618,73.125L419.618,68.338ZM435.586,73.125L426.002,73.125L426.002,71.823L435.586,71.823L435.586,73.125ZM422.976,71.823L422.976,69.639L420.872,69.639L420.872,71.823L422.976,71.823ZM419.618,61.875L424.229,61.875L424.229,66.662L419.618,66.662L419.618,61.875ZM435.586,66.662L426.002,66.662L426.002,65.361L435.586,65.361L435.586,66.662ZM422.976,65.361L422.976,63.177L420.872,63.177L420.872,65.361L422.976,65.361ZM419.618,55.413L424.229,55.413L424.229,60.199L419.618,60.199L419.618,55.413ZM435.586,60.199L426.002,60.199L426.002,58.898L435.586,58.898L435.586,60.199ZM422.976,58.898L422.976,56.714L420.872,56.714L420.872,58.898L422.976,58.898Z" style="fill:white;"/>
    </g>
</svg>
