<?xml version="1.0" standalone="no"?>
<!DOCTYPE svg PUBLIC "-//W3C//DTD SVG 1.1//EN" "http://www.w3.org/Graphics/SVG/1.1/DTD/svg11.dtd">
<svg width="100%" height="100%" viewBox="0 0 26 36" version="1.1" xmlns="http://www.w3.org/2000/svg" xmlns:xlink="http://www.w3.org/1999/xlink" xml:space="preserve" style="fill-rule:evenodd;clip-rule:evenodd;stroke-linejoin:round;stroke-miterlimit:1.41421;">
    <g transform="matrix(1,0,0,1,-475,-49.9999)">
        <path id="Forma 1 copy 2" d="M500.999,56.943L500.999,85L475,85L475,50L494.312,50L500.999,56.943ZM499.746,83.699L499.746,57.863L493.425,57.863L493.425,51.301L476.254,51.301L476.254,83.699L499.746,83.699ZM479.618,74.801L484.229,74.801L484.229,79.587L479.618,79.587L479.618,74.801ZM495.586,79.587L486.002,79.587L486.002,78.286L495.586,78.286L495.586,79.587ZM482.976,78.286L482.976,76.102L480.872,76.102L480.872,78.286L482.976,78.286ZM479.618,68.338L484.229,68.338L484.229,73.125L479.618,73.125L479.618,68.338ZM495.586,73.125L486.002,73.125L486.002,71.823L495.586,71.823L495.586,73.125ZM482.976,71.823L482.976,69.639L480.872,69.639L480.872,71.823L482.976,71.823ZM479.618,61.875L484.229,61.875L484.229,66.662L479.618,66.662L479.618,61.875ZM495.586,66.662L486.002,66.662L486.002,65.361L495.586,65.361L495.586,66.662ZM482.976,65.361L482.976,63.177L480.872,63.177L480.872,65.361L482.976,65.361ZM479.618,55.413L484.229,55.413L484.229,60.199L479.618,60.199L479.618,55.413ZM495.586,60.199L486.002,60.199L486.002,58.898L495.586,58.898L495.586,60.199ZM482.976,58.898L482.976,56.714L480.872,56.714L480.872,58.898L482.976,58.898ZM498.86,56.561L494.679,52.221L494.679,56.561L498.86,56.561Z" style="fill:rgb(0,190,242);"/>
    </g>
</svg>
