<?xml version="1.0" standalone="no"?>
<!DOCTYPE svg PUBLIC "-//W3C//DTD SVG 1.1//EN" "http://www.w3.org/Graphics/SVG/1.1/DTD/svg11.dtd">
<svg width="100%" height="100%" viewBox="0 0 35 39" version="1.1" xmlns="http://www.w3.org/2000/svg" xmlns:xlink="http://www.w3.org/1999/xlink" xml:space="preserve" style="fill-rule:evenodd;clip-rule:evenodd;stroke-linejoin:round;stroke-miterlimit:1.41421;">
    <g transform="matrix(1,0,0,1,-1098,-44.9998)">
        <path id="Forma 1 copy 23" d="M1129.7,45C1130.97,45.001 1132,46.034 1132,47.304L1132,76.638C1132,76.853 1131.91,77.059 1131.76,77.211L1126.23,82.762C1126.08,82.914 1125.87,82.999 1125.66,83L1107.58,83C1106.31,83 1105.28,81.966 1105.28,80.696L1105.28,71.825C1101.08,70.62 1098,66.735 1098,62.142C1098,57.549 1101.08,53.665 1105.28,52.46L1105.28,47.304C1105.28,46.034 1106.31,45.001 1107.58,45L1129.7,45ZM1130.38,75.826L1130.38,51.376L1106.9,51.376L1106.9,52.138C1107.27,52.096 1107.65,52.073 1108.04,52.073C1111.11,52.073 1113.86,53.466 1115.71,55.655L1120.56,55.655C1121,55.655 1121.37,56.018 1121.37,56.466C1121.37,56.914 1121,57.278 1120.56,57.278L1116.82,57.278C1117.51,58.514 1117.94,59.909 1118.05,61.392L1120.56,61.392C1121,61.392 1121.37,61.756 1121.37,62.204C1121.37,62.652 1121,63.015 1120.56,63.015L1118.04,63.015C1117.91,64.502 1117.46,65.897 1116.75,67.13L1120.56,67.13C1121,67.13 1121.37,67.493 1121.37,67.942C1121.37,68.39 1121,68.753 1120.56,68.753L1115.6,68.753C1113.76,70.871 1111.05,72.211 1108.04,72.211C1107.65,72.211 1107.27,72.189 1106.9,72.146L1106.9,80.696C1106.9,81.071 1107.2,81.377 1107.58,81.377L1124.85,81.377L1124.85,78.13C1124.85,76.86 1125.88,75.827 1127.15,75.826L1130.38,75.826ZM1126.47,80.229L1126.47,78.13C1126.47,77.755 1126.77,77.449 1127.15,77.449L1129.24,77.449L1126.47,80.229ZM1126.42,72.868C1126.87,72.868 1127.23,73.231 1127.23,73.679C1127.23,74.127 1126.87,74.49 1126.42,74.491L1118.86,74.491C1118.41,74.491 1118.05,74.127 1118.05,73.679C1118.05,73.231 1118.41,72.868 1118.86,72.868L1126.42,72.868ZM1099.62,62.142C1099.62,57.485 1103.39,53.696 1108.04,53.696C1112.68,53.696 1116.46,57.485 1116.46,62.142C1116.46,66.799 1112.68,70.589 1108.04,70.589C1103.39,70.589 1099.62,66.799 1099.62,62.142ZM1126.42,67.13C1126.87,67.131 1127.23,67.494 1127.23,67.942C1127.23,68.389 1126.87,68.752 1126.42,68.753L1123.74,68.753C1123.29,68.753 1122.93,68.39 1122.93,67.942C1122.93,67.494 1123.29,67.131 1123.74,67.13L1126.42,67.13ZM1114.32,58.049L1113.33,57.059C1113.06,56.792 1112.71,56.645 1112.34,56.645C1111.96,56.645 1111.61,56.792 1111.34,57.059L1106.16,62.251L1104.73,60.816C1104.47,60.55 1104.11,60.403 1103.74,60.403C1103.36,60.403 1103.01,60.55 1102.74,60.816L1101.76,61.806C1101.21,62.357 1101.21,63.252 1101.76,63.802L1105.17,67.226C1105.43,67.492 1105.79,67.639 1106.16,67.639C1106.54,67.639 1106.89,67.492 1107.16,67.226L1114.32,60.045C1114.87,59.495 1114.87,58.599 1114.32,58.049ZM1106.16,65.929L1103.05,62.804L1103.74,62.113L1105.59,63.973C1105.91,64.29 1106.42,64.29 1106.74,63.973L1112.34,58.356L1113.02,59.047L1106.16,65.929ZM1126.42,61.392C1126.87,61.393 1127.23,61.756 1127.23,62.204C1127.23,62.651 1126.87,63.015 1126.42,63.015L1123.74,63.015C1123.29,63.015 1122.93,62.652 1122.93,62.204C1122.93,61.756 1123.29,61.393 1123.74,61.392L1126.42,61.392ZM1126.42,55.655C1126.87,55.655 1127.23,56.019 1127.23,56.466C1127.23,56.914 1126.87,57.277 1126.42,57.278L1123.74,57.278C1123.29,57.278 1122.93,56.914 1122.93,56.466C1122.93,56.019 1123.29,55.655 1123.74,55.655L1126.42,55.655ZM1130.38,49.753L1130.38,47.304C1130.38,46.928 1130.08,46.623 1129.7,46.623L1107.58,46.623C1107.2,46.623 1106.9,46.928 1106.9,47.304L1106.9,49.753L1130.38,49.753Z" style="fill:rgb(0,191,243);"/>
    </g>
</svg>
