<?xml version="1.0" standalone="no"?>
<!DOCTYPE svg PUBLIC "-//W3C//DTD SVG 1.1//EN" "http://www.w3.org/Graphics/SVG/1.1/DTD/svg11.dtd">
<svg width="100%" height="100%" viewBox="0 0 36 27" version="1.1" xmlns="http://www.w3.org/2000/svg" xmlns:xlink="http://www.w3.org/1999/xlink" xml:space="preserve" style="fill-rule:evenodd;clip-rule:evenodd;stroke-linejoin:round;stroke-miterlimit:1.41421;">
    <g transform="matrix(1,0,0,1,-648.001,-57.9998)">
        <path id="Forma 1 copy 11" d="M670.537,72.625L670.572,72.627L670.608,72.629L670.642,72.633L670.677,72.637L670.711,72.642L670.745,72.649L670.779,72.656L670.813,72.664L670.847,72.673L670.882,72.684L670.916,72.695L670.951,72.707L670.987,72.721L671.059,72.75L671.135,72.784L671.214,72.822L671.297,72.865L671.385,72.911L671.478,72.962L671.578,73.018L671.799,73.142L671.91,73.205L672.018,73.268L672.123,73.331L672.226,73.394L672.326,73.457L672.424,73.52L672.519,73.584L672.612,73.647L672.702,73.711L672.79,73.774L672.876,73.838L672.959,73.902L673.041,73.965L673.12,74.029L673.197,74.093L673.272,74.156L673.345,74.22L673.415,74.284L673.484,74.348L673.551,74.411L673.616,74.475L673.679,74.539L673.74,74.603L673.799,74.666L673.857,74.73L673.913,74.793L673.967,74.857L674.02,74.92L674.071,74.984L674.12,75.047L674.168,75.111L674.214,75.174L674.214,75.175L674.269,75.252L674.321,75.329L674.371,75.407L674.419,75.484L674.465,75.562L674.508,75.639L674.549,75.717L674.588,75.796L674.625,75.874L674.66,75.953L674.693,76.032L674.724,76.112L674.753,76.191L674.78,76.271L674.805,76.352L674.828,76.432L674.829,76.435L674.83,76.438L674.85,76.514L674.869,76.591L674.886,76.668L674.902,76.745L674.917,76.823L674.93,76.902L674.942,76.981L674.953,77.06L674.955,77.073L674.96,77.099L674.961,77.112L674.97,77.196L674.978,77.281L674.984,77.366L674.99,77.451L674.994,77.537L674.998,77.624L675,77.712L675,77.8L675,82.75L675,82.826L674.999,82.9L674.997,82.973L674.993,83.044L674.989,83.114L674.985,83.183L674.979,83.25L674.972,83.316L674.964,83.38L674.956,83.443L674.946,83.504L674.935,83.564L674.924,83.623L674.911,83.68L674.897,83.736L674.883,83.791L674.867,83.844L674.85,83.896L674.832,83.947L674.813,83.996L674.793,84.044L674.772,84.091L674.75,84.136L674.727,84.18L674.702,84.223L674.677,84.264L674.65,84.305L674.622,84.344L674.593,84.382L674.563,84.418L674.531,84.454L674.498,84.488L674.465,84.521L674.429,84.553L674.393,84.583L674.356,84.613L674.317,84.641L674.277,84.668L674.235,84.694L674.192,84.719L674.148,84.743L674.103,84.765L674.056,84.787L674.009,84.807L673.959,84.826L673.908,84.845L673.856,84.862L673.803,84.878L673.748,84.893L673.692,84.907L673.634,84.92L673.575,84.932L673.515,84.943L673.453,84.953L673.389,84.962L673.324,84.97L673.258,84.977L673.19,84.983L673.121,84.988L673.05,84.992L672.977,84.996L672.903,84.998L672.828,84.999L672.751,85L659.251,85L659.175,84.999L659.1,84.998L659.026,84.995L658.954,84.992L658.884,84.988L658.815,84.982L658.748,84.976L658.682,84.969L658.617,84.96L658.554,84.951L658.492,84.941L658.432,84.929L658.373,84.917L658.316,84.903L658.26,84.889L658.205,84.873L658.151,84.856L658.099,84.839L658.049,84.82L658,84.8L657.952,84.779L657.905,84.757L657.86,84.734L657.816,84.71L657.773,84.684L657.731,84.658L657.691,84.63L657.652,84.601L657.614,84.571L657.578,84.54L657.543,84.508L657.509,84.475L657.476,84.44L657.444,84.404L657.414,84.367L657.384,84.329L657.356,84.29L657.329,84.249L657.304,84.208L657.279,84.165L657.255,84.12L657.233,84.075L657.212,84.028L657.191,83.98L657.172,83.931L657.154,83.881L657.137,83.829L657.121,83.776L657.106,83.722L657.092,83.666L657.08,83.61L657.068,83.551L657.057,83.492L657.047,83.431L657.038,83.369L657.03,83.306L657.024,83.241L657.018,83.175L657.013,83.107L657.008,83.039L657.005,82.969L657.003,82.897L657.002,82.824L657.001,82.75L657.001,80.276L657.001,77.8L657.002,77.711L657.004,77.624L657.007,77.537L657.011,77.451L657.017,77.366L657.024,77.281L657.031,77.196L657.04,77.113L657.042,77.098L657.047,77.07L657.049,77.055L657.059,76.977L657.071,76.899L657.084,76.821L657.099,76.744L657.115,76.667L657.132,76.591L657.151,76.515L657.17,76.439L657.175,76.427L657.198,76.347L657.223,76.267L657.25,76.187L657.279,76.108L657.309,76.029L657.342,75.951L657.377,75.872L657.413,75.794L657.452,75.717L657.493,75.639L657.536,75.562L657.581,75.485L657.628,75.408L657.678,75.331L657.729,75.255L657.783,75.179L657.785,75.176L657.787,75.173L657.789,75.172L657.835,75.109L657.883,75.046L657.933,74.983L657.984,74.921L658.037,74.859L658.092,74.797L658.149,74.735L658.208,74.673L658.268,74.612L658.33,74.55L658.394,74.488L658.46,74.426L658.528,74.364L658.598,74.302L658.67,74.24L658.743,74.178L658.819,74.116L658.897,74.053L658.976,73.991L659.058,73.928L659.142,73.864L659.227,73.801L659.315,73.737L659.405,73.672L659.497,73.608L659.591,73.543L659.688,73.477L659.786,73.411L659.887,73.345L659.99,73.277L660.202,73.142L660.305,73.077L660.403,73.018L660.497,72.962L660.587,72.911L660.673,72.865L660.757,72.822L660.837,72.784L660.915,72.75L660.954,72.735L660.992,72.721L661.029,72.707L661.066,72.695L661.103,72.684L661.14,72.673L661.176,72.664L661.212,72.656L661.248,72.649L661.284,72.642L661.32,72.637L661.356,72.633L661.392,72.629L661.428,72.627L661.465,72.625L661.501,72.625L661.559,72.626L661.617,72.631L661.674,72.638L661.731,72.647L661.788,72.66L661.845,72.675L661.902,72.693L661.959,72.713L662.016,72.737L662.073,72.762L662.131,72.791L662.189,72.822L662.248,72.855L662.308,72.891L662.368,72.93L662.429,72.971L662.49,73.014L662.553,73.06L662.617,73.109L662.682,73.159L662.748,73.212L662.815,73.268L662.883,73.325L662.953,73.385L663.098,73.512L663.249,73.648L663.408,73.792L663.575,73.945L663.577,73.945L664.406,74.708L664.422,74.727L664.456,74.771L664.507,74.837L664.574,74.922L664.655,75.02L664.7,75.073L664.747,75.129L664.798,75.186L664.851,75.245L664.906,75.305L664.964,75.364L665.023,75.424L665.084,75.483L665.146,75.542L665.21,75.598L665.275,75.653L665.34,75.706L665.407,75.756L665.44,75.779L665.473,75.802L665.507,75.824L665.54,75.845L665.574,75.864L665.607,75.883L665.641,75.901L665.674,75.917L665.708,75.932L665.741,75.946L665.774,75.958L665.807,75.969L665.84,75.978L665.873,75.986L665.905,75.992L665.937,75.996L665.969,75.999L666.001,76L666.032,75.999L666.064,75.996L666.096,75.992L666.129,75.986L666.161,75.978L666.194,75.969L666.227,75.958L666.26,75.946L666.294,75.932L666.327,75.917L666.36,75.901L666.394,75.883L666.428,75.864L666.461,75.845L666.495,75.824L666.528,75.802L666.562,75.779L666.595,75.756L666.661,75.706L666.727,75.653L666.792,75.599L666.855,75.542L666.918,75.484L666.979,75.424L667.038,75.365L667.095,75.305L667.15,75.245L667.203,75.187L667.254,75.129L667.302,75.074L667.347,75.02L667.427,74.922L667.494,74.838L667.545,74.772L667.58,74.727L667.595,74.708L668.425,73.945L668.426,73.945L668.593,73.792L668.752,73.647L668.904,73.512L669.049,73.385L669.119,73.325L669.187,73.267L669.255,73.212L669.321,73.159L669.386,73.108L669.449,73.06L669.512,73.014L669.574,72.97L669.635,72.929L669.695,72.891L669.754,72.855L669.813,72.821L669.871,72.79L669.929,72.762L669.986,72.736L670.043,72.713L670.1,72.693L670.157,72.675L670.214,72.66L670.271,72.647L670.328,72.638L670.385,72.631L670.443,72.626L670.5,72.625L670.537,72.625ZM661.492,73.667L661.483,73.667L661.475,73.668L661.467,73.668L661.459,73.669L661.45,73.671L661.442,73.672L661.432,73.674L661.421,73.677L661.41,73.68L661.397,73.683L661.383,73.687L661.368,73.693L661.351,73.699L661.332,73.706L661.317,73.712L661.267,73.733L661.215,73.758L661.156,73.788L661.091,73.823L661.018,73.864L660.938,73.911L660.852,73.964L660.759,74.022L660.555,74.153L660.458,74.215L660.363,74.278L660.271,74.34L660.181,74.402L660.093,74.462L660.008,74.522L659.925,74.581L659.844,74.64L659.766,74.698L659.69,74.755L659.617,74.812L659.546,74.868L659.477,74.923L659.411,74.978L659.347,75.032L659.284,75.086L659.225,75.139L659.167,75.191L659.112,75.243L659.059,75.294L659.007,75.345L658.958,75.396L658.911,75.445L658.866,75.494L658.823,75.543L658.782,75.592L658.742,75.639L658.704,75.687L658.668,75.734L658.627,75.791L658.586,75.848L658.547,75.906L658.509,75.964L658.474,76.021L658.441,76.078L658.409,76.135L658.379,76.192L658.351,76.249L658.324,76.305L658.299,76.361L658.276,76.418L658.254,76.474L658.233,76.531L658.214,76.588L658.197,76.645L658.16,76.772L658.16,76.773L658.146,76.828L658.133,76.887L658.121,76.946L658.11,77.005L658.1,77.064L658.091,77.124L658.082,77.193L658.076,77.231L658.073,77.251L658.068,77.298L658.062,77.369L658.056,77.44L658.051,77.511L658.048,77.582L658.045,77.655L658.044,77.727L658.043,77.803L658.043,80.276L658.043,82.747L658.043,82.812L658.044,82.871L658.046,82.929L658.049,82.984L658.052,83.038L658.056,83.09L658.06,83.139L658.065,83.187L658.071,83.231L658.077,83.275L658.084,83.316L658.091,83.354L658.098,83.391L658.106,83.425L658.114,83.458L658.122,83.488L658.131,83.516L658.139,83.542L658.148,83.567L658.157,83.589L658.165,83.609L658.174,83.628L658.182,83.645L658.191,83.66L658.199,83.674L658.206,83.687L658.214,83.698L658.222,83.709L658.229,83.719L658.236,83.728L658.244,83.736L658.251,83.744L658.259,83.752L658.267,83.759L658.276,83.767L658.286,83.774L658.296,83.782L658.307,83.79L658.319,83.797L658.333,83.805L658.348,83.814L658.365,83.822L658.383,83.831L658.403,83.84L658.425,83.848L658.449,83.857L658.475,83.866L658.503,83.875L658.533,83.883L658.565,83.892L658.6,83.9L658.637,83.908L658.675,83.915L658.717,83.922L658.76,83.928L658.806,83.934L658.854,83.94L658.904,83.944L658.956,83.949L659.011,83.952L659.068,83.955L659.127,83.956L659.188,83.958L659.254,83.958L672.748,83.958L672.815,83.958L672.878,83.957L672.938,83.955L672.996,83.952L673.052,83.949L673.105,83.945L673.157,83.94L673.206,83.935L673.252,83.929L673.297,83.923L673.339,83.916L673.379,83.909L673.416,83.902L673.451,83.894L673.484,83.885L673.514,83.877L673.543,83.869L673.569,83.86L673.593,83.851L673.615,83.843L673.634,83.834L673.652,83.826L673.668,83.818L673.683,83.81L673.696,83.803L673.708,83.795L673.718,83.788L673.728,83.781L673.736,83.774L673.744,83.768L673.751,83.761L673.758,83.754L673.765,83.747L673.772,83.74L673.778,83.732L673.785,83.723L673.792,83.714L673.799,83.703L673.806,83.691L673.814,83.678L673.821,83.664L673.829,83.647L673.838,83.629L673.846,83.608L673.855,83.586L673.863,83.563L673.872,83.536L673.88,83.508L673.888,83.477L673.896,83.445L673.904,83.409L673.911,83.372L673.918,83.332L673.925,83.291L673.931,83.247L673.937,83.2L673.942,83.152L673.946,83.101L673.95,83.048L673.953,82.992L673.956,82.935L673.957,82.875L673.958,82.814L673.959,82.747L673.959,77.804L673.958,77.728L673.956,77.655L673.954,77.583L673.95,77.512L673.945,77.44L673.94,77.368L673.933,77.296L673.929,77.257L673.927,77.244L673.92,77.199L673.911,77.127L673.902,77.067L673.892,77.006L673.88,76.947L673.868,76.888L673.855,76.83L673.841,76.773L673.828,76.725L673.806,76.649L673.789,76.592L673.77,76.535L673.749,76.478L673.727,76.421L673.703,76.364L673.678,76.308L673.651,76.251L673.623,76.194L673.593,76.137L673.561,76.079L673.527,76.021L673.491,75.963L673.453,75.905L673.413,75.846L673.332,75.733L673.332,75.733L673.294,75.682L673.254,75.63L673.213,75.579L673.17,75.527L673.126,75.475L673.08,75.423L673.032,75.371L672.984,75.319L672.933,75.266L672.881,75.213L672.827,75.16L672.771,75.107L672.713,75.053L672.653,74.999L672.591,74.945L672.527,74.89L672.461,74.836L672.393,74.781L672.323,74.726L672.25,74.671L672.175,74.615L672.098,74.559L672.018,74.504L671.936,74.447L671.852,74.391L671.765,74.335L671.675,74.278L671.582,74.221L671.487,74.164L671.389,74.107L671.287,74.049L671.071,73.928L670.977,73.875L670.892,73.829L670.816,73.789L670.751,73.756L670.695,73.728L670.648,73.708L670.606,73.69L670.595,73.686L670.582,73.682L670.571,73.678L670.561,73.675L670.554,73.673L670.547,73.671L670.541,73.67L670.536,73.669L670.532,73.669L670.527,73.668L670.522,73.668L670.516,73.667L670.509,73.667L670.506,73.667L670.493,73.667L670.486,73.668L670.479,73.669L670.47,73.67L670.46,73.672L670.448,73.676L670.433,73.68L670.416,73.686L670.395,73.695L670.372,73.705L670.345,73.718L670.315,73.734L670.282,73.753L670.246,73.775L670.206,73.8L670.164,73.828L670.12,73.86L670.072,73.895L670.021,73.933L669.968,73.975L669.912,74.02L669.854,74.068L669.793,74.119L669.731,74.172L669.595,74.291L669.45,74.421L669.296,74.561L668.831,74.987L668.831,74.987L668.363,75.417L668.314,75.48L668.238,75.576L668.148,75.686L668.095,75.749L668.04,75.813L667.981,75.88L667.918,75.949L667.853,76.019L667.784,76.092L667.712,76.164L667.636,76.238L667.557,76.311L667.475,76.385L667.389,76.458L667.299,76.53L667.208,76.598L667.156,76.635L667.106,76.669L667.054,76.703L667,76.736L666.945,76.769L666.888,76.8L666.829,76.831L666.768,76.861L666.705,76.889L666.639,76.916L666.57,76.942L666.499,76.965L666.424,76.986L666.346,77.005L666.265,77.02L666.18,77.032L666.091,77.039L666.001,77.042L665.91,77.039L665.822,77.032L665.737,77.02L665.655,77.005L665.577,76.986L665.503,76.965L665.431,76.941L665.362,76.916L665.297,76.889L665.233,76.861L665.172,76.831L665.113,76.8L665.056,76.768L665.001,76.736L664.948,76.703L664.896,76.669L664.845,76.635L664.793,76.597L664.702,76.529L664.612,76.457L664.526,76.385L664.444,76.311L664.365,76.238L664.29,76.164L664.218,76.091L664.149,76.019L664.083,75.949L664.021,75.88L663.962,75.813L663.906,75.749L663.853,75.685L663.763,75.575L663.688,75.48L663.638,75.416L663.171,74.987L663.17,74.987L662.706,74.562L662.551,74.421L662.407,74.292L662.271,74.173L662.209,74.12L662.148,74.068L662.09,74.02L662.034,73.975L661.981,73.934L661.931,73.896L661.883,73.86L661.838,73.829L661.796,73.801L661.756,73.775L661.72,73.753L661.687,73.734L661.657,73.718L661.63,73.705L661.607,73.695L661.586,73.687L661.569,73.68L661.554,73.676L661.542,73.672L661.531,73.67L661.523,73.669L661.515,73.668L661.508,73.667L661.495,73.667L661.492,73.667ZM680.717,74.837L680.761,74.839L680.805,74.843L680.849,74.848L680.892,74.854L680.936,74.861L680.979,74.87L681.022,74.879L681.065,74.89L681.107,74.903L681.15,74.916L681.192,74.931L681.234,74.947L681.275,74.964L681.317,74.983L681.358,75.003L681.399,75.024L681.44,75.047L681.537,75.103L681.632,75.161L681.724,75.219L681.814,75.278L681.902,75.339L681.987,75.4L682.07,75.462L682.151,75.524L682.23,75.588L682.307,75.652L682.382,75.717L682.454,75.783L682.524,75.849L682.593,75.916L682.659,75.984L682.724,76.052L682.786,76.121L682.846,76.19L682.905,76.26L682.962,76.33L683.017,76.4L683.07,76.471L683.121,76.543L683.17,76.614L683.218,76.686L683.264,76.758L683.308,76.831L683.351,76.903L683.392,76.976L683.431,77.049L683.469,77.121L683.505,77.194L683.54,77.267L683.573,77.34L683.605,77.413L683.635,77.486L683.664,77.559L683.691,77.632L683.717,77.704L683.742,77.777L683.765,77.849L683.788,77.921L683.808,77.992L683.828,78.064L683.846,78.134L683.863,78.205L683.879,78.275L683.894,78.345L683.908,78.414L683.921,78.483L683.932,78.551L683.943,78.619L683.953,78.686L683.961,78.752L683.969,78.818L683.976,78.883L683.982,78.947L683.987,79.011L683.991,79.074L683.994,79.136L683.998,79.257L684,79.375L684,80.501L684.001,81.269L684,81.625L683.999,81.701L683.998,81.775L683.996,81.848L683.993,81.919L683.989,81.989L683.985,82.058L683.979,82.125L683.973,82.191L683.966,82.255L683.957,82.318L683.948,82.379L683.938,82.439L683.927,82.498L683.915,82.555L683.902,82.611L683.888,82.666L683.872,82.719L683.856,82.771L683.839,82.821L683.821,82.871L683.801,82.918L683.781,82.965L683.759,83.011L683.737,83.055L683.713,83.097L683.688,83.139L683.662,83.179L683.634,83.218L683.606,83.256L683.576,83.293L683.545,83.328L683.513,83.362L683.479,83.395L683.445,83.427L683.409,83.458L683.372,83.487L683.333,83.516L683.293,83.543L683.252,83.569L683.209,83.594L683.166,83.618L683.12,83.64L683.074,83.662L683.026,83.682L682.976,83.702L682.925,83.72L682.873,83.737L682.819,83.753L682.764,83.768L682.707,83.782L682.649,83.795L682.589,83.807L682.528,83.818L682.465,83.828L682.401,83.837L682.335,83.845L682.268,83.853L682.199,83.859L682.128,83.864L682.056,83.868L681.982,83.871L681.906,83.873L681.829,83.875L681.75,83.875L677.25,83.875L677.25,77.125L678.375,76L678.486,75.904L678.596,75.811L678.705,75.722L678.813,75.637L678.919,75.557L679.025,75.48L679.13,75.407L679.234,75.339L679.285,75.306L679.336,75.274L679.387,75.244L679.438,75.214L679.488,75.186L679.538,75.158L679.588,75.132L679.638,75.107L679.688,75.082L679.737,75.059L679.786,75.037L679.835,75.017L679.883,74.997L679.931,74.978L679.979,74.961L680.027,74.944L680.075,74.929L680.122,74.915L680.169,74.902L680.216,74.89L680.263,74.879L680.309,74.87L680.355,74.861L680.401,74.854L680.447,74.848L680.493,74.843L680.538,74.84L680.583,74.837L680.628,74.836L680.672,74.836L680.717,74.837ZM651.373,74.836L651.418,74.837L651.463,74.84L651.509,74.843L651.554,74.848L651.6,74.854L651.646,74.861L651.692,74.87L651.739,74.879L651.785,74.89L651.832,74.902L651.879,74.915L651.927,74.929L651.974,74.944L652.022,74.961L652.07,74.978L652.118,74.997L652.167,75.016L652.216,75.037L652.265,75.059L652.314,75.082L652.363,75.107L652.413,75.132L652.463,75.158L652.513,75.186L652.564,75.214L652.614,75.244L652.665,75.274L652.716,75.306L652.768,75.339L652.871,75.407L652.976,75.48L653.082,75.557L653.189,75.637L653.296,75.722L653.405,75.811L653.515,75.903L653.626,76L654.751,77.125L654.751,83.875L650.251,83.875L650.172,83.875L650.095,83.873L650.02,83.871L649.946,83.868L649.873,83.863L649.803,83.858L649.734,83.852L649.666,83.845L649.6,83.837L649.536,83.828L649.473,83.818L649.412,83.807L649.352,83.795L649.294,83.782L649.237,83.768L649.182,83.753L649.128,83.737L649.076,83.72L649.025,83.701L648.976,83.682L648.928,83.662L648.881,83.64L648.836,83.617L648.792,83.594L648.749,83.569L648.708,83.543L648.668,83.516L648.63,83.487L648.592,83.458L648.556,83.427L648.522,83.395L648.488,83.362L648.456,83.328L648.425,83.293L648.395,83.256L648.367,83.218L648.34,83.179L648.313,83.139L648.288,83.097L648.265,83.054L648.242,83.01L648.22,82.965L648.2,82.918L648.181,82.87L648.162,82.821L648.145,82.771L648.129,82.719L648.114,82.665L648.1,82.611L648.086,82.555L648.074,82.498L648.063,82.439L648.053,82.379L648.044,82.318L648.036,82.255L648.028,82.191L648.022,82.125L648.016,82.058L648.012,81.989L648.008,81.919L648.005,81.848L648.003,81.775L648.002,81.701L648.001,81.625L648.001,81.269L648.001,80.501L648.001,79.375L648.003,79.257L648.007,79.136L648.01,79.074L648.015,79.011L648.02,78.947L648.025,78.883L648.032,78.818L648.04,78.752L648.049,78.686L648.058,78.619L648.069,78.551L648.08,78.483L648.093,78.414L648.107,78.345L648.122,78.275L648.138,78.205L648.155,78.135L648.173,78.064L648.193,77.992L648.214,77.921L648.236,77.849L648.259,77.777L648.284,77.704L648.31,77.632L648.337,77.559L648.366,77.486L648.396,77.414L648.428,77.341L648.461,77.268L648.496,77.195L648.532,77.122L648.57,77.049L648.609,76.976L648.65,76.903L648.693,76.831L648.737,76.758L648.783,76.686L648.831,76.614L648.88,76.543L648.932,76.472L648.985,76.401L649.039,76.33L649.096,76.26L649.155,76.19L649.215,76.121L649.278,76.052L649.342,75.984L649.408,75.917L649.477,75.85L649.547,75.783L649.62,75.717L649.694,75.652L649.771,75.588L649.85,75.525L649.931,75.462L650.014,75.4L650.099,75.339L650.187,75.278L650.277,75.219L650.369,75.161L650.464,75.103L650.561,75.047L650.602,75.024L650.643,75.003L650.684,74.983L650.726,74.964L650.767,74.947L650.809,74.931L650.852,74.916L650.894,74.903L650.936,74.89L650.979,74.879L651.022,74.87L651.065,74.861L651.109,74.854L651.152,74.848L651.196,74.843L651.24,74.839L651.284,74.837L651.329,74.836L651.373,74.836ZM680.643,75.877L680.626,75.878L680.608,75.879L680.59,75.88L680.57,75.882L680.55,75.885L680.529,75.888L680.507,75.892L680.484,75.897L680.46,75.903L680.435,75.909L680.41,75.916L680.383,75.924L680.356,75.933L680.327,75.942L680.298,75.953L680.267,75.965L680.236,75.978L680.204,75.991L680.171,76.006L680.137,76.022L680.103,76.039L680.068,76.057L680.031,76.076L679.994,76.096L679.956,76.118L679.918,76.14L679.878,76.164L679.838,76.189L679.8,76.213L679.714,76.27L679.628,76.329L679.54,76.394L679.449,76.462L679.356,76.535L679.261,76.613L679.163,76.695L679.086,76.762L678.295,77.554L678.296,77.756L678.292,77.758L678.292,82.834L681.747,82.834L681.817,82.833L681.881,82.832L681.943,82.83L682.003,82.828L682.06,82.824L682.115,82.82L682.168,82.816L682.218,82.81L682.266,82.805L682.311,82.798L682.354,82.791L682.395,82.784L682.432,82.777L682.468,82.769L682.501,82.76L682.532,82.752L682.56,82.743L682.586,82.735L682.61,82.726L682.632,82.718L682.651,82.709L682.669,82.701L682.684,82.694L682.698,82.686L682.711,82.679L682.722,82.672L682.731,82.665L682.74,82.659L682.748,82.653L682.755,82.647L682.761,82.641L682.767,82.635L682.773,82.628L682.779,82.621L682.785,82.614L682.791,82.607L682.797,82.598L682.804,82.587L682.811,82.576L682.818,82.563L682.826,82.548L682.833,82.532L682.841,82.514L682.849,82.494L682.858,82.472L682.866,82.448L682.874,82.422L682.882,82.393L682.89,82.362L682.898,82.328L682.905,82.293L682.913,82.255L682.92,82.215L682.926,82.173L682.932,82.128L682.937,82.081L682.942,82.032L682.946,81.98L682.95,81.926L682.953,81.871L682.955,81.812L682.957,81.752L682.958,81.69L682.958,81.621L682.959,81.268L682.959,80.501L682.958,79.381L682.957,79.282L682.953,79.183L682.951,79.137L682.948,79.086L682.944,79.035L682.939,78.984L682.934,78.932L682.927,78.88L682.921,78.827L682.913,78.773L682.904,78.719L682.895,78.665L682.885,78.611L682.874,78.555L682.862,78.5L682.85,78.444L682.836,78.388L682.821,78.332L682.806,78.276L682.789,78.219L682.772,78.162L682.754,78.105L682.734,78.049L682.714,77.992L682.692,77.935L682.67,77.878L682.646,77.821L682.621,77.764L682.595,77.706L682.568,77.649L682.54,77.593L682.511,77.536L682.48,77.479L682.448,77.423L682.415,77.367L682.381,77.31L682.345,77.254L682.308,77.198L682.269,77.143L682.229,77.087L682.188,77.032L682.146,76.977L682.101,76.923L682.056,76.868L682.008,76.814L681.959,76.76L681.909,76.706L681.857,76.653L681.802,76.6L681.747,76.548L681.689,76.496L681.63,76.444L681.569,76.393L681.506,76.342L681.44,76.291L681.373,76.241L681.304,76.192L681.233,76.143L681.159,76.094L681.083,76.046L681.005,75.999L680.927,75.953L680.909,75.943L680.893,75.935L680.877,75.927L680.861,75.921L680.846,75.914L680.832,75.909L680.818,75.904L680.804,75.899L680.79,75.895L680.776,75.892L680.762,75.889L680.749,75.886L680.735,75.883L680.72,75.881L680.706,75.88L680.691,75.879L680.676,75.878L680.66,75.877L680.643,75.877ZM651.326,75.878L651.31,75.879L651.295,75.88L651.281,75.881L651.267,75.883L651.253,75.886L651.239,75.889L651.225,75.892L651.211,75.895L651.197,75.899L651.183,75.904L651.169,75.909L651.154,75.914L651.14,75.921L651.124,75.927L651.108,75.935L651.092,75.943L651.074,75.953L650.996,75.999L650.918,76.046L650.842,76.094L650.769,76.143L650.697,76.192L650.628,76.241L650.561,76.291L650.496,76.342L650.432,76.393L650.371,76.444L650.312,76.496L650.254,76.548L650.199,76.6L650.145,76.653L650.093,76.707L650.042,76.76L649.993,76.814L649.946,76.868L649.9,76.923L649.856,76.977L649.813,77.032L649.772,77.087L649.732,77.143L649.693,77.198L649.656,77.254L649.621,77.31L649.586,77.367L649.553,77.423L649.521,77.48L649.491,77.536L649.461,77.593L649.433,77.65L649.406,77.707L649.38,77.764L649.355,77.821L649.332,77.878L649.309,77.935L649.288,77.992L649.267,78.049L649.248,78.106L649.229,78.163L649.212,78.219L649.195,78.276L649.18,78.332L649.165,78.388L649.152,78.444L649.139,78.5L649.127,78.556L649.116,78.61L649.106,78.665L649.097,78.72L649.088,78.774L649.081,78.827L649.074,78.88L649.068,78.932L649.062,78.984L649.058,79.035L649.054,79.086L649.05,79.137L649.048,79.183L649.044,79.282L649.043,79.381L649.042,80.501L649.042,81.268L649.043,81.621L649.043,81.69L649.044,81.752L649.046,81.812L649.048,81.87L649.051,81.926L649.055,81.98L649.059,82.032L649.064,82.081L649.07,82.127L649.075,82.173L649.082,82.215L649.089,82.255L649.096,82.293L649.103,82.328L649.111,82.362L649.119,82.393L649.127,82.422L649.135,82.447L649.144,82.472L649.152,82.494L649.16,82.514L649.168,82.532L649.176,82.548L649.183,82.562L649.19,82.575L649.197,82.587L649.204,82.597L649.21,82.606L649.216,82.614L649.222,82.622L649.228,82.628L649.234,82.635L649.24,82.641L649.247,82.647L649.254,82.653L649.261,82.659L649.27,82.665L649.28,82.672L649.291,82.679L649.303,82.686L649.317,82.693L649.332,82.701L649.35,82.709L649.37,82.718L649.391,82.726L649.415,82.735L649.441,82.743L649.469,82.752L649.5,82.76L649.533,82.768L649.569,82.776L649.607,82.784L649.647,82.791L649.69,82.798L649.735,82.804L649.783,82.81L649.833,82.815L649.886,82.82L649.941,82.824L649.998,82.827L650.058,82.83L650.12,82.832L650.185,82.833L650.254,82.833L653.709,82.833L653.709,77.758L653.705,77.756L653.707,77.553L652.916,76.762L652.838,76.695L652.741,76.613L652.645,76.535L652.552,76.462L652.462,76.393L652.373,76.329L652.287,76.27L652.201,76.213L652.163,76.188L652.123,76.164L652.084,76.14L652.045,76.118L652.007,76.096L651.97,76.076L651.934,76.057L651.898,76.039L651.864,76.022L651.83,76.006L651.797,75.991L651.765,75.978L651.734,75.965L651.704,75.953L651.674,75.943L651.646,75.933L651.618,75.924L651.592,75.916L651.566,75.909L651.541,75.903L651.517,75.897L651.495,75.892L651.472,75.888L651.451,75.885L651.431,75.882L651.412,75.88L651.393,75.879L651.375,75.878L651.358,75.877L651.342,75.877L651.326,75.878ZM654.757,76.893L654.758,76.896L654.759,76.91L654.76,76.933L654.762,76.993L654.762,77.059L654.76,77.087L654.758,77.109L654.757,77.117L654.755,77.123L654.753,77.125L654.752,77.126L654.751,77.125L654.752,76.972L654.753,76.928L654.755,76.903L654.756,76.892L654.756,76.892L654.757,76.893ZM677.245,76.892L677.247,76.903L677.248,76.928L677.249,76.972L677.25,77.125L677.249,77.126L677.248,77.125L677.246,77.123L677.244,77.117L677.243,77.109L677.241,77.087L677.24,77.059L677.239,76.993L677.241,76.933L677.242,76.91L677.244,76.896L677.244,76.893L677.245,76.892L677.245,76.892ZM654.836,63.611L654.911,63.614L654.986,63.618L655.061,63.624L655.136,63.632L655.212,63.642L655.287,63.653L655.362,63.666L655.438,63.68L655.513,63.697L655.588,63.715L655.663,63.735L655.737,63.756L655.811,63.78L655.885,63.805L655.959,63.831L656.032,63.86L656.104,63.89L656.176,63.922L656.248,63.956L656.318,63.992L656.388,64.029L656.458,64.068L656.527,64.109L656.594,64.152L656.661,64.196L656.727,64.242L656.793,64.29L656.857,64.34L656.92,64.391L656.982,64.445L657.043,64.5L657.103,64.556L657.161,64.615L657.219,64.675L657.275,64.737L657.329,64.801L657.383,64.867L657.435,64.935L657.485,65.004L657.534,65.075L657.581,65.148L657.627,65.223L657.671,65.299L657.713,65.377L657.754,65.458L657.792,65.54L657.829,65.623L657.864,65.709L657.897,65.796L657.929,65.885L657.958,65.976L657.985,66.069L658.01,66.164L658.032,66.26L658.053,66.358L658.071,66.459L658.087,66.561L658.101,66.664L658.112,66.77L658.121,66.877L658.127,66.987L658.131,67.098L658.132,67.211L658.132,69.011L658.132,69.068L658.131,69.124L658.128,69.18L658.125,69.235L658.121,69.29L658.117,69.344L658.111,69.398L658.105,69.452L658.097,69.505L658.089,69.557L658.08,69.609L658.071,69.661L658.06,69.712L658.049,69.763L658.037,69.813L658.025,69.863L658.011,69.912L657.997,69.961L657.982,70.01L657.967,70.058L657.951,70.105L657.934,70.152L657.917,70.199L657.899,70.245L657.861,70.336L657.82,70.425L657.778,70.513L657.733,70.598L657.685,70.682L657.636,70.764L657.585,70.844L657.532,70.922L657.478,70.999L657.421,71.073L657.363,71.146L657.304,71.217L657.243,71.287L657.181,71.354L657.117,71.42L657.053,71.484L656.987,71.546L656.921,71.606L656.853,71.665L656.785,71.722L656.716,71.777L656.647,71.83L656.577,71.881L656.507,71.931L656.437,71.979L656.366,72.025L656.295,72.069L656.224,72.112L656.154,72.153L656.083,72.192L656.013,72.229L655.943,72.265L655.873,72.299L655.804,72.331L655.736,72.361L655.668,72.39L655.602,72.417L655.536,72.442L655.471,72.465L655.407,72.487L655.345,72.506L655.283,72.525L655.223,72.541L655.165,72.556L655.108,72.568L655.053,72.58L654.999,72.589L654.948,72.597L654.898,72.603L654.85,72.607L654.804,72.61L654.761,72.611L654.72,72.61L654.676,72.607L654.63,72.603L654.582,72.597L654.532,72.589L654.48,72.58L654.426,72.568L654.371,72.556L654.314,72.541L654.255,72.525L654.194,72.506L654.133,72.487L654.07,72.465L654.005,72.442L653.94,72.417L653.874,72.39L653.807,72.361L653.739,72.331L653.67,72.299L653.601,72.265L653.531,72.229L653.46,72.192L653.39,72.153L653.319,72.112L653.248,72.069L653.177,72.025L653.106,71.979L653.035,71.931L652.964,71.881L652.894,71.83L652.824,71.777L652.755,71.722L652.686,71.665L652.618,71.606L652.551,71.546L652.485,71.484L652.42,71.42L652.356,71.354L652.293,71.287L652.231,71.217L652.171,71.146L652.112,71.073L652.055,70.999L651.999,70.922L651.946,70.844L651.894,70.764L651.844,70.682L651.796,70.598L651.75,70.513L651.707,70.425L651.666,70.336L651.646,70.291L651.627,70.245L651.609,70.199L651.591,70.152L651.574,70.105L651.558,70.058L651.542,70.01L651.527,69.961L651.513,69.912L651.499,69.863L651.486,69.813L651.474,69.763L651.463,69.712L651.452,69.661L651.443,69.609L651.434,69.557L651.425,69.505L651.418,69.452L651.411,69.398L651.406,69.344L651.401,69.29L651.397,69.235L651.394,69.18L651.391,69.124L651.39,69.068L651.389,69.011L651.389,67.211L651.391,67.098L651.395,66.987L651.401,66.877L651.41,66.77L651.422,66.664L651.436,66.561L651.452,66.459L651.471,66.358L651.492,66.26L651.516,66.164L651.541,66.069L651.569,65.976L651.599,65.885L651.63,65.796L651.664,65.709L651.7,65.623L651.738,65.54L651.777,65.458L651.819,65.377L651.862,65.299L651.907,65.223L651.953,65.148L652.001,65.075L652.051,65.004L652.102,64.935L652.155,64.867L652.209,64.801L652.264,64.737L652.321,64.675L652.379,64.615L652.438,64.556L652.499,64.5L652.56,64.445L652.623,64.391L652.686,64.34L652.751,64.29L652.817,64.242L652.883,64.196L652.95,64.152L653.018,64.109L653.087,64.068L653.157,64.029L653.227,63.992L653.298,63.956L653.369,63.922L653.441,63.89L653.513,63.86L653.585,63.831L653.658,63.805L653.732,63.78L653.805,63.756L653.879,63.735L653.953,63.715L654.027,63.697L654.101,63.68L654.175,63.666L654.249,63.653L654.322,63.642L654.396,63.632L654.47,63.624L654.543,63.618L654.616,63.614L654.689,63.611L654.761,63.611L654.836,63.611ZM677.531,63.611L677.606,63.614L677.681,63.618L677.757,63.624L677.832,63.632L677.907,63.642L677.983,63.653L678.058,63.666L678.133,63.68L678.209,63.697L678.284,63.715L678.358,63.735L678.433,63.756L678.507,63.78L678.581,63.805L678.654,63.831L678.727,63.86L678.8,63.89L678.872,63.922L678.943,63.956L679.014,63.992L679.084,64.029L679.154,64.068L679.222,64.109L679.29,64.152L679.357,64.196L679.423,64.242L679.488,64.29L679.553,64.34L679.616,64.391L679.678,64.445L679.739,64.5L679.799,64.556L679.857,64.615L679.914,64.675L679.97,64.737L680.025,64.801L680.078,64.867L680.13,64.935L680.181,65.004L680.23,65.075L680.277,65.148L680.322,65.223L680.366,65.299L680.409,65.377L680.449,65.458L680.488,65.54L680.525,65.623L680.56,65.709L680.593,65.796L680.624,65.885L680.653,65.976L680.68,66.069L680.705,66.164L680.728,66.26L680.748,66.358L680.767,66.459L680.783,66.561L680.796,66.664L680.808,66.77L680.817,66.877L680.823,66.987L680.827,67.098L680.828,67.211L680.828,69.011L680.828,69.068L680.826,69.124L680.824,69.18L680.821,69.235L680.817,69.29L680.812,69.344L680.807,69.398L680.8,69.452L680.793,69.505L680.785,69.557L680.776,69.609L680.766,69.661L680.756,69.712L680.745,69.763L680.733,69.813L680.72,69.863L680.707,69.912L680.693,69.961L680.678,70.01L680.663,70.058L680.647,70.105L680.63,70.152L680.612,70.199L680.594,70.245L680.556,70.336L680.516,70.425L680.473,70.513L680.428,70.598L680.381,70.682L680.332,70.764L680.281,70.844L680.228,70.922L680.173,70.999L680.117,71.073L680.059,71.146L679.999,71.217L679.938,71.287L679.876,71.354L679.813,71.42L679.748,71.484L679.683,71.546L679.616,71.606L679.549,71.665L679.481,71.722L679.412,71.777L679.343,71.83L679.273,71.881L679.203,71.931L679.132,71.979L679.061,72.025L678.991,72.069L678.92,72.112L678.849,72.153L678.779,72.192L678.708,72.229L678.638,72.265L678.569,72.299L678.5,72.331L678.432,72.361L678.364,72.39L678.297,72.417L678.231,72.442L678.167,72.465L678.103,72.487L678.04,72.506L677.979,72.525L677.919,72.541L677.86,72.556L677.804,72.568L677.748,72.58L677.695,72.589L677.643,72.597L677.593,72.603L677.546,72.607L677.5,72.61L677.457,72.611L677.415,72.61L677.372,72.607L677.326,72.603L677.278,72.597L677.228,72.589L677.176,72.58L677.122,72.568L677.066,72.556L677.009,72.541L676.95,72.525L676.89,72.506L676.828,72.487L676.765,72.465L676.701,72.442L676.636,72.417L676.569,72.39L676.502,72.361L676.434,72.331L676.366,72.299L676.296,72.265L676.226,72.229L676.156,72.192L676.085,72.153L676.015,72.112L675.944,72.069L675.872,72.025L675.801,71.979L675.731,71.931L675.66,71.881L675.59,71.83L675.52,71.777L675.451,71.722L675.382,71.665L675.314,71.606L675.247,71.546L675.181,71.484L675.115,71.42L675.051,71.354L674.988,71.287L674.927,71.217L674.867,71.146L674.808,71.073L674.751,70.999L674.695,70.922L674.641,70.844L674.59,70.764L674.54,70.682L674.492,70.598L674.446,70.513L674.403,70.425L674.362,70.336L674.342,70.291L674.323,70.245L674.305,70.199L674.287,70.152L674.27,70.105L674.254,70.058L674.238,70.01L674.223,69.961L674.209,69.912L674.195,69.863L674.182,69.813L674.17,69.763L674.159,69.712L674.148,69.661L674.138,69.609L674.129,69.557L674.121,69.505L674.114,69.452L674.107,69.398L674.101,69.344L674.097,69.29L674.093,69.235L674.089,69.18L674.087,69.124L674.086,69.068L674.085,69.011L674.085,67.211L674.087,67.098L674.091,66.987L674.097,66.877L674.106,66.77L674.118,66.664L674.132,66.561L674.148,66.459L674.167,66.358L674.188,66.26L674.211,66.164L674.237,66.069L674.265,65.976L674.294,65.885L674.326,65.796L674.36,65.709L674.396,65.623L674.434,65.54L674.473,65.458L674.514,65.377L674.558,65.299L674.602,65.223L674.649,65.148L674.697,65.075L674.747,65.004L674.798,64.935L674.85,64.867L674.905,64.801L674.96,64.737L675.017,64.675L675.075,64.615L675.134,64.556L675.194,64.5L675.256,64.445L675.319,64.391L675.382,64.34L675.447,64.29L675.512,64.242L675.579,64.196L675.646,64.152L675.714,64.109L675.783,64.068L675.853,64.029L675.923,63.992L675.993,63.956L676.065,63.922L676.136,63.89L676.209,63.86L676.281,63.831L676.354,63.805L676.427,63.78L676.501,63.756L676.575,63.735L676.648,63.715L676.722,63.697L676.796,63.68L676.87,63.666L676.944,63.653L677.018,63.642L677.092,63.632L677.165,63.624L677.239,63.618L677.312,63.614L677.384,63.611L677.457,63.611L677.531,63.611ZM654.713,64.653L654.665,64.655L654.616,64.657L654.567,64.662L654.517,64.667L654.467,64.673L654.416,64.681L654.365,64.69L654.314,64.7L654.263,64.711L654.212,64.724L654.161,64.738L654.109,64.753L654.058,64.769L654.007,64.786L653.956,64.805L653.905,64.825L653.855,64.846L653.805,64.869L653.755,64.892L653.706,64.917L653.657,64.943L653.609,64.97L653.561,64.999L653.514,65.028L653.467,65.059L653.421,65.091L653.376,65.124L653.331,65.158L653.288,65.193L653.245,65.23L653.203,65.267L653.161,65.306L653.121,65.346L653.081,65.388L653.042,65.43L653.004,65.474L652.968,65.518L652.932,65.564L652.897,65.612L652.863,65.66L652.83,65.71L652.798,65.761L652.767,65.814L652.738,65.868L652.709,65.923L652.682,65.98L652.656,66.038L652.631,66.098L652.607,66.159L652.584,66.222L652.563,66.287L652.543,66.353L652.525,66.422L652.508,66.492L652.493,66.564L652.479,66.637L652.467,66.713L652.456,66.791L652.447,66.871L652.44,66.952L652.435,67.036L652.432,67.123L652.431,67.217L652.431,69.007L652.431,69.05L652.432,69.09L652.434,69.129L652.436,69.167L652.439,69.205L652.442,69.242L652.446,69.279L652.451,69.316L652.456,69.352L652.461,69.388L652.468,69.423L652.474,69.459L652.481,69.493L652.489,69.527L652.497,69.561L652.506,69.595L652.515,69.628L652.525,69.661L652.535,69.694L652.545,69.726L652.557,69.758L652.568,69.79L652.58,69.822L652.592,69.853L652.605,69.883L652.617,69.911L652.647,69.975L652.677,70.035L652.708,70.095L652.741,70.152L652.776,70.21L652.813,70.266L652.851,70.322L652.89,70.376L652.931,70.43L652.974,70.483L653.018,70.535L653.063,70.585L653.11,70.635L653.157,70.684L653.206,70.732L653.256,70.779L653.307,70.824L653.358,70.869L653.411,70.912L653.464,70.954L653.518,70.995L653.572,71.035L653.626,71.074L653.681,71.111L653.737,71.147L653.792,71.181L653.847,71.214L653.902,71.246L653.957,71.276L654.011,71.305L654.065,71.333L654.118,71.359L654.171,71.383L654.222,71.406L654.273,71.427L654.322,71.447L654.37,71.466L654.417,71.483L654.461,71.498L654.504,71.512L654.544,71.524L654.582,71.534L654.618,71.544L654.65,71.551L654.68,71.557L654.705,71.562L654.727,71.565L654.744,71.567L654.755,71.568L654.762,71.569L654.765,71.569L654.774,71.568L654.789,71.567L654.808,71.564L654.831,71.561L654.859,71.556L654.889,71.55L654.923,71.542L654.959,71.533L654.998,71.523L655.039,71.51L655.083,71.497L655.128,71.481L655.174,71.465L655.222,71.446L655.272,71.427L655.322,71.405L655.373,71.382L655.426,71.358L655.479,71.332L655.532,71.305L655.586,71.276L655.641,71.246L655.695,71.215L655.75,71.182L655.804,71.148L655.859,71.112L655.913,71.075L655.967,71.037L656.021,70.998L656.074,70.957L656.126,70.915L656.178,70.872L656.229,70.827L656.279,70.782L656.328,70.736L656.376,70.688L656.423,70.639L656.468,70.59L656.513,70.539L656.556,70.488L656.598,70.435L656.638,70.382L656.677,70.327L656.715,70.272L656.75,70.216L656.785,70.158L656.817,70.1L656.848,70.041L656.878,69.981L656.905,69.92L656.933,69.854L656.944,69.827L656.956,69.795L656.967,69.763L656.978,69.731L656.988,69.698L656.998,69.666L657.008,69.633L657.017,69.599L657.025,69.565L657.034,69.531L657.041,69.497L657.048,69.462L657.055,69.426L657.061,69.391L657.066,69.355L657.071,69.318L657.076,69.282L657.08,69.244L657.083,69.206L657.086,69.168L657.088,69.13L657.089,69.091L657.09,69.051L657.091,69.007L657.091,67.217L657.09,67.122L657.087,67.035L657.082,66.95L657.075,66.868L657.066,66.788L657.056,66.709L657.044,66.633L657.031,66.559L657.015,66.486L656.999,66.416L656.981,66.348L656.961,66.281L656.94,66.215L656.918,66.152L656.895,66.091L656.871,66.031L656.845,65.972L656.818,65.916L656.79,65.86L656.761,65.806L656.731,65.754L656.7,65.703L656.667,65.654L656.634,65.605L656.6,65.558L656.565,65.513L656.529,65.468L656.492,65.425L656.454,65.383L656.415,65.342L656.376,65.303L656.335,65.264L656.294,65.227L656.252,65.191L656.209,65.156L656.165,65.122L656.121,65.089L656.076,65.058L656.03,65.027L655.983,64.998L655.936,64.97L655.888,64.943L655.84,64.917L655.791,64.892L655.741,64.869L655.691,64.847L655.641,64.826L655.59,64.806L655.539,64.787L655.488,64.77L655.436,64.753L655.384,64.738L655.332,64.725L655.28,64.712L655.227,64.701L655.175,64.69L655.123,64.681L655.07,64.674L655.018,64.667L654.966,64.662L654.914,64.658L654.863,64.655L654.812,64.653L654.761,64.652L654.713,64.653ZM677.409,64.653L677.361,64.655L677.312,64.657L677.263,64.662L677.213,64.667L677.163,64.673L677.112,64.681L677.061,64.69L677.01,64.7L676.959,64.711L676.908,64.724L676.856,64.738L676.805,64.753L676.754,64.769L676.703,64.786L676.652,64.805L676.601,64.825L676.551,64.846L676.501,64.869L676.451,64.892L676.402,64.917L676.353,64.943L676.304,64.97L676.257,64.998L676.21,65.028L676.163,65.059L676.117,65.091L676.072,65.124L676.027,65.158L675.984,65.193L675.94,65.23L675.898,65.267L675.857,65.306L675.817,65.346L675.777,65.388L675.738,65.43L675.7,65.474L675.664,65.518L675.628,65.564L675.593,65.612L675.559,65.66L675.526,65.71L675.494,65.761L675.463,65.814L675.434,65.868L675.405,65.923L675.378,65.98L675.351,66.038L675.326,66.098L675.303,66.159L675.28,66.222L675.259,66.287L675.239,66.354L675.221,66.422L675.204,66.492L675.188,66.564L675.175,66.638L675.162,66.713L675.152,66.791L675.143,66.871L675.136,66.953L675.131,67.036L675.128,67.122L675.127,67.217L675.127,69.007L675.127,69.051L675.128,69.09L675.13,69.128L675.132,69.167L675.135,69.205L675.138,69.242L675.142,69.279L675.147,69.316L675.152,69.352L675.157,69.388L675.163,69.423L675.17,69.458L675.177,69.493L675.185,69.527L675.193,69.561L675.202,69.595L675.211,69.628L675.22,69.661L675.231,69.694L675.241,69.726L675.252,69.758L675.264,69.79L675.276,69.821L675.288,69.853L675.301,69.884L675.313,69.911L675.343,69.976L675.372,70.035L675.404,70.094L675.437,70.152L675.472,70.21L675.508,70.266L675.546,70.322L675.586,70.376L675.627,70.43L675.67,70.483L675.714,70.535L675.759,70.585L675.805,70.635L675.853,70.684L675.902,70.732L675.952,70.779L676.002,70.824L676.054,70.869L676.106,70.912L676.159,70.954L676.213,70.995L676.268,71.035L676.322,71.074L676.377,71.111L676.432,71.147L676.488,71.181L676.543,71.214L676.598,71.246L676.653,71.276L676.707,71.305L676.761,71.333L676.814,71.359L676.867,71.383L676.918,71.406L676.969,71.427L677.018,71.447L677.066,71.466L677.112,71.483L677.157,71.498L677.199,71.512L677.24,71.524L677.278,71.534L677.313,71.544L677.346,71.551L677.375,71.557L677.401,71.562L677.422,71.565L677.439,71.567L677.451,71.568L677.457,71.569L677.46,71.569L677.47,71.568L677.484,71.567L677.503,71.564L677.527,71.561L677.554,71.556L677.585,71.55L677.619,71.542L677.655,71.533L677.694,71.523L677.735,71.51L677.778,71.497L677.823,71.481L677.87,71.465L677.918,71.446L677.967,71.427L678.017,71.405L678.069,71.382L678.121,71.358L678.174,71.332L678.228,71.305L678.282,71.276L678.336,71.246L678.391,71.215L678.445,71.182L678.5,71.148L678.555,71.112L678.609,71.075L678.663,71.037L678.716,70.998L678.769,70.957L678.822,70.915L678.873,70.872L678.924,70.827L678.974,70.782L679.023,70.736L679.071,70.688L679.118,70.639L679.164,70.59L679.208,70.539L679.252,70.488L679.293,70.435L679.334,70.382L679.373,70.327L679.41,70.272L679.446,70.216L679.48,70.158L679.513,70.1L679.544,70.041L679.573,69.981L679.601,69.92L679.628,69.855L679.639,69.827L679.651,69.795L679.663,69.763L679.674,69.731L679.684,69.699L679.694,69.666L679.704,69.632L679.713,69.599L679.721,69.565L679.729,69.531L679.737,69.497L679.744,69.462L679.75,69.426L679.756,69.391L679.762,69.355L679.767,69.318L679.771,69.282L679.775,69.244L679.779,69.206L679.781,69.168L679.784,69.13L679.785,69.091L679.786,69.051L679.786,69.007L679.786,67.217L679.785,67.122L679.782,67.035L679.777,66.951L679.771,66.868L679.762,66.788L679.752,66.709L679.74,66.633L679.726,66.559L679.711,66.486L679.694,66.416L679.676,66.347L679.657,66.28L679.636,66.215L679.614,66.152L679.591,66.091L679.566,66.031L679.54,65.972L679.514,65.916L679.486,65.86L679.457,65.806L679.426,65.754L679.395,65.703L679.363,65.654L679.33,65.605L679.296,65.558L679.261,65.512L679.225,65.468L679.188,65.425L679.15,65.383L679.111,65.342L679.071,65.302L679.031,65.264L678.99,65.227L678.947,65.191L678.904,65.155L678.861,65.122L678.816,65.089L678.771,65.057L678.725,65.027L678.679,64.998L678.632,64.97L678.584,64.943L678.535,64.917L678.486,64.892L678.437,64.869L678.387,64.847L678.337,64.826L678.286,64.806L678.235,64.787L678.183,64.77L678.132,64.753L678.08,64.738L678.028,64.725L677.975,64.712L677.923,64.701L677.871,64.69L677.818,64.681L677.766,64.674L677.714,64.667L677.662,64.662L677.61,64.658L677.559,64.655L677.507,64.653L677.457,64.652L677.409,64.653ZM666.074,58L666.148,58.002L666.221,58.004L666.294,58.007L666.367,58.011L666.44,58.015L666.512,58.021L666.584,58.028L666.655,58.035L666.727,58.043L666.798,58.052L666.868,58.062L666.939,58.073L667.009,58.084L667.078,58.097L667.148,58.11L667.217,58.124L667.285,58.138L667.354,58.154L667.422,58.17L667.489,58.188L667.557,58.206L667.624,58.224L667.69,58.244L667.756,58.264L667.822,58.285L667.887,58.307L667.952,58.33L668.017,58.353L668.081,58.378L668.145,58.403L668.208,58.428L668.271,58.455L668.334,58.482L668.396,58.51L668.458,58.539L668.519,58.568L668.58,58.598L668.64,58.629L668.7,58.661L668.759,58.693L668.818,58.726L668.877,58.76L668.935,58.794L668.993,58.829L669.05,58.865L669.106,58.902L669.162,58.939L669.218,58.977L669.273,59.016L669.328,59.055L669.382,59.095L669.435,59.136L669.488,59.177L669.541,59.219L669.593,59.261L669.644,59.305L669.695,59.349L669.746,59.393L669.795,59.438L669.845,59.484L669.893,59.531L669.941,59.578L669.989,59.625L670.036,59.674L670.082,59.723L670.128,59.772L670.173,59.822L670.218,59.873L670.262,59.925L670.305,59.977L670.348,60.029L670.39,60.082L670.432,60.136L670.473,60.19L670.513,60.245L670.553,60.301L670.592,60.357L670.63,60.413L670.668,60.47L670.705,60.528L670.741,60.586L670.777,60.645L670.812,60.705L670.846,60.764L670.88,60.825L670.913,60.886L670.945,60.947L670.977,61.009L671.007,61.072L671.038,61.135L671.067,61.198L671.096,61.262L671.124,61.327L671.151,61.392L671.178,61.458L671.204,61.524L671.229,61.59L671.253,61.657L671.277,61.725L671.299,61.793L671.321,61.861L671.343,61.93L671.363,61.999L671.383,62.069L671.402,62.139L671.42,62.21L671.438,62.281L671.454,62.353L671.47,62.425L671.485,62.497L671.499,62.57L671.512,62.644L671.525,62.717L671.536,62.792L671.547,62.866L671.557,62.941L671.566,63.017L671.575,63.092L671.582,63.169L671.589,63.245L671.595,63.322L671.599,63.4L671.603,63.477L671.607,63.555L671.609,63.634L671.61,63.713L671.611,63.792L671.611,64.853L671.61,64.933L671.609,65.012L671.607,65.091L671.603,65.171L671.599,65.25L671.595,65.329L671.589,65.408L671.582,65.487L671.575,65.565L671.566,65.644L671.557,65.722L671.547,65.801L671.536,65.879L671.525,65.957L671.512,66.035L671.499,66.112L671.485,66.19L671.47,66.267L671.454,66.344L671.438,66.421L671.42,66.498L671.402,66.574L671.383,66.65L671.363,66.726L671.343,66.802L671.321,66.877L671.299,66.953L671.277,67.027L671.253,67.102L671.229,67.176L671.204,67.25L671.178,67.324L671.151,67.397L671.124,67.47L671.096,67.542L671.067,67.615L671.038,67.687L671.007,67.758L670.977,67.829L670.945,67.9L670.913,67.97L670.88,68.04L670.846,68.109L670.812,68.178L670.777,68.247L670.741,68.315L670.705,68.383L670.668,68.45L670.63,68.517L670.592,68.583L670.553,68.649L670.513,68.714L670.473,68.779L670.432,68.843L670.39,68.907L670.348,68.97L670.305,69.033L670.262,69.095L670.218,69.156L670.173,69.217L670.128,69.277L670.082,69.337L670.036,69.396L669.989,69.455L669.941,69.513L669.893,69.57L669.845,69.627L669.795,69.683L669.746,69.738L669.695,69.792L669.644,69.846L669.593,69.9L669.541,69.952L669.488,70.004L669.435,70.056L669.382,70.106L669.328,70.156L669.273,70.205L669.218,70.253L669.162,70.301L669.106,70.347L669.05,70.393L668.993,70.438L668.935,70.483L668.877,70.526L668.818,70.569L668.759,70.611L668.7,70.652L668.64,70.693L668.58,70.732L668.519,70.771L668.458,70.808L668.396,70.845L668.334,70.881L668.271,70.916L668.208,70.95L668.145,70.984L668.081,71.016L668.017,71.048L667.952,71.078L667.887,71.108L667.822,71.136L667.756,71.164L667.69,71.19L667.624,71.216L667.557,71.241L667.489,71.265L667.422,71.287L667.354,71.309L667.285,71.329L667.217,71.349L667.148,71.368L667.078,71.385L667.009,71.402L666.939,71.417L666.868,71.431L666.798,71.444L666.727,71.456L666.655,71.467L666.584,71.477L666.512,71.486L666.44,71.494L666.367,71.5L666.294,71.505L666.221,71.51L666.148,71.512L666.074,71.514L666.001,71.515L665.927,71.514L665.853,71.512L665.78,71.51L665.707,71.505L665.634,71.5L665.562,71.494L665.489,71.486L665.418,71.477L665.346,71.467L665.275,71.456L665.204,71.444L665.133,71.431L665.063,71.417L664.993,71.402L664.923,71.385L664.854,71.368L664.784,71.349L664.716,71.329L664.647,71.309L664.579,71.287L664.512,71.265L664.444,71.241L664.378,71.216L664.311,71.19L664.245,71.164L664.179,71.136L664.114,71.108L664.049,71.078L663.984,71.048L663.92,71.016L663.856,70.984L663.793,70.95L663.73,70.916L663.667,70.881L663.605,70.845L663.543,70.808L663.482,70.771L663.421,70.732L663.361,70.693L663.301,70.652L663.242,70.611L663.183,70.569L663.124,70.526L663.066,70.483L663.008,70.438L662.951,70.393L662.895,70.347L662.839,70.301L662.783,70.253L662.728,70.205L662.673,70.156L662.619,70.106L662.566,70.056L662.513,70.004L662.46,69.952L662.408,69.9L662.357,69.846L662.306,69.792L662.255,69.738L662.206,69.683L662.156,69.627L662.108,69.57L662.06,69.513L662.012,69.455L661.965,69.396L661.919,69.337L661.873,69.277L661.828,69.217L661.783,69.156L661.739,69.095L661.696,69.033L661.653,68.97L661.611,68.907L661.569,68.843L661.528,68.779L661.488,68.714L661.448,68.649L661.409,68.583L661.371,68.517L661.333,68.45L661.296,68.383L661.26,68.315L661.224,68.247L661.189,68.178L661.155,68.109L661.121,68.04L661.088,67.97L661.056,67.9L661.024,67.829L660.994,67.758L660.963,67.687L660.934,67.615L660.905,67.542L660.877,67.47L660.85,67.397L660.823,67.324L660.797,67.25L660.772,67.176L660.748,67.102L660.724,67.027L660.702,66.953L660.68,66.877L660.658,66.802L660.638,66.726L660.618,66.65L660.599,66.574L660.581,66.498L660.563,66.421L660.547,66.344L660.531,66.267L660.516,66.19L660.502,66.112L660.489,66.035L660.476,65.957L660.465,65.879L660.454,65.801L660.444,65.722L660.435,65.644L660.426,65.565L660.419,65.487L660.412,65.408L660.406,65.329L660.402,65.25L660.398,65.171L660.394,65.091L660.392,65.012L660.391,64.933L660.39,64.853L660.39,63.792L660.391,63.713L660.392,63.634L660.394,63.555L660.398,63.477L660.402,63.4L660.406,63.322L660.412,63.245L660.419,63.169L660.426,63.092L660.435,63.017L660.444,62.941L660.454,62.866L660.465,62.792L660.476,62.717L660.489,62.644L660.502,62.57L660.516,62.497L660.531,62.425L660.547,62.353L660.563,62.281L660.581,62.21L660.599,62.139L660.618,62.069L660.638,61.999L660.658,61.93L660.68,61.861L660.702,61.793L660.724,61.725L660.748,61.657L660.772,61.59L660.797,61.524L660.823,61.458L660.85,61.392L660.877,61.327L660.905,61.262L660.934,61.198L660.963,61.135L660.994,61.072L661.024,61.009L661.056,60.947L661.088,60.886L661.121,60.825L661.155,60.764L661.189,60.704L661.224,60.645L661.26,60.586L661.296,60.528L661.333,60.47L661.371,60.413L661.409,60.357L661.448,60.301L661.488,60.245L661.528,60.19L661.569,60.136L661.611,60.082L661.653,60.029L661.696,59.976L661.739,59.924L661.783,59.873L661.828,59.822L661.873,59.772L661.919,59.723L661.965,59.674L662.012,59.625L662.06,59.578L662.108,59.53L662.156,59.484L662.206,59.438L662.255,59.393L662.306,59.348L662.357,59.305L662.408,59.261L662.46,59.219L662.513,59.177L662.566,59.135L662.619,59.095L662.673,59.055L662.728,59.016L662.783,58.977L662.839,58.939L662.895,58.902L662.951,58.865L663.008,58.829L663.066,58.794L663.124,58.76L663.183,58.726L663.242,58.693L663.301,58.661L663.361,58.629L663.421,58.598L663.482,58.568L663.543,58.539L663.605,58.51L663.667,58.482L663.73,58.455L663.793,58.428L663.856,58.403L663.92,58.378L663.984,58.353L664.049,58.33L664.114,58.307L664.179,58.285L664.245,58.264L664.311,58.244L664.378,58.224L664.444,58.206L664.512,58.188L664.579,58.17L664.647,58.154L664.716,58.138L664.784,58.124L664.854,58.11L664.923,58.097L664.993,58.084L665.063,58.073L665.133,58.062L665.204,58.052L665.275,58.043L665.346,58.035L665.418,58.028L665.489,58.021L665.562,58.015L665.634,58.011L665.707,58.007L665.78,58.004L665.853,58.002L665.927,58L666.001,58L666.074,58ZM665.939,59.042L665.878,59.043L665.817,59.045L665.757,59.047L665.696,59.051L665.636,59.054L665.577,59.059L665.517,59.064L665.458,59.071L665.4,59.077L665.341,59.085L665.283,59.093L665.225,59.102L665.168,59.111L665.111,59.121L665.054,59.132L664.997,59.143L664.941,59.155L664.885,59.168L664.83,59.182L664.775,59.196L664.72,59.21L664.665,59.226L664.611,59.242L664.557,59.258L664.504,59.275L664.451,59.293L664.398,59.311L664.345,59.33L664.293,59.35L664.242,59.37L664.19,59.391L664.139,59.413L664.089,59.435L664.038,59.457L663.989,59.48L663.939,59.504L663.89,59.529L663.841,59.553L663.793,59.579L663.745,59.605L663.697,59.632L663.65,59.659L663.603,59.687L663.557,59.715L663.511,59.744L663.465,59.773L663.42,59.803L663.375,59.834L663.331,59.865L663.287,59.897L663.243,59.929L663.2,59.961L663.158,59.995L663.115,60.029L663.074,60.063L663.032,60.098L662.991,60.133L662.951,60.169L662.911,60.205L662.871,60.242L662.832,60.28L662.793,60.318L662.755,60.356L662.717,60.395L662.679,60.434L662.642,60.474L662.606,60.515L662.57,60.556L662.535,60.597L662.5,60.639L662.465,60.681L662.431,60.724L662.397,60.768L662.364,60.812L662.332,60.856L662.3,60.901L662.268,60.946L662.237,60.992L662.207,61.038L662.177,61.085L662.147,61.133L662.118,61.18L662.09,61.228L662.062,61.277L662.034,61.326L662.008,61.376L661.981,61.426L661.955,61.476L661.93,61.527L661.906,61.579L661.882,61.631L661.858,61.683L661.835,61.736L661.813,61.789L661.791,61.843L661.77,61.897L661.749,61.952L661.729,62.007L661.71,62.062L661.691,62.118L661.673,62.175L661.655,62.231L661.638,62.289L661.622,62.347L661.606,62.405L661.591,62.463L661.577,62.522L661.563,62.582L661.55,62.641L661.538,62.702L661.526,62.763L661.515,62.824L661.504,62.886L661.494,62.948L661.485,63.01L661.477,63.073L661.469,63.136L661.462,63.2L661.456,63.264L661.451,63.329L661.446,63.393L661.442,63.459L661.438,63.525L661.436,63.591L661.434,63.657L661.433,63.725L661.432,63.795L661.432,64.85L661.433,64.921L661.434,64.989L661.436,65.056L661.438,65.124L661.442,65.192L661.446,65.259L661.451,65.327L661.456,65.394L661.463,65.461L661.47,65.529L661.478,65.596L661.486,65.663L661.496,65.73L661.506,65.797L661.516,65.864L661.528,65.931L661.54,65.997L661.553,66.064L661.566,66.13L661.581,66.196L661.596,66.263L661.611,66.328L661.627,66.394L661.644,66.459L661.662,66.524L661.68,66.589L661.7,66.654L661.719,66.719L661.739,66.783L661.76,66.846L661.782,66.91L661.804,66.974L661.827,67.037L661.851,67.1L661.875,67.162L661.9,67.224L661.925,67.286L661.951,67.348L661.978,67.409L662.005,67.47L662.033,67.53L662.061,67.59L662.09,67.65L662.12,67.71L662.15,67.769L662.18,67.827L662.211,67.885L662.243,67.943L662.275,68L662.308,68.057L662.342,68.113L662.375,68.169L662.41,68.224L662.445,68.279L662.48,68.333L662.516,68.387L662.553,68.44L662.59,68.493L662.627,68.545L662.665,68.597L662.703,68.648L662.742,68.699L662.781,68.749L662.821,68.798L662.861,68.847L662.901,68.895L662.942,68.943L662.984,68.99L663.026,69.036L663.068,69.082L663.111,69.128L663.154,69.172L663.197,69.216L663.24,69.259L663.285,69.302L663.329,69.344L663.374,69.385L663.419,69.425L663.464,69.465L663.51,69.504L663.557,69.543L663.603,69.581L663.65,69.617L663.697,69.654L663.744,69.69L663.792,69.724L663.84,69.759L663.888,69.792L663.937,69.824L663.985,69.856L664.034,69.887L664.084,69.918L664.133,69.947L664.183,69.976L664.233,70.004L664.283,70.032L664.334,70.058L664.384,70.084L664.435,70.109L664.487,70.133L664.538,70.156L664.589,70.179L664.641,70.2L664.693,70.221L664.745,70.242L664.798,70.261L664.85,70.279L664.903,70.297L664.956,70.314L665.009,70.33L665.062,70.345L665.116,70.36L665.17,70.373L665.224,70.386L665.278,70.398L665.332,70.409L665.387,70.419L665.441,70.428L665.496,70.437L665.551,70.444L665.607,70.451L665.662,70.457L665.718,70.462L665.774,70.466L665.831,70.469L665.887,70.471L665.944,70.473L666.001,70.473L666.058,70.473L666.114,70.471L666.171,70.469L666.227,70.466L666.283,70.462L666.339,70.457L666.394,70.451L666.45,70.444L666.505,70.437L666.56,70.428L666.615,70.419L666.669,70.409L666.723,70.398L666.777,70.386L666.831,70.373L666.885,70.36L666.939,70.345L666.992,70.33L667.045,70.314L667.098,70.297L667.151,70.279L667.203,70.261L667.256,70.242L667.308,70.221L667.36,70.2L667.412,70.179L667.463,70.156L667.515,70.133L667.566,70.109L667.617,70.084L667.667,70.058L667.718,70.032L667.768,70.004L667.818,69.976L667.868,69.947L667.917,69.918L667.966,69.888L668.016,69.856L668.064,69.824L668.113,69.792L668.161,69.758L668.209,69.724L668.257,69.69L668.304,69.654L668.351,69.618L668.398,69.581L668.444,69.543L668.491,69.504L668.537,69.465L668.582,69.425L668.627,69.385L668.672,69.344L668.716,69.302L668.76,69.259L668.804,69.216L668.848,69.172L668.89,69.128L668.933,69.082L668.975,69.036L669.017,68.99L669.059,68.943L669.1,68.895L669.14,68.847L669.18,68.798L669.22,68.749L669.259,68.699L669.298,68.648L669.336,68.597L669.374,68.545L669.411,68.493L669.448,68.44L669.485,68.387L669.521,68.333L669.556,68.279L669.591,68.224L669.626,68.169L669.659,68.113L669.693,68.057L669.726,68L669.758,67.942L669.79,67.885L669.821,67.827L669.852,67.768L669.882,67.71L669.911,67.65L669.94,67.59L669.968,67.53L669.996,67.47L670.023,67.409L670.05,67.348L670.076,67.286L670.101,67.224L670.126,67.162L670.15,67.1L670.174,67.037L670.197,66.974L670.219,66.91L670.241,66.846L670.262,66.783L670.282,66.718L670.301,66.654L670.32,66.589L670.339,66.524L670.357,66.459L670.373,66.394L670.39,66.328L670.405,66.262L670.42,66.196L670.435,66.13L670.448,66.064L670.461,65.998L670.473,65.931L670.485,65.864L670.495,65.797L670.505,65.73L670.515,65.663L670.523,65.596L670.531,65.529L670.538,65.462L670.545,65.394L670.55,65.327L670.555,65.259L670.559,65.191L670.563,65.124L670.565,65.056L670.567,64.989L670.569,64.921L670.569,64.85L670.569,63.795L670.569,63.725L670.567,63.658L670.565,63.591L670.563,63.525L670.559,63.459L670.555,63.394L670.55,63.329L670.545,63.264L670.539,63.2L670.532,63.136L670.524,63.073L670.516,63.01L670.506,62.947L670.497,62.886L670.486,62.824L670.475,62.763L670.463,62.702L670.451,62.642L670.438,62.582L670.424,62.522L670.41,62.463L670.395,62.405L670.379,62.347L670.363,62.289L670.346,62.231L670.328,62.174L670.31,62.118L670.291,62.062L670.272,62.007L670.252,61.952L670.231,61.897L670.21,61.843L670.188,61.789L670.166,61.736L670.143,61.683L670.119,61.631L670.095,61.579L670.071,61.528L670.046,61.477L670.02,61.426L669.993,61.376L669.967,61.326L669.939,61.277L669.911,61.228L669.883,61.18L669.854,61.132L669.824,61.085L669.795,61.039L669.764,60.992L669.733,60.946L669.701,60.901L669.669,60.856L669.637,60.812L669.603,60.768L669.57,60.724L669.536,60.682L669.501,60.639L669.466,60.597L669.431,60.556L669.395,60.515L669.359,60.474L669.322,60.434L669.284,60.395L669.246,60.356L669.208,60.317L669.169,60.28L669.13,60.242L669.091,60.205L669.05,60.169L669.01,60.133L668.969,60.098L668.928,60.063L668.886,60.029L668.843,59.995L668.801,59.961L668.758,59.929L668.714,59.897L668.67,59.865L668.626,59.834L668.581,59.803L668.536,59.773L668.49,59.744L668.444,59.715L668.398,59.687L668.351,59.659L668.304,59.632L668.256,59.605L668.208,59.579L668.16,59.553L668.111,59.529L668.062,59.504L668.012,59.48L667.963,59.457L667.912,59.435L667.862,59.413L667.811,59.391L667.759,59.37L667.708,59.35L667.656,59.33L667.603,59.311L667.55,59.293L667.497,59.275L667.444,59.258L667.39,59.241L667.336,59.226L667.281,59.21L667.227,59.196L667.171,59.182L667.116,59.168L667.06,59.155L667.004,59.143L666.947,59.132L666.89,59.121L666.833,59.111L666.776,59.102L666.718,59.093L666.66,59.085L666.601,59.077L666.543,59.071L666.484,59.064L666.424,59.059L666.365,59.054L666.305,59.051L666.245,59.047L666.184,59.045L666.123,59.043L666.062,59.042L666.001,59.041L665.939,59.042Z" style="fill:rgb(0,190,242);"/>
    </g>
</svg>
