<?xml version="1.0" standalone="no"?>
<!DOCTYPE svg PUBLIC "-//W3C//DTD SVG 1.1//EN" "http://www.w3.org/Graphics/SVG/1.1/DTD/svg11.dtd">
<svg width="100%" height="100%" viewBox="0 0 36 28" version="1.1" xmlns="http://www.w3.org/2000/svg" xmlns:xlink="http://www.w3.org/1999/xlink" xml:space="preserve" style="fill-rule:evenodd;clip-rule:evenodd;stroke-linejoin:round;stroke-miterlimit:1.41421;">
    <g transform="matrix(1,0,0,1,-236.001,-66.9997)">
        <path id="Forma 1 copy 10" d="M256.426,82.945C257.34,82.106 257.881,81.625 258.5,81.625C258.891,81.625 259.168,81.787 259.799,82.142C260.993,82.812 261.727,83.5 262.214,84.174L262.214,84.175C262.511,84.585 262.71,85.001 262.828,85.432C262.83,85.434 262.83,85.436 262.83,85.438C262.886,85.64 262.926,85.848 262.953,86.06C262.954,86.077 262.96,86.094 262.961,86.112C262.986,86.336 263,86.563 263,86.8C263,86.826 263.001,91.727 263.001,91.75C263.001,93.385 262.412,94 260.751,94L247.251,94C245.604,94 245.001,93.349 245.001,91.75C245.001,91.727 245.001,86.826 245.001,86.8C245.001,86.563 245.015,86.336 245.04,86.113C245.042,86.093 245.047,86.075 245.049,86.055C245.075,85.845 245.116,85.64 245.17,85.439C245.172,85.435 245.174,85.431 245.175,85.427C245.293,84.998 245.49,84.585 245.783,84.179C245.785,84.177 245.785,84.174 245.787,84.173L245.789,84.172C246.274,83.499 247.045,82.872 248.202,82.142C248.763,81.787 249.111,81.625 249.501,81.625C250.121,81.625 250.663,82.107 251.575,82.945L251.577,82.945L252.407,83.708C252.436,83.736 253.331,85 254.001,85C254.671,85 255.565,83.736 255.595,83.708L256.425,82.945L256.426,82.945ZM272,88.375C272,87.139 271.534,85.239 269.44,84.047C268.569,83.551 267.565,83.951 266.375,85L265.25,86.125C265.25,88.094 265.25,92.875 265.25,92.875L269.75,92.875C271.451,92.875 272,92.258 272,90.625C272.002,90.607 272,88.394 272,88.375ZM238.561,84.047C236.467,85.239 236.001,87.139 236.001,88.375C236.001,88.394 236,90.607 236.001,90.625C236.001,92.258 236.55,92.875 238.251,92.875L242.751,92.875C242.751,92.875 242.751,88.094 242.751,86.125L241.626,85C240.436,83.951 239.433,83.551 238.561,84.047ZM242.751,86.125C242.776,86.146 242.751,85.591 242.751,86.125L242.751,86.125ZM265.25,86.125C265.25,85.591 265.225,86.146 265.25,86.125L265.25,86.125ZM242.761,81.611C243.663,81.611 246.133,80.44 246.133,78.011L246.133,76.211C246.133,73.781 244.351,72.61 242.761,72.61C241.223,72.61 239.389,73.781 239.389,76.211L239.389,78.011C239.389,80.44 241.907,81.611 242.761,81.611ZM265.457,81.611C266.359,81.611 268.828,80.44 268.828,78.011L268.828,76.211C268.828,73.781 267.047,72.61 265.457,72.61C263.919,72.61 262.085,73.781 262.085,76.211L262.085,78.011C262.085,80.44 264.602,81.611 265.457,81.611ZM254.001,80.515C257.156,80.515 259.611,77.242 259.611,73.853L259.611,72.792C259.611,69.404 257.156,67 254.001,67C250.845,67 248.39,69.404 248.39,72.792L248.39,73.853C248.39,77.242 250.845,80.515 254.001,80.515Z" style="fill:rgb(0,190,242);"/>
    </g>
</svg>
