<?xml version="1.0" standalone="no"?>
<!DOCTYPE svg PUBLIC "-//W3C//DTD SVG 1.1//EN" "http://www.w3.org/Graphics/SVG/1.1/DTD/svg11.dtd">
<svg width="100%" height="100%" viewBox="0 0 19 19" version="1.1" xmlns="http://www.w3.org/2000/svg" xmlns:xlink="http://www.w3.org/1999/xlink" xml:space="preserve" style="fill-rule:evenodd;clip-rule:evenodd;stroke-linejoin:round;stroke-miterlimit:1.41421;">
    <g transform="matrix(1,0,0,1,-1394,-53.9999)">
        <path id="Forma 1" d="M1411.46,55.554C1410.52,54.607 1409.17,54 1407.75,54C1406.91,54 1406.12,54.195 1405.36,54.587C1404.6,54.978 1403.99,55.513 1403.5,56.192C1403.02,55.513 1402.4,54.978 1401.64,54.587C1400.88,54.195 1400.09,54 1399.26,54C1397.83,54 1396.48,54.607 1395.54,55.554C1394.6,56.501 1394,57.88 1394,59.331C1394,60.329 1394.21,61.298 1394.46,62.027C1394.59,62.389 1394.79,62.781 1395.04,63.18C1395.3,63.584 1395.54,63.921 1395.74,64.188C1395.94,64.456 1396.23,64.791 1396.62,65.177C1397.01,65.563 1397.33,65.866 1397.56,66.082C1397.79,66.298 1398.14,66.618 1398.61,67.029C1399.14,67.503 1399.53,67.855 1399.77,68.079C1400.01,68.298 1400.36,68.635 1400.81,69.077C1401.73,69.972 1402.41,70.797 1403.05,71.743C1403.16,71.919 1403.32,72 1403.5,72C1403.69,72 1403.86,71.921 1403.98,71.743C1404.38,71.118 1404.86,70.479 1405.41,69.849C1405.97,69.213 1406.43,68.72 1406.8,68.367C1407.18,68.01 1407.72,67.511 1408.42,66.875C1408.85,66.481 1409.2,66.185 1409.43,65.969C1409.66,65.753 1409.97,65.455 1410.34,65.074C1410.72,64.693 1411.01,64.366 1411.22,64.096C1411.44,63.82 1411.66,63.487 1411.92,63.087C1412.44,62.272 1412.67,61.627 1412.86,60.72C1412.95,60.268 1413,59.804 1413,59.331C1413,57.88 1412.4,56.501 1411.46,55.554ZM1411.79,60.381C1411.59,61.523 1411.01,62.643 1410.03,63.746C1409.6,64.228 1408.82,64.994 1407.67,66.031C1407.08,66.569 1406.6,67.009 1406.23,67.359C1405.87,67.698 1405.42,68.159 1404.88,68.737C1404.36,69.311 1403.89,69.88 1403.5,70.436C1403.09,69.89 1402.61,69.337 1402.07,68.768C1401.52,68.195 1401.1,67.76 1400.78,67.472C1400.47,67.184 1399.99,66.754 1399.34,66.165L1398.64,65.537L1398,64.95C1397.73,64.696 1397.51,64.49 1397.38,64.333C1397.24,64.181 1397.06,63.983 1396.84,63.736C1396.62,63.489 1396.45,63.272 1396.34,63.098C1396.1,62.737 1395.71,62.199 1395.57,61.749L1395.33,61.019C1395.16,60.486 1395.11,59.938 1395.11,59.331C1395.11,58.178 1395.52,57.19 1396.33,56.377C1397.14,55.554 1398.11,55.142 1399.26,55.142C1400.05,55.142 1400.79,55.358 1401.47,55.801C1402.15,56.243 1402.67,56.827 1403.01,57.561C1403.1,57.774 1403.27,57.88 1403.5,57.88C1403.73,57.88 1403.91,57.781 1404.02,57.561C1404.36,56.834 1404.85,56.243 1405.52,55.801C1406.2,55.358 1406.95,55.142 1407.75,55.142C1408.89,55.142 1409.86,55.554 1410.67,56.367C1411.47,57.18 1411.88,58.168 1411.88,59.331C1411.88,59.691 1411.85,60.041 1411.79,60.381Z" style="fill:rgb(0,189,243);fill-rule:nonzero;"/>
    </g>
</svg>
