<?xml version="1.0" standalone="no"?>
<!DOCTYPE svg PUBLIC "-//W3C//DTD SVG 1.1//EN" "http://www.w3.org/Graphics/SVG/1.1/DTD/svg11.dtd">
<svg width="100%" height="100%" viewBox="0 0 34 35" version="1.1" xmlns="http://www.w3.org/2000/svg" xmlns:xlink="http://www.w3.org/1999/xlink" xml:space="preserve" style="fill-rule:evenodd;clip-rule:evenodd;stroke-linejoin:round;stroke-miterlimit:1.41421;">
    <g transform="matrix(1,0,0,1,-516,-50.9999)">
        <g id="Forma 1 copy 16">
            <path d="M548.927,52.77L534.073,52.77L534.073,52.072C534.073,51.48 533.592,51 533,51C532.408,51 531.927,51.48 531.927,52.072L531.927,52.77L517.072,52.77C516.48,52.77 516,53.25 516,53.842L516,57.382C516,57.974 516.48,58.454 517.072,58.454L517.77,58.454L517.77,76.849C517.77,77.441 518.25,77.921 518.842,77.921L530.855,77.921L526.833,83.284C526.477,83.758 526.573,84.43 527.047,84.785C527.24,84.93 527.466,85 527.69,85C528.016,85 528.338,84.852 528.549,84.571L531.927,80.066L531.927,83.927C531.927,84.52 532.408,85 533,85C533.592,85 534.073,84.52 534.073,83.927L534.073,80.066L537.451,84.571C537.662,84.852 537.984,85 538.31,85C538.534,85 538.76,84.93 538.953,84.785C539.427,84.43 539.523,83.758 539.167,83.284L535.145,77.921L547.158,77.921C547.75,77.921 548.23,77.441 548.23,76.849L548.23,58.454L548.927,58.454C549.52,58.454 550,57.974 550,57.382L550,53.842C550,53.25 549.52,52.77 548.927,52.77ZM518.145,56.309L518.145,54.915L547.855,54.915L547.855,56.309L518.145,56.309Z" style="fill:rgb(0,191,243);fill-rule:nonzero;"/>
            <path d="M533.055,51.001L533.11,51.005L533.163,51.012L533.216,51.022L533.268,51.034L533.319,51.048L533.369,51.065L533.417,51.084L533.465,51.106L533.511,51.129L533.556,51.155L533.6,51.183L533.642,51.213L533.682,51.245L533.721,51.279L533.758,51.314L533.794,51.351L533.828,51.39L533.859,51.431L533.889,51.473L533.917,51.516L533.943,51.561L533.967,51.608L533.988,51.655L534.007,51.704L534.024,51.754L534.039,51.804L534.051,51.856L534.06,51.909L534.067,51.963L534.071,52.017L534.073,52.072L534.073,52.77L548.927,52.77L548.983,52.771L549.037,52.775L549.091,52.782L549.144,52.791L549.195,52.803L549.246,52.818L549.296,52.835L549.345,52.854L549.392,52.875L549.439,52.899L549.483,52.925L549.527,52.953L549.569,52.983L549.61,53.015L549.648,53.048L549.686,53.084L549.721,53.121L549.755,53.16L549.787,53.201L549.817,53.243L549.845,53.286L549.87,53.331L549.894,53.377L549.916,53.425L549.935,53.473L549.952,53.523L549.966,53.574L549.978,53.626L549.987,53.679L549.994,53.733L549.998,53.787L550,53.842L550,57.382L549.998,57.437L549.994,57.491L549.987,57.545L549.978,57.598L549.966,57.65L549.952,57.701L549.935,57.75L549.916,57.799L549.894,57.847L549.87,57.893L549.845,57.938L549.817,57.981L549.787,58.023L549.755,58.064L549.721,58.103L549.686,58.14L549.648,58.176L549.61,58.209L549.569,58.241L549.527,58.271L549.483,58.299L549.439,58.325L549.392,58.348L549.345,58.37L549.296,58.389L549.246,58.406L549.195,58.42L549.144,58.432L549.091,58.442L549.037,58.449L548.983,58.453L548.927,58.454L548.23,58.454L548.23,76.849L548.229,76.904L548.225,76.958L548.218,77.012L548.208,77.065L548.196,77.117L548.182,77.167L548.165,77.217L548.146,77.266L548.124,77.314L548.101,77.36L548.075,77.405L548.047,77.448L548.017,77.49L547.985,77.531L547.951,77.57L547.916,77.607L547.879,77.642L547.84,77.676L547.799,77.708L547.757,77.738L547.714,77.766L547.669,77.792L547.623,77.815L547.575,77.837L547.526,77.856L547.477,77.873L547.426,77.887L547.374,77.899L547.321,77.909L547.267,77.915L547.213,77.92L547.158,77.921L535.145,77.921L539.167,83.284L539.199,83.329L539.228,83.375L539.255,83.422L539.279,83.47L539.301,83.519L539.32,83.568L539.336,83.618L539.35,83.668L539.361,83.719L539.37,83.771L539.377,83.822L539.38,83.874L539.382,83.925L539.381,83.977L539.377,84.028L539.371,84.079L539.362,84.13L539.351,84.18L539.338,84.23L539.322,84.279L539.304,84.328L539.284,84.375L539.261,84.422L539.236,84.468L539.209,84.512L539.179,84.556L539.147,84.598L539.112,84.638L539.076,84.678L539.037,84.715L538.996,84.751L538.953,84.785L538.916,84.812L538.879,84.836L538.841,84.859L538.802,84.88L538.763,84.899L538.724,84.917L538.683,84.933L538.643,84.947L538.602,84.959L538.561,84.97L538.519,84.979L538.478,84.987L538.436,84.993L538.394,84.997L538.352,84.999L538.31,85L538.279,85L538.249,84.998L538.218,84.996L538.188,84.993L538.158,84.989L538.128,84.984L538.098,84.979L538.068,84.972L538.038,84.965L538.009,84.957L537.979,84.948L537.95,84.938L537.922,84.928L537.893,84.916L537.865,84.904L537.837,84.891L537.81,84.877L537.783,84.862L537.756,84.846L537.729,84.83L537.704,84.813L537.678,84.795L537.653,84.776L537.628,84.756L537.604,84.736L537.581,84.715L537.558,84.693L537.535,84.67L537.513,84.646L537.492,84.622L537.471,84.597L537.451,84.571L534.073,80.066L534.073,83.927L534.071,83.983L534.067,84.037L534.06,84.091L534.051,84.144L534.039,84.195L534.024,84.246L534.007,84.296L533.988,84.345L533.967,84.392L533.943,84.439L533.917,84.484L533.889,84.527L533.859,84.569L533.828,84.61L533.794,84.649L533.758,84.686L533.721,84.721L533.682,84.755L533.642,84.787L533.6,84.817L533.556,84.845L533.511,84.87L533.465,84.894L533.417,84.916L533.369,84.935L533.319,84.952L533.268,84.966L533.216,84.978L533.163,84.988L533.11,84.994L533.055,84.999L533,85L532.945,84.999L532.89,84.994L532.837,84.988L532.784,84.978L532.732,84.966L532.681,84.952L532.631,84.935L532.582,84.916L532.535,84.894L532.489,84.87L532.444,84.845L532.4,84.817L532.358,84.787L532.318,84.755L532.279,84.721L532.242,84.686L532.206,84.649L532.172,84.61L532.141,84.569L532.111,84.527L532.083,84.484L532.057,84.439L532.033,84.392L532.012,84.345L531.993,84.296L531.976,84.246L531.961,84.195L531.949,84.144L531.94,84.091L531.933,84.037L531.929,83.983L531.927,83.927L531.927,80.066L528.549,84.571L528.529,84.597L528.508,84.622L528.487,84.646L528.465,84.67L528.442,84.693L528.419,84.715L528.396,84.736L528.372,84.756L528.347,84.776L528.322,84.795L528.296,84.813L528.27,84.83L528.244,84.846L528.217,84.862L528.19,84.877L528.163,84.891L528.135,84.904L528.107,84.916L528.078,84.928L528.049,84.938L528.02,84.948L527.991,84.957L527.962,84.965L527.932,84.972L527.902,84.979L527.872,84.984L527.842,84.989L527.812,84.993L527.782,84.996L527.751,84.998L527.721,85L527.69,85L527.648,84.999L527.606,84.997L527.564,84.993L527.522,84.987L527.481,84.979L527.439,84.97L527.398,84.959L527.357,84.947L527.316,84.933L527.276,84.917L527.237,84.899L527.198,84.88L527.159,84.859L527.121,84.836L527.084,84.812L527.047,84.785L527.004,84.751L526.963,84.715L526.924,84.678L526.887,84.638L526.853,84.598L526.821,84.556L526.791,84.512L526.764,84.468L526.739,84.422L526.716,84.375L526.696,84.328L526.677,84.279L526.662,84.23L526.648,84.18L526.638,84.13L526.629,84.079L526.623,84.028L526.619,83.977L526.618,83.925L526.62,83.874L526.623,83.822L526.63,83.771L526.638,83.719L526.65,83.668L526.664,83.618L526.68,83.568L526.699,83.519L526.721,83.47L526.745,83.422L526.771,83.375L526.801,83.329L526.833,83.284L530.855,77.921L518.842,77.921L518.787,77.92L518.733,77.915L518.679,77.909L518.626,77.899L518.574,77.887L518.523,77.873L518.473,77.856L518.425,77.837L518.377,77.815L518.331,77.792L518.286,77.766L518.243,77.738L518.201,77.708L518.16,77.676L518.121,77.642L518.084,77.607L518.048,77.57L518.015,77.531L517.983,77.49L517.953,77.448L517.925,77.405L517.899,77.36L517.875,77.314L517.854,77.266L517.835,77.217L517.818,77.167L517.803,77.117L517.791,77.065L517.782,77.012L517.775,76.958L517.771,76.904L517.77,76.849L517.77,58.454L517.072,58.454L517.017,58.453L516.963,58.449L516.909,58.442L516.856,58.432L516.804,58.42L516.754,58.406L516.704,58.389L516.655,58.37L516.608,58.348L516.561,58.325L516.516,58.299L516.473,58.271L516.431,58.241L516.39,58.209L516.351,58.176L516.314,58.14L516.279,58.103L516.245,58.064L516.213,58.023L516.183,57.981L516.155,57.938L516.13,57.893L516.106,57.847L516.084,57.799L516.065,57.75L516.048,57.701L516.034,57.65L516.022,57.598L516.012,57.545L516.006,57.491L516.002,57.437L516,57.382L516,53.842L516.002,53.787L516.006,53.733L516.012,53.679L516.022,53.626L516.034,53.574L516.048,53.523L516.065,53.473L516.084,53.425L516.106,53.377L516.13,53.331L516.155,53.286L516.183,53.243L516.213,53.201L516.245,53.16L516.279,53.121L516.314,53.084L516.351,53.048L516.39,53.015L516.431,52.983L516.473,52.953L516.516,52.925L516.561,52.899L516.608,52.875L516.655,52.854L516.704,52.835L516.754,52.818L516.804,52.803L516.856,52.791L516.909,52.782L516.963,52.775L517.017,52.771L517.072,52.77L531.927,52.77L531.927,52.072L531.929,52.017L531.933,51.963L531.94,51.909L531.949,51.856L531.961,51.804L531.976,51.754L531.993,51.704L532.012,51.655L532.033,51.608L532.057,51.561L532.083,51.516L532.111,51.473L532.141,51.431L532.172,51.39L532.206,51.351L532.242,51.314L532.279,51.279L532.318,51.245L532.358,51.213L532.4,51.183L532.444,51.155L532.489,51.129L532.535,51.106L532.582,51.084L532.631,51.065L532.681,51.048L532.732,51.034L532.784,51.022L532.837,51.012L532.89,51.005L532.945,51.001L533,51L533.055,51.001ZM532.997,52.042L532.996,52.042L532.994,52.042L532.993,52.043L532.992,52.043L532.991,52.043L532.989,52.043L532.988,52.044L532.987,52.044L532.986,52.045L532.985,52.046L532.984,52.047L532.982,52.047L532.981,52.048L532.98,52.05L532.978,52.051L532.977,52.052L532.976,52.053L532.975,52.055L532.974,52.056L532.973,52.057L532.973,52.059L532.972,52.06L532.971,52.061L532.971,52.062L532.971,52.063L532.97,52.064L532.97,52.065L532.97,52.067L532.97,52.068L532.969,52.07L532.969,52.085L532.969,53.811L517.086,53.811L517.07,53.812L517.068,53.812L517.066,53.812L517.065,53.812L517.064,53.813L517.063,53.813L517.062,53.813L517.061,53.814L517.06,53.814L517.059,53.815L517.058,53.815L517.056,53.816L517.055,53.817L517.054,53.818L517.052,53.819L517.051,53.821L517.05,53.822L517.049,53.823L517.048,53.824L517.047,53.826L517.046,53.827L517.045,53.828L517.045,53.829L517.044,53.831L517.044,53.832L517.043,53.832L517.043,53.834L517.043,53.835L517.043,53.836L517.042,53.838L517.042,53.84L517.042,53.855L517.042,57.369L517.042,57.386L517.045,57.394L517.05,57.402L517.058,57.409L517.065,57.412L517.07,57.412L517.086,57.413L518.811,57.413L518.811,76.836L518.812,76.853L518.814,76.861L518.819,76.869L518.827,76.875L518.835,76.878L518.84,76.879L518.855,76.879L532.938,76.879L527.674,83.898L527.665,83.911L527.664,83.913L527.663,83.914L527.663,83.915L527.662,83.917L527.662,83.917L527.661,83.919L527.661,83.92L527.661,83.92L527.661,83.922L527.66,83.924L527.66,83.925L527.66,83.927L527.661,83.935L527.665,83.944L527.671,83.95L527.68,83.956L527.689,83.958L527.692,83.958L527.692,83.958L527.693,83.958L527.694,83.958L527.695,83.958L527.696,83.958L527.697,83.957L527.698,83.957L527.699,83.957L527.7,83.957L527.701,83.956L527.702,83.956L527.703,83.956L527.704,83.955L527.704,83.955L527.705,83.955L527.706,83.954L527.707,83.954L527.707,83.954L527.708,83.953L527.708,83.953L527.709,83.953L527.709,83.953L527.71,83.952L527.711,83.951L527.711,83.951L527.711,83.95L527.712,83.95L527.713,83.949L527.714,83.948L527.714,83.947L527.72,83.94L532.969,76.941L532.969,83.914L532.97,83.932L532.972,83.94L532.977,83.948L532.984,83.953L532.993,83.957L533,83.958L533.002,83.958L533.004,83.958L533.006,83.958L533.007,83.957L533.008,83.957L533.009,83.957L533.01,83.956L533.012,83.956L533.013,83.955L533.014,83.955L533.015,83.954L533.016,83.953L533.018,83.952L533.019,83.951L533.02,83.95L533.022,83.949L533.023,83.948L533.024,83.946L533.025,83.945L533.026,83.944L533.027,83.943L533.027,83.941L533.028,83.94L533.029,83.939L533.029,83.938L533.029,83.937L533.03,83.936L533.03,83.935L533.03,83.933L533.03,83.932L533.03,83.93L533.031,83.914L533.031,76.941L538.28,83.94L538.289,83.951L538.299,83.956L538.308,83.958L538.311,83.958L538.313,83.958L538.314,83.958L538.315,83.958L538.316,83.958L538.317,83.957L538.318,83.957L538.319,83.957L538.32,83.956L538.32,83.956L538.321,83.956L538.322,83.955L538.323,83.955L538.324,83.954L538.326,83.953L538.329,83.95L538.331,83.949L538.332,83.948L538.333,83.947L538.334,83.946L538.334,83.945L538.335,83.944L538.336,83.943L538.336,83.942L538.337,83.941L538.337,83.94L538.338,83.938L538.338,83.937L538.339,83.936L538.339,83.934L538.339,83.932L538.34,83.93L538.34,83.928L538.34,83.926L538.34,83.925L538.34,83.924L538.339,83.922L538.339,83.921L538.339,83.92L538.339,83.919L538.338,83.917L538.338,83.917L538.338,83.916L538.337,83.914L538.336,83.913L538.335,83.911L538.326,83.898L533.062,76.879L547.144,76.879L547.16,76.879L547.162,76.879L547.164,76.879L547.165,76.878L547.166,76.878L547.167,76.878L547.168,76.877L547.169,76.877L547.17,76.877L547.172,76.876L547.173,76.875L547.174,76.875L547.175,76.874L547.177,76.873L547.178,76.871L547.179,76.87L547.18,76.869L547.181,76.868L547.183,76.866L547.183,76.865L547.184,76.864L547.185,76.862L547.186,76.861L547.186,76.86L547.187,76.859L547.187,76.858L547.187,76.857L547.187,76.856L547.188,76.855L547.188,76.853L547.188,76.851L547.188,76.836L547.188,57.413L548.914,57.413L548.93,57.412L548.932,57.412L548.933,57.412L548.935,57.412L548.936,57.411L548.937,57.411L548.938,57.411L548.939,57.41L548.94,57.41L548.941,57.409L548.943,57.408L548.944,57.408L548.945,57.407L548.946,57.406L548.947,57.405L548.949,57.403L548.95,57.402L548.951,57.401L548.953,57.399L548.953,57.398L548.954,57.397L548.955,57.396L548.955,57.394L548.956,57.394L548.956,57.392L548.957,57.391L548.957,57.39L548.957,57.389L548.957,57.388L548.958,57.386L548.958,57.384L548.958,57.369L548.958,53.855L548.958,53.84L548.958,53.838L548.957,53.836L548.957,53.835L548.957,53.834L548.957,53.833L548.956,53.832L548.956,53.83L548.955,53.829L548.955,53.828L548.954,53.827L548.953,53.826L548.953,53.825L548.951,53.823L548.95,53.822L548.949,53.821L548.947,53.819L548.946,53.818L548.945,53.817L548.944,53.816L548.943,53.816L548.941,53.815L548.94,53.814L548.939,53.814L548.938,53.813L548.937,53.813L548.936,53.813L548.935,53.812L548.933,53.812L548.932,53.812L548.93,53.812L548.914,53.811L533.031,53.811L533.031,52.085L533.03,52.07L533.03,52.068L533.03,52.067L533.03,52.065L533.03,52.064L533.029,52.063L533.029,52.062L533.029,52.061L533.028,52.06L533.027,52.059L533.027,52.057L533.026,52.056L533.025,52.055L533.024,52.053L533.023,52.052L533.022,52.051L533.02,52.05L533.019,52.048L533.018,52.047L533.016,52.047L533.015,52.046L533.014,52.045L533.013,52.044L533.012,52.044L533.01,52.043L533.009,52.043L533.008,52.043L533.007,52.043L533.006,52.042L533.004,52.042L533.002,52.042L533,52.042L532.997,52.042ZM548.896,57.351L517.103,57.351L517.103,53.873L548.896,53.873L548.896,57.351ZM518.145,54.915L518.145,56.309L547.855,56.309L547.855,54.915L518.145,54.915Z" style="fill:rgb(0,190,242);"/>
        </g>
        <path id="Forma 1 copy 15" d="M536.825,68.699L536.879,68.703L536.933,68.71L536.986,68.719L537.038,68.731L537.089,68.746L537.139,68.763L537.188,68.782L537.235,68.803L537.281,68.827L537.326,68.853L537.37,68.881L537.412,68.911L537.452,68.943L537.491,68.976L537.528,69.012L537.564,69.049L537.598,69.088L537.629,69.129L537.659,69.171L537.687,69.214L537.713,69.259L537.737,69.305L537.758,69.353L537.777,69.401L537.794,69.451L537.809,69.502L537.82,69.554L537.83,69.606L537.837,69.66L537.841,69.715L537.842,69.77L537.841,69.825L537.837,69.879L537.83,69.933L537.82,69.986L537.808,70.038L537.794,70.089L537.777,70.138L537.758,70.187L537.736,70.235L537.713,70.281L537.687,70.326L537.659,70.369L537.629,70.411L537.597,70.452L537.564,70.491L537.528,70.528L537.491,70.564L537.452,70.597L537.411,70.629L537.369,70.659L537.326,70.687L537.281,70.713L537.235,70.736L537.187,70.758L537.138,70.777L537.089,70.794L537.038,70.808L536.986,70.82L536.933,70.83L536.879,70.837L536.825,70.841L536.77,70.842L526.151,70.842L526.096,70.841L526.042,70.837L525.988,70.83L525.935,70.82L525.883,70.808L525.832,70.794L525.783,70.777L525.734,70.758L525.686,70.736L525.64,70.713L525.595,70.687L525.552,70.659L525.51,70.629L525.469,70.597L525.43,70.564L525.393,70.528L525.357,70.491L525.324,70.452L525.292,70.411L525.262,70.369L525.234,70.326L525.208,70.281L525.185,70.235L525.163,70.187L525.144,70.138L525.127,70.089L525.113,70.038L525.101,69.986L525.091,69.933L525.084,69.879L525.08,69.825L525.079,69.77L525.08,69.715L525.084,69.66L525.091,69.606L525.101,69.554L525.113,69.502L525.127,69.451L525.144,69.401L525.163,69.353L525.184,69.305L525.208,69.259L525.234,69.214L525.262,69.171L525.292,69.129L525.323,69.088L525.357,69.049L525.393,69.012L525.43,68.976L525.469,68.943L525.509,68.911L525.551,68.881L525.595,68.853L525.64,68.827L525.686,68.803L525.733,68.782L525.782,68.763L525.832,68.746L525.883,68.731L525.935,68.719L525.988,68.71L526.042,68.703L526.096,68.699L526.151,68.697L536.77,68.697L536.825,68.699ZM526.165,69.739L526.15,69.739L526.148,69.739L526.146,69.74L526.145,69.74L526.143,69.74L526.142,69.741L526.141,69.741L526.14,69.741L526.139,69.742L526.137,69.743L526.136,69.743L526.135,69.744L526.134,69.745L526.132,69.746L526.131,69.747L526.13,69.748L526.128,69.75L526.127,69.751L526.126,69.752L526.125,69.754L526.125,69.755L526.124,69.756L526.123,69.757L526.123,69.758L526.122,69.759L526.122,69.76L526.122,69.761L526.121,69.763L526.121,69.764L526.121,69.765L526.121,69.767L526.121,69.77L526.122,69.779L526.126,69.787L526.132,69.794L526.141,69.799L526.149,69.8L526.165,69.801L536.756,69.801L536.772,69.8L536.774,69.8L536.776,69.8L536.777,69.8L536.778,69.799L536.779,69.799L536.78,69.799L536.781,69.798L536.782,69.798L536.783,69.797L536.785,69.796L536.786,69.795L536.787,69.795L536.789,69.794L536.79,69.792L536.791,69.791L536.792,69.79L536.793,69.789L536.795,69.787L536.796,69.786L536.796,69.785L536.797,69.783L536.798,69.782L536.798,69.781L536.799,69.78L536.799,69.779L536.799,69.778L536.8,69.777L536.8,69.776L536.8,69.774L536.8,69.772L536.8,69.77L536.8,69.767L536.8,69.765L536.8,69.764L536.8,69.762L536.799,69.761L536.799,69.76L536.799,69.759L536.798,69.758L536.798,69.757L536.797,69.756L536.797,69.755L536.796,69.753L536.795,69.753L536.794,69.751L536.793,69.75L536.792,69.749L536.79,69.747L536.789,69.746L536.787,69.745L536.786,69.744L536.785,69.743L536.784,69.743L536.782,69.742L536.781,69.741L536.78,69.741L536.779,69.741L536.778,69.74L536.776,69.74L536.775,69.74L536.773,69.739L536.771,69.739L536.756,69.739L526.165,69.739ZM542.134,65.159L542.189,65.164L542.242,65.17L542.295,65.18L542.347,65.192L542.398,65.206L542.448,65.223L542.497,65.243L542.544,65.264L542.59,65.288L542.635,65.314L542.679,65.342L542.721,65.372L542.761,65.403L542.8,65.437L542.838,65.473L542.873,65.51L542.907,65.549L542.939,65.589L542.968,65.631L542.996,65.675L543.022,65.72L543.046,65.766L543.067,65.813L543.086,65.862L543.103,65.912L543.118,65.963L543.13,66.014L543.139,66.067L543.146,66.121L543.15,66.175L543.151,66.23L543.15,66.286L543.146,66.34L543.139,66.394L543.13,66.446L543.118,66.498L543.103,66.549L543.086,66.599L543.067,66.647L543.046,66.695L543.022,66.741L542.996,66.786L542.968,66.829L542.939,66.871L542.907,66.912L542.873,66.951L542.838,66.988L542.8,67.024L542.761,67.057L542.721,67.089L542.679,67.119L542.635,67.147L542.59,67.173L542.544,67.197L542.497,67.218L542.448,67.237L542.398,67.254L542.347,67.269L542.295,67.281L542.242,67.29L542.189,67.297L542.134,67.301L542.079,67.303L526.151,67.303L526.096,67.302L526.042,67.297L525.988,67.291L525.935,67.281L525.883,67.269L525.832,67.255L525.783,67.238L525.734,67.219L525.686,67.197L525.64,67.173L525.595,67.148L525.552,67.12L525.51,67.09L525.469,67.058L525.43,67.024L525.393,66.989L525.357,66.952L525.324,66.913L525.292,66.872L525.262,66.83L525.234,66.786L525.208,66.742L525.185,66.695L525.163,66.648L525.144,66.599L525.127,66.549L525.113,66.498L525.101,66.447L525.091,66.394L525.084,66.34L525.08,66.286L525.079,66.23L525.08,66.175L525.084,66.121L525.091,66.067L525.101,66.014L525.113,65.963L525.127,65.912L525.144,65.862L525.163,65.813L525.184,65.766L525.208,65.72L525.234,65.675L525.262,65.631L525.292,65.589L525.323,65.549L525.357,65.51L525.393,65.473L525.43,65.437L525.469,65.403L525.509,65.372L525.551,65.342L525.595,65.314L525.64,65.288L525.686,65.264L525.733,65.243L525.782,65.223L525.832,65.206L525.883,65.192L525.935,65.18L525.988,65.17L526.042,65.164L526.096,65.159L526.151,65.158L542.079,65.158L542.134,65.159ZM526.165,66.199L526.15,66.2L526.148,66.2L526.146,66.2L526.145,66.201L526.143,66.201L526.142,66.201L526.141,66.202L526.14,66.202L526.139,66.203L526.137,66.203L526.136,66.204L526.135,66.205L526.134,66.206L526.132,66.207L526.131,66.208L526.13,66.209L526.128,66.21L526.127,66.212L526.126,66.213L526.125,66.215L526.125,66.215L526.124,66.217L526.123,66.218L526.123,66.219L526.122,66.22L526.122,66.221L526.122,66.222L526.121,66.223L526.121,66.224L526.121,66.226L526.121,66.228L526.121,66.23L526.122,66.24L526.126,66.247L526.132,66.254L526.141,66.259L526.149,66.261L526.165,66.261L542.065,66.261L542.08,66.261L542.082,66.261L542.084,66.26L542.085,66.26L542.087,66.26L542.088,66.26L542.089,66.259L542.09,66.259L542.091,66.258L542.093,66.258L542.094,66.257L542.095,66.256L542.097,66.255L542.098,66.254L542.099,66.253L542.101,66.251L542.102,66.25L542.103,66.249L542.104,66.248L542.105,66.246L542.106,66.245L542.106,66.244L542.107,66.243L542.108,66.241L542.108,66.241L542.108,66.24L542.108,66.239L542.109,66.237L542.109,66.236L542.109,66.235L542.109,66.233L542.109,66.23L542.109,66.228L542.109,66.226L542.109,66.224L542.109,66.223L542.108,66.222L542.108,66.221L542.108,66.22L542.108,66.219L542.107,66.218L542.106,66.217L542.106,66.215L542.105,66.215L542.104,66.213L542.103,66.212L542.102,66.21L542.101,66.209L542.099,66.208L542.098,66.207L542.097,66.206L542.095,66.205L542.094,66.204L542.093,66.203L542.091,66.203L542.09,66.202L542.089,66.202L542.088,66.201L542.087,66.201L542.086,66.201L542.084,66.2L542.082,66.2L542.08,66.2L542.065,66.199L526.165,66.199ZM529.746,61.62L529.801,61.624L529.854,61.631L529.907,61.64L529.959,61.652L530.01,61.667L530.06,61.684L530.109,61.703L530.156,61.725L530.202,61.748L530.247,61.774L530.291,61.802L530.333,61.832L530.373,61.864L530.412,61.898L530.45,61.933L530.485,61.97L530.519,62.009L530.551,62.05L530.58,62.092L530.608,62.135L530.634,62.18L530.658,62.226L530.679,62.274L530.698,62.322L530.715,62.372L530.73,62.423L530.742,62.475L530.751,62.528L530.758,62.581L530.762,62.636L530.763,62.691L530.762,62.746L530.758,62.8L530.751,62.854L530.742,62.907L530.73,62.959L530.715,63.01L530.698,63.059L530.679,63.108L530.658,63.155L530.634,63.202L530.608,63.247L530.58,63.29L530.551,63.332L530.519,63.373L530.485,63.411L530.45,63.449L530.412,63.484L530.373,63.518L530.333,63.55L530.291,63.58L530.247,63.608L530.202,63.633L530.156,63.657L530.109,63.679L530.06,63.698L530.01,63.715L529.959,63.729L529.907,63.741L529.854,63.751L529.801,63.758L529.746,63.762L529.691,63.763L526.151,63.763L526.096,63.762L526.042,63.758L525.988,63.751L525.935,63.742L525.883,63.73L525.832,63.715L525.783,63.698L525.734,63.679L525.686,63.658L525.64,63.634L525.595,63.608L525.552,63.58L525.51,63.55L525.469,63.519L525.43,63.485L525.393,63.449L525.357,63.412L525.324,63.373L525.292,63.333L525.262,63.291L525.234,63.247L525.208,63.202L525.185,63.156L525.163,63.108L525.144,63.06L525.127,63.01L525.113,62.959L525.101,62.907L525.091,62.854L525.084,62.801L525.08,62.746L525.079,62.691L525.08,62.636L525.084,62.581L525.091,62.528L525.101,62.475L525.113,62.423L525.127,62.372L525.144,62.322L525.163,62.274L525.184,62.226L525.208,62.18L525.234,62.135L525.262,62.092L525.292,62.05L525.323,62.009L525.357,61.97L525.393,61.933L525.43,61.898L525.469,61.864L525.509,61.832L525.551,61.802L525.595,61.774L525.64,61.748L525.686,61.725L525.733,61.703L525.782,61.684L525.832,61.667L525.883,61.652L525.935,61.64L525.988,61.631L526.042,61.624L526.096,61.62L526.151,61.618L529.691,61.618L529.746,61.62ZM526.165,62.66L526.15,62.66L526.148,62.661L526.146,62.661L526.145,62.661L526.143,62.661L526.142,62.662L526.141,62.662L526.14,62.663L526.139,62.663L526.138,62.664L526.136,62.665L526.135,62.665L526.134,62.666L526.132,62.667L526.131,62.668L526.13,62.67L526.128,62.671L526.127,62.672L526.126,62.673L526.125,62.675L526.125,62.676L526.124,62.677L526.123,62.679L526.123,62.679L526.122,62.681L526.122,62.682L526.122,62.682L526.121,62.684L526.121,62.685L526.121,62.686L526.121,62.688L526.121,62.691L526.122,62.7L526.126,62.709L526.132,62.715L526.141,62.72L526.149,62.721L526.164,62.722L529.677,62.722L529.692,62.721L529.694,62.721L529.696,62.721L529.697,62.721L529.699,62.72L529.7,62.72L529.701,62.72L529.702,62.719L529.703,62.719L529.705,62.718L529.706,62.717L529.707,62.716L529.709,62.716L529.71,62.714L529.711,62.713L529.713,62.712L529.714,62.711L529.715,62.71L529.716,62.708L529.717,62.707L529.718,62.706L529.718,62.705L529.719,62.703L529.72,62.702L529.72,62.701L529.72,62.701L529.72,62.699L529.721,62.698L529.721,62.697L529.721,62.696L529.721,62.693L529.721,62.691L529.721,62.688L529.721,62.686L529.721,62.685L529.721,62.684L529.72,62.682L529.72,62.681L529.72,62.681L529.72,62.68L529.719,62.679L529.718,62.677L529.718,62.676L529.717,62.675L529.716,62.673L529.715,62.672L529.714,62.671L529.713,62.67L529.711,62.668L529.71,62.667L529.709,62.666L529.707,62.665L529.706,62.665L529.705,62.664L529.703,62.663L529.702,62.663L529.701,62.662L529.7,62.662L529.699,62.661L529.697,62.661L529.696,62.661L529.694,62.661L529.692,62.66L529.677,62.66L526.165,62.66Z" style="fill:white;"/>
    </g>
</svg>
