<?xml version="1.0" standalone="no"?>
<!DOCTYPE svg PUBLIC "-//W3C//DTD SVG 1.1//EN" "http://www.w3.org/Graphics/SVG/1.1/DTD/svg11.dtd">
<svg width="100%" height="100%" viewBox="0 0 34 35" version="1.1" xmlns="http://www.w3.org/2000/svg" xmlns:xlink="http://www.w3.org/1999/xlink" xml:space="preserve" style="fill-rule:evenodd;clip-rule:evenodd;stroke-linejoin:round;stroke-miterlimit:1.41421;">
    <g transform="matrix(1,0,0,1,-557,-50.9999)">
        <path id="Forma 1 copy 2" d="M574.055,51.001L574.11,51.005L574.163,51.012L574.216,51.022L574.268,51.034L574.319,51.048L574.369,51.065L574.417,51.084L574.465,51.106L574.511,51.129L574.556,51.155L574.6,51.183L574.642,51.213L574.682,51.245L574.721,51.279L574.758,51.314L574.794,51.351L574.828,51.39L574.859,51.431L574.889,51.473L574.917,51.516L574.943,51.561L574.967,51.608L574.988,51.655L575.007,51.704L575.024,51.754L575.039,51.804L575.051,51.856L575.06,51.909L575.067,51.963L575.071,52.017L575.072,52.072L575.072,52.77L589.927,52.77L589.983,52.771L590.037,52.775L590.091,52.782L590.144,52.791L590.195,52.803L590.246,52.818L590.296,52.835L590.345,52.854L590.392,52.875L590.439,52.899L590.483,52.925L590.527,52.953L590.569,52.983L590.61,53.015L590.648,53.048L590.686,53.084L590.721,53.121L590.755,53.16L590.787,53.201L590.817,53.243L590.845,53.286L590.87,53.331L590.894,53.377L590.916,53.425L590.935,53.473L590.952,53.523L590.966,53.574L590.978,53.626L590.987,53.679L590.994,53.733L590.998,53.787L591,53.842L591,57.382L590.998,57.437L590.994,57.491L590.987,57.545L590.978,57.598L590.966,57.65L590.952,57.701L590.935,57.75L590.916,57.799L590.894,57.847L590.87,57.893L590.845,57.938L590.817,57.981L590.787,58.023L590.755,58.064L590.721,58.103L590.686,58.14L590.648,58.176L590.61,58.209L590.569,58.241L590.527,58.271L590.483,58.299L590.439,58.325L590.392,58.348L590.345,58.37L590.296,58.389L590.246,58.406L590.195,58.42L590.144,58.432L590.091,58.442L590.037,58.449L589.983,58.453L589.927,58.454L589.23,58.454L589.23,76.849L589.229,76.904L589.225,76.958L589.218,77.012L589.208,77.065L589.196,77.117L589.182,77.167L589.165,77.217L589.146,77.266L589.124,77.314L589.101,77.36L589.075,77.405L589.047,77.448L589.017,77.49L588.985,77.531L588.952,77.57L588.916,77.607L588.879,77.642L588.84,77.676L588.799,77.708L588.757,77.738L588.714,77.766L588.669,77.792L588.623,77.815L588.575,77.837L588.526,77.856L588.477,77.873L588.426,77.887L588.374,77.899L588.321,77.909L588.267,77.915L588.213,77.92L588.158,77.921L576.145,77.921L580.167,83.284L580.199,83.329L580.228,83.375L580.255,83.422L580.279,83.47L580.301,83.519L580.32,83.568L580.336,83.618L580.35,83.668L580.362,83.719L580.37,83.771L580.377,83.822L580.38,83.874L580.382,83.925L580.381,83.977L580.377,84.028L580.371,84.079L580.362,84.13L580.351,84.18L580.338,84.23L580.322,84.279L580.304,84.328L580.284,84.375L580.261,84.422L580.236,84.468L580.209,84.512L580.179,84.556L580.147,84.598L580.112,84.638L580.076,84.678L580.037,84.715L579.996,84.751L579.953,84.785L579.916,84.812L579.879,84.836L579.841,84.859L579.802,84.88L579.763,84.899L579.724,84.917L579.683,84.933L579.643,84.947L579.602,84.959L579.561,84.97L579.519,84.979L579.478,84.987L579.436,84.993L579.394,84.997L579.352,84.999L579.31,85L579.279,85L579.249,84.998L579.218,84.996L579.188,84.993L579.158,84.989L579.128,84.984L579.098,84.979L579.068,84.972L579.038,84.965L579.009,84.957L578.979,84.948L578.95,84.938L578.922,84.928L578.893,84.916L578.865,84.904L578.837,84.891L578.81,84.877L578.783,84.862L578.756,84.846L578.729,84.83L578.704,84.813L578.678,84.795L578.653,84.776L578.628,84.756L578.604,84.736L578.581,84.715L578.558,84.693L578.535,84.67L578.513,84.646L578.492,84.622L578.471,84.597L578.451,84.571L575.072,80.066L575.072,83.927L575.071,83.983L575.067,84.037L575.06,84.091L575.051,84.144L575.039,84.195L575.024,84.246L575.007,84.296L574.988,84.345L574.967,84.392L574.943,84.439L574.917,84.484L574.889,84.527L574.859,84.569L574.828,84.61L574.794,84.649L574.758,84.686L574.721,84.721L574.682,84.755L574.642,84.787L574.6,84.817L574.556,84.845L574.511,84.87L574.465,84.894L574.417,84.916L574.369,84.935L574.319,84.952L574.268,84.966L574.216,84.978L574.163,84.988L574.11,84.994L574.055,84.999L574,85L573.945,84.999L573.89,84.994L573.837,84.988L573.784,84.978L573.732,84.966L573.681,84.952L573.631,84.935L573.582,84.916L573.535,84.894L573.489,84.87L573.444,84.845L573.4,84.817L573.358,84.787L573.318,84.755L573.279,84.721L573.242,84.686L573.206,84.649L573.172,84.61L573.141,84.569L573.111,84.527L573.083,84.484L573.057,84.439L573.033,84.392L573.012,84.345L572.993,84.296L572.976,84.246L572.961,84.195L572.949,84.144L572.94,84.091L572.933,84.037L572.929,83.983L572.927,83.927L572.927,80.066L569.549,84.571L569.529,84.597L569.508,84.622L569.487,84.646L569.465,84.67L569.442,84.693L569.419,84.715L569.396,84.736L569.372,84.756L569.347,84.776L569.322,84.795L569.296,84.813L569.27,84.83L569.244,84.846L569.217,84.862L569.19,84.877L569.163,84.891L569.135,84.904L569.107,84.916L569.078,84.928L569.049,84.938L569.02,84.948L568.991,84.957L568.962,84.965L568.932,84.972L568.902,84.979L568.872,84.984L568.842,84.989L568.812,84.993L568.781,84.996L568.751,84.998L568.721,85L568.69,85L568.648,84.999L568.606,84.997L568.564,84.993L568.522,84.987L568.48,84.979L568.439,84.97L568.398,84.959L568.357,84.947L568.316,84.933L568.276,84.917L568.237,84.899L568.198,84.88L568.159,84.859L568.121,84.836L568.084,84.812L568.047,84.785L568.004,84.751L567.963,84.715L567.924,84.678L567.887,84.638L567.853,84.598L567.821,84.556L567.791,84.512L567.764,84.468L567.739,84.422L567.716,84.375L567.696,84.328L567.677,84.279L567.662,84.23L567.648,84.18L567.638,84.13L567.629,84.079L567.623,84.028L567.619,83.977L567.618,83.925L567.62,83.874L567.623,83.822L567.63,83.771L567.638,83.719L567.65,83.668L567.664,83.618L567.68,83.568L567.699,83.519L567.721,83.47L567.745,83.422L567.771,83.375L567.801,83.329L567.833,83.284L571.855,77.921L559.842,77.921L559.787,77.92L559.732,77.915L559.679,77.908L559.626,77.899L559.574,77.887L559.523,77.872L559.473,77.855L559.424,77.836L559.377,77.815L559.331,77.791L559.286,77.765L559.242,77.737L559.2,77.707L559.16,77.675L559.121,77.642L559.083,77.606L559.048,77.569L559.014,77.53L558.982,77.49L558.953,77.448L558.925,77.404L558.899,77.359L558.875,77.313L558.854,77.266L558.835,77.217L558.818,77.167L558.803,77.116L558.791,77.064L558.782,77.012L558.775,76.958L558.771,76.904L558.77,76.849L558.77,58.454L558.072,58.454L558.017,58.453L557.963,58.449L557.909,58.442L557.856,58.432L557.804,58.42L557.753,58.406L557.703,58.389L557.655,58.369L557.607,58.348L557.561,58.324L557.516,58.298L557.472,58.27L557.43,58.241L557.39,58.209L557.351,58.175L557.314,58.139L557.278,58.102L557.245,58.063L557.213,58.023L557.183,57.981L557.155,57.937L557.129,57.892L557.106,57.846L557.084,57.799L557.065,57.75L557.048,57.7L557.034,57.649L557.022,57.598L557.012,57.545L557.006,57.491L557.001,57.437L557,57.382L557,53.842L557.001,53.787L557.006,53.733L557.012,53.679L557.022,53.626L557.034,53.574L557.048,53.524L557.065,53.474L557.084,53.425L557.106,53.378L557.129,53.331L557.155,53.287L557.183,53.243L557.213,53.201L557.245,53.161L557.278,53.122L557.314,53.084L557.351,53.049L557.39,53.015L557.43,52.983L557.472,52.953L557.516,52.926L557.561,52.9L557.607,52.876L557.655,52.855L557.703,52.835L557.753,52.818L557.804,52.804L557.856,52.792L557.909,52.782L557.963,52.775L558.017,52.771L558.072,52.77L572.927,52.77L572.927,52.072L572.929,52.017L572.933,51.963L572.94,51.909L572.949,51.856L572.961,51.804L572.976,51.754L572.993,51.704L573.012,51.655L573.033,51.608L573.057,51.561L573.083,51.516L573.111,51.473L573.141,51.431L573.172,51.39L573.206,51.351L573.242,51.314L573.279,51.279L573.318,51.245L573.358,51.213L573.4,51.183L573.444,51.155L573.489,51.129L573.535,51.106L573.582,51.084L573.631,51.065L573.681,51.048L573.732,51.034L573.784,51.022L573.837,51.012L573.89,51.005L573.945,51.001L574,51L574.055,51.001ZM573.997,52.042L573.995,52.042L573.994,52.042L573.993,52.043L573.992,52.043L573.991,52.043L573.989,52.043L573.988,52.044L573.987,52.044L573.986,52.045L573.985,52.046L573.984,52.047L573.982,52.047L573.981,52.048L573.98,52.05L573.978,52.051L573.977,52.052L573.976,52.053L573.975,52.055L573.974,52.056L573.973,52.058L573.972,52.059L573.972,52.06L573.972,52.061L573.971,52.062L573.971,52.063L573.97,52.064L573.97,52.065L573.97,52.067L573.97,52.068L573.969,52.07L573.969,52.086L573.969,53.811L558.086,53.811L558.071,53.812L558.069,53.812L558.067,53.812L558.066,53.812L558.065,53.813L558.063,53.813L558.062,53.814L558.061,53.814L558.06,53.815L558.059,53.815L558.057,53.816L558.056,53.817L558.055,53.818L558.053,53.819L558.052,53.82L558.051,53.821L558.05,53.822L558.048,53.824L558.047,53.825L558.047,53.826L558.046,53.827L558.045,53.829L558.044,53.83L558.044,53.83L558.044,53.831L558.043,53.833L558.043,53.834L558.043,53.835L558.042,53.836L558.042,53.838L558.042,53.84L558.042,53.855L558.042,57.369L558.042,57.386L558.044,57.394L558.05,57.402L558.057,57.408L558.066,57.411L558.071,57.412L558.086,57.413L559.811,57.413L559.811,76.836L559.812,76.853L559.814,76.861L559.819,76.868L559.827,76.875L559.834,76.878L559.841,76.879L559.856,76.879L573.938,76.879L568.674,83.899L568.665,83.912L568.664,83.913L568.663,83.914L568.663,83.915L568.662,83.917L568.662,83.918L568.661,83.919L568.661,83.92L568.661,83.921L568.661,83.922L568.66,83.923L568.66,83.925L568.66,83.927L568.662,83.937L568.665,83.944L568.67,83.95L568.679,83.956L568.689,83.958L568.692,83.958L568.692,83.958L568.693,83.958L568.694,83.958L568.695,83.958L568.696,83.958L568.697,83.957L568.698,83.957L568.699,83.957L568.7,83.957L568.701,83.956L568.702,83.956L568.703,83.956L568.704,83.955L568.704,83.955L568.705,83.955L568.706,83.954L568.707,83.954L568.707,83.954L568.708,83.953L568.708,83.953L568.709,83.953L568.709,83.952L568.71,83.952L568.71,83.951L568.711,83.951L568.712,83.95L568.712,83.95L568.713,83.949L568.714,83.948L568.715,83.947L568.72,83.94L573.969,76.941L573.969,83.914L573.97,83.932L573.972,83.941L573.978,83.949L573.986,83.955L573.994,83.958L574,83.958L574.002,83.958L574.004,83.958L574.006,83.958L574.007,83.957L574.008,83.957L574.009,83.957L574.011,83.956L574.012,83.956L574.013,83.955L574.014,83.955L574.015,83.954L574.016,83.953L574.018,83.952L574.019,83.951L574.02,83.95L574.022,83.949L574.023,83.947L574.024,83.946L574.025,83.945L574.026,83.944L574.027,83.943L574.027,83.941L574.028,83.94L574.029,83.939L574.029,83.938L574.029,83.937L574.03,83.936L574.03,83.934L574.03,83.933L574.03,83.932L574.03,83.93L574.031,83.914L574.031,76.941L579.28,83.94L579.289,83.951L579.298,83.956L579.308,83.958L579.311,83.958L579.313,83.958L579.314,83.958L579.315,83.958L579.316,83.958L579.317,83.957L579.318,83.957L579.319,83.957L579.32,83.956L579.32,83.956L579.321,83.956L579.322,83.955L579.324,83.955L579.325,83.954L579.326,83.953L579.329,83.951L579.331,83.949L579.332,83.948L579.333,83.947L579.334,83.946L579.334,83.945L579.335,83.944L579.335,83.943L579.336,83.943L579.337,83.941L579.337,83.94L579.338,83.938L579.338,83.937L579.339,83.935L579.339,83.934L579.339,83.932L579.34,83.93L579.34,83.929L579.34,83.927L579.34,83.925L579.34,83.924L579.339,83.922L579.339,83.921L579.339,83.92L579.339,83.919L579.338,83.917L579.338,83.917L579.338,83.916L579.337,83.914L579.336,83.913L579.335,83.912L579.326,83.899L574.062,76.879L588.144,76.879L588.16,76.879L588.162,76.879L588.164,76.879L588.165,76.878L588.166,76.878L588.167,76.878L588.168,76.877L588.169,76.877L588.17,76.877L588.172,76.876L588.173,76.875L588.174,76.875L588.175,76.874L588.177,76.872L588.178,76.871L588.179,76.87L588.18,76.869L588.182,76.867L588.183,76.866L588.184,76.865L588.184,76.864L588.185,76.862L588.186,76.861L588.186,76.86L588.187,76.859L588.187,76.858L588.187,76.857L588.187,76.856L588.188,76.855L588.188,76.853L588.188,76.851L588.188,76.835L588.188,57.413L589.914,57.413L589.93,57.412L589.932,57.412L589.933,57.412L589.935,57.412L589.936,57.411L589.937,57.411L589.938,57.411L589.939,57.41L589.94,57.41L589.941,57.409L589.942,57.409L589.944,57.408L589.945,57.407L589.946,57.406L589.948,57.404L589.949,57.403L589.95,57.402L589.951,57.401L589.952,57.399L589.953,57.398L589.954,57.397L589.955,57.396L589.955,57.394L589.956,57.393L589.956,57.392L589.957,57.391L589.957,57.39L589.957,57.389L589.957,57.388L589.958,57.386L589.958,57.384L589.958,57.368L589.958,53.856L589.958,53.84L589.958,53.838L589.957,53.836L589.957,53.835L589.957,53.834L589.957,53.832L589.956,53.832L589.956,53.831L589.955,53.829L589.955,53.828L589.954,53.827L589.953,53.826L589.952,53.824L589.951,53.823L589.95,53.822L589.949,53.82L589.948,53.819L589.946,53.818L589.945,53.817L589.944,53.816L589.942,53.815L589.941,53.815L589.94,53.814L589.939,53.814L589.938,53.813L589.937,53.813L589.936,53.813L589.935,53.812L589.933,53.812L589.932,53.812L589.93,53.812L589.914,53.811L574.031,53.811L574.031,52.085L574.03,52.07L574.03,52.068L574.03,52.067L574.03,52.066L574.03,52.064L574.029,52.063L574.029,52.062L574.029,52.061L574.028,52.06L574.027,52.059L574.027,52.057L574.026,52.056L574.025,52.055L574.024,52.053L574.023,52.052L574.022,52.051L574.02,52.049L574.019,52.048L574.018,52.048L574.016,52.047L574.015,52.046L574.014,52.045L574.013,52.044L574.011,52.044L574.01,52.043L574.009,52.043L574.008,52.043L574.007,52.043L574.006,52.042L574.004,52.042L574.002,52.042L574,52.042L573.997,52.042ZM588.127,76.818L559.873,76.818L559.873,57.413L588.127,57.413L588.127,76.818ZM560.915,58.454L560.915,75.776L587.085,75.776L587.085,58.454L560.915,58.454ZM575.825,68.699L575.879,68.703L575.933,68.71L575.986,68.719L576.038,68.731L576.089,68.746L576.139,68.763L576.188,68.782L576.235,68.803L576.281,68.827L576.326,68.853L576.37,68.881L576.412,68.911L576.452,68.943L576.491,68.976L576.528,69.012L576.564,69.049L576.598,69.088L576.629,69.129L576.659,69.171L576.687,69.214L576.713,69.259L576.737,69.305L576.758,69.353L576.777,69.401L576.794,69.451L576.808,69.502L576.82,69.554L576.83,69.606L576.837,69.66L576.841,69.715L576.842,69.77L576.841,69.825L576.837,69.879L576.83,69.933L576.82,69.986L576.808,70.038L576.794,70.089L576.777,70.138L576.758,70.187L576.736,70.235L576.713,70.281L576.687,70.326L576.659,70.369L576.629,70.411L576.597,70.452L576.564,70.491L576.528,70.528L576.491,70.564L576.452,70.597L576.411,70.629L576.369,70.659L576.326,70.687L576.281,70.713L576.235,70.736L576.187,70.758L576.138,70.777L576.089,70.794L576.038,70.808L575.986,70.82L575.933,70.83L575.879,70.837L575.825,70.841L575.77,70.842L565.151,70.842L565.096,70.841L565.042,70.837L564.988,70.83L564.935,70.82L564.883,70.808L564.832,70.794L564.783,70.777L564.734,70.758L564.686,70.736L564.64,70.713L564.595,70.687L564.552,70.659L564.51,70.629L564.469,70.597L564.43,70.564L564.393,70.528L564.357,70.491L564.324,70.452L564.292,70.411L564.262,70.369L564.234,70.326L564.208,70.281L564.185,70.235L564.163,70.187L564.144,70.138L564.127,70.089L564.113,70.038L564.101,69.986L564.091,69.933L564.084,69.879L564.08,69.825L564.079,69.77L564.08,69.715L564.084,69.66L564.091,69.606L564.101,69.554L564.113,69.502L564.127,69.451L564.144,69.401L564.163,69.353L564.184,69.305L564.208,69.259L564.234,69.214L564.262,69.171L564.292,69.129L564.323,69.088L564.357,69.049L564.393,69.012L564.43,68.976L564.469,68.943L564.509,68.911L564.551,68.881L564.595,68.853L564.64,68.827L564.686,68.803L564.733,68.782L564.782,68.763L564.832,68.746L564.883,68.731L564.935,68.719L564.988,68.71L565.042,68.703L565.096,68.699L565.151,68.697L575.77,68.697L575.825,68.699ZM565.165,69.739L565.15,69.739L565.148,69.739L565.146,69.74L565.145,69.74L565.143,69.74L565.142,69.741L565.141,69.741L565.14,69.741L565.138,69.742L565.137,69.743L565.136,69.743L565.135,69.744L565.133,69.745L565.132,69.746L565.131,69.747L565.129,69.749L565.128,69.75L565.127,69.751L565.126,69.752L565.125,69.754L565.124,69.755L565.124,69.756L565.123,69.757L565.123,69.758L565.122,69.759L565.122,69.76L565.122,69.761L565.121,69.762L565.121,69.764L565.121,69.765L565.121,69.767L565.121,69.77L565.122,69.779L565.125,69.786L565.131,69.792L565.14,69.798L565.147,69.8L565.165,69.801L575.756,69.801L575.772,69.8L575.774,69.8L575.776,69.8L575.777,69.8L575.778,69.799L575.779,69.799L575.78,69.799L575.781,69.798L575.782,69.798L575.784,69.797L575.785,69.797L575.786,69.796L575.788,69.795L575.789,69.794L575.79,69.793L575.791,69.791L575.793,69.79L575.794,69.789L575.795,69.787L575.796,69.786L575.796,69.785L575.797,69.784L575.798,69.783L575.798,69.781L575.799,69.78L575.799,69.779L575.799,69.778L575.8,69.777L575.8,69.776L575.8,69.774L575.8,69.772L575.8,69.77L575.8,69.767L575.8,69.765L575.8,69.763L575.8,69.762L575.799,69.761L575.799,69.76L575.799,69.759L575.798,69.758L575.798,69.757L575.797,69.756L575.797,69.755L575.796,69.754L575.795,69.752L575.794,69.751L575.793,69.75L575.792,69.749L575.79,69.747L575.789,69.746L575.788,69.745L575.786,69.744L575.785,69.743L575.784,69.743L575.782,69.742L575.781,69.741L575.78,69.741L575.779,69.741L575.778,69.74L575.776,69.74L575.775,69.74L575.773,69.739L575.771,69.739L575.756,69.739L565.165,69.739ZM581.134,65.159L581.189,65.164L581.242,65.17L581.295,65.18L581.347,65.192L581.398,65.206L581.448,65.223L581.497,65.243L581.544,65.264L581.591,65.288L581.635,65.314L581.679,65.342L581.721,65.372L581.761,65.403L581.8,65.437L581.838,65.473L581.873,65.51L581.907,65.549L581.939,65.589L581.968,65.631L581.996,65.675L582.022,65.72L582.046,65.766L582.067,65.813L582.086,65.862L582.103,65.912L582.118,65.963L582.13,66.014L582.139,66.067L582.146,66.121L582.15,66.175L582.151,66.23L582.15,66.286L582.146,66.34L582.139,66.394L582.13,66.446L582.118,66.498L582.103,66.549L582.086,66.599L582.067,66.647L582.046,66.695L582.022,66.741L581.996,66.786L581.968,66.829L581.939,66.871L581.907,66.912L581.873,66.951L581.838,66.988L581.8,67.024L581.761,67.057L581.721,67.089L581.679,67.119L581.635,67.147L581.591,67.173L581.544,67.197L581.497,67.218L581.448,67.237L581.398,67.254L581.347,67.269L581.295,67.281L581.242,67.29L581.189,67.297L581.134,67.301L581.079,67.303L565.151,67.303L565.096,67.302L565.042,67.297L564.988,67.291L564.935,67.281L564.883,67.269L564.832,67.255L564.783,67.238L564.734,67.219L564.686,67.197L564.64,67.173L564.595,67.148L564.552,67.12L564.51,67.09L564.469,67.058L564.43,67.024L564.393,66.989L564.357,66.952L564.324,66.913L564.292,66.872L564.262,66.83L564.234,66.786L564.208,66.742L564.185,66.695L564.163,66.648L564.144,66.599L564.127,66.549L564.113,66.498L564.101,66.447L564.091,66.394L564.084,66.34L564.08,66.286L564.079,66.23L564.08,66.175L564.084,66.121L564.091,66.067L564.101,66.014L564.113,65.963L564.127,65.912L564.144,65.862L564.163,65.813L564.184,65.766L564.208,65.72L564.234,65.675L564.262,65.631L564.292,65.589L564.323,65.549L564.357,65.51L564.393,65.473L564.43,65.437L564.469,65.403L564.509,65.372L564.551,65.342L564.595,65.314L564.64,65.288L564.686,65.264L564.733,65.243L564.782,65.223L564.832,65.206L564.883,65.192L564.935,65.18L564.988,65.17L565.042,65.164L565.096,65.159L565.151,65.158L581.079,65.158L581.134,65.159ZM565.165,66.199L565.15,66.2L565.148,66.2L565.146,66.2L565.145,66.201L565.143,66.201L565.142,66.201L565.141,66.202L565.14,66.202L565.138,66.203L565.137,66.203L565.136,66.204L565.135,66.205L565.133,66.206L565.132,66.207L565.131,66.208L565.129,66.209L565.128,66.21L565.127,66.212L565.126,66.213L565.125,66.214L565.124,66.216L565.124,66.217L565.123,66.218L565.123,66.219L565.122,66.22L565.122,66.221L565.122,66.222L565.121,66.223L565.121,66.225L565.121,66.226L565.121,66.228L565.121,66.23L565.122,66.24L565.125,66.246L565.131,66.253L565.14,66.259L565.147,66.261L565.165,66.261L581.065,66.261L581.08,66.261L581.082,66.261L581.084,66.26L581.085,66.26L581.087,66.26L581.088,66.26L581.089,66.259L581.09,66.259L581.092,66.258L581.093,66.257L581.094,66.257L581.095,66.256L581.097,66.255L581.098,66.254L581.099,66.253L581.101,66.251L581.102,66.25L581.103,66.249L581.104,66.248L581.105,66.246L581.106,66.245L581.106,66.244L581.107,66.243L581.108,66.242L581.108,66.241L581.108,66.24L581.109,66.239L581.109,66.238L581.109,66.236L581.109,66.235L581.109,66.233L581.109,66.23L581.109,66.228L581.109,66.226L581.109,66.224L581.109,66.223L581.109,66.222L581.108,66.221L581.108,66.22L581.108,66.219L581.107,66.218L581.106,66.216L581.106,66.216L581.105,66.214L581.104,66.213L581.103,66.212L581.102,66.21L581.101,66.209L581.099,66.208L581.098,66.207L581.097,66.206L581.095,66.205L581.094,66.204L581.093,66.203L581.092,66.203L581.09,66.202L581.089,66.202L581.088,66.201L581.087,66.201L581.085,66.201L581.084,66.2L581.082,66.2L581.08,66.2L581.065,66.199L565.165,66.199ZM568.746,61.62L568.801,61.624L568.854,61.631L568.907,61.64L568.959,61.652L569.01,61.667L569.06,61.684L569.109,61.703L569.156,61.725L569.202,61.748L569.247,61.774L569.291,61.802L569.333,61.832L569.373,61.864L569.412,61.898L569.45,61.933L569.485,61.97L569.519,62.009L569.551,62.05L569.58,62.092L569.608,62.135L569.634,62.18L569.658,62.226L569.679,62.274L569.698,62.322L569.715,62.372L569.73,62.423L569.742,62.475L569.751,62.528L569.758,62.581L569.762,62.636L569.763,62.691L569.762,62.746L569.758,62.8L569.751,62.854L569.742,62.907L569.73,62.959L569.715,63.01L569.698,63.059L569.679,63.108L569.658,63.155L569.634,63.202L569.608,63.247L569.58,63.29L569.551,63.332L569.519,63.373L569.485,63.411L569.45,63.449L569.412,63.484L569.373,63.518L569.333,63.55L569.291,63.58L569.247,63.608L569.202,63.633L569.156,63.657L569.109,63.679L569.06,63.698L569.01,63.715L568.959,63.729L568.907,63.741L568.854,63.751L568.801,63.758L568.746,63.762L568.691,63.763L565.151,63.763L565.096,63.762L565.042,63.758L564.988,63.751L564.935,63.742L564.883,63.73L564.832,63.715L564.783,63.698L564.734,63.679L564.686,63.658L564.64,63.634L564.595,63.608L564.552,63.58L564.51,63.55L564.469,63.519L564.43,63.485L564.393,63.449L564.357,63.412L564.324,63.373L564.292,63.333L564.262,63.291L564.234,63.247L564.208,63.202L564.185,63.156L564.163,63.108L564.144,63.06L564.127,63.01L564.113,62.959L564.101,62.907L564.091,62.854L564.084,62.801L564.08,62.746L564.079,62.691L564.08,62.636L564.084,62.581L564.091,62.528L564.101,62.475L564.113,62.423L564.127,62.372L564.144,62.322L564.163,62.274L564.184,62.226L564.208,62.18L564.234,62.135L564.262,62.092L564.292,62.05L564.323,62.009L564.357,61.97L564.393,61.933L564.43,61.898L564.469,61.864L564.509,61.832L564.551,61.802L564.595,61.774L564.64,61.748L564.686,61.725L564.733,61.703L564.782,61.684L564.832,61.667L564.883,61.652L564.935,61.64L564.988,61.631L565.042,61.624L565.096,61.62L565.151,61.618L568.691,61.618L568.746,61.62ZM565.165,62.66L565.15,62.66L565.148,62.661L565.146,62.661L565.145,62.661L565.144,62.661L565.142,62.662L565.141,62.662L565.14,62.663L565.138,62.663L565.137,62.664L565.136,62.664L565.135,62.665L565.133,62.666L565.132,62.667L565.131,62.669L565.129,62.67L565.128,62.671L565.127,62.672L565.126,62.674L565.125,62.675L565.124,62.676L565.124,62.677L565.123,62.678L565.123,62.68L565.122,62.681L565.122,62.681L565.122,62.682L565.121,62.684L565.121,62.685L565.121,62.686L565.121,62.688L565.121,62.691L565.122,62.7L565.125,62.707L565.131,62.714L565.14,62.719L565.147,62.721L565.165,62.722L568.677,62.722L568.692,62.721L568.694,62.721L568.696,62.721L568.697,62.721L568.699,62.72L568.7,62.72L568.701,62.72L568.702,62.719L568.704,62.719L568.705,62.718L568.706,62.717L568.708,62.716L568.709,62.716L568.71,62.714L568.711,62.713L568.712,62.712L568.714,62.711L568.715,62.709L568.716,62.708L568.717,62.707L568.718,62.706L568.718,62.704L568.719,62.703L568.719,62.702L568.72,62.701L568.72,62.7L568.721,62.699L568.721,62.698L568.721,62.697L568.721,62.695L568.721,62.693L568.721,62.691L568.721,62.688L568.721,62.686L568.721,62.685L568.721,62.684L568.721,62.683L568.72,62.682L568.72,62.681L568.72,62.68L568.719,62.678L568.718,62.677L568.718,62.676L568.717,62.675L568.716,62.674L568.715,62.672L568.714,62.671L568.712,62.67L568.711,62.669L568.71,62.667L568.708,62.666L568.708,62.665L568.706,62.665L568.705,62.664L568.703,62.663L568.702,62.663L568.701,62.662L568.7,62.662L568.699,62.661L568.697,62.661L568.696,62.661L568.694,62.661L568.692,62.66L568.677,62.66L565.165,62.66ZM589.896,57.351L558.103,57.351L558.103,53.873L589.896,53.873L589.896,57.351ZM559.145,54.915L559.145,56.309L588.855,56.309L588.855,54.915L559.145,54.915Z" style="fill:rgb(0,190,242);"/>
    </g>
</svg>
