<?xml version="1.0" standalone="no"?>
<!DOCTYPE svg PUBLIC "-//W3C//DTD SVG 1.1//EN" "http://www.w3.org/Graphics/SVG/1.1/DTD/svg11.dtd">
<svg width="100%" height="100%" viewBox="0 0 46 46" version="1.1" xmlns="http://www.w3.org/2000/svg" xmlns:xlink="http://www.w3.org/1999/xlink" xml:space="preserve" style="fill-rule:evenodd;clip-rule:evenodd;stroke-linejoin:round;stroke-miterlimit:1.41421;">
    <g transform="matrix(1,0,0,1,-1017,-44.9999)">
        <path id="Forma 1 copy 6" d="M1022.62,52.031L1022.62,46.406C1022.62,45.629 1023.25,45 1024.03,45C1024.81,45 1025.44,45.629 1025.44,46.406L1025.44,52.031C1025.44,52.808 1024.81,53.437 1024.03,53.437C1023.25,53.437 1022.62,52.808 1022.62,52.031ZM1046.53,53.437C1047.31,53.437 1047.94,52.808 1047.94,52.031L1047.94,46.406C1047.94,45.629 1047.31,45 1046.53,45C1045.75,45 1045.12,45.629 1045.12,46.406L1045.12,52.031C1045.12,52.808 1045.75,53.437 1046.53,53.437ZM1062,78.75C1062,84.963 1056.96,90 1050.75,90C1044.54,90 1039.5,84.963 1039.5,78.75C1039.5,72.537 1044.54,67.5 1050.75,67.5C1056.96,67.5 1062,72.537 1062,78.75ZM1059.19,78.75C1059.19,74.097 1055.4,70.312 1050.75,70.312C1046.1,70.312 1042.31,74.097 1042.31,78.75C1042.31,83.403 1046.1,87.187 1050.75,87.187C1055.4,87.187 1059.19,83.403 1059.19,78.75ZM1028.25,61.875L1022.62,61.875L1022.62,67.5L1028.25,67.5L1028.25,61.875ZM1022.62,75.937L1028.25,75.937L1028.25,70.312L1022.62,70.312L1022.62,75.937ZM1031.06,67.5L1036.69,67.5L1036.69,61.875L1031.06,61.875L1031.06,67.5ZM1031.06,75.937L1036.69,75.937L1036.69,70.312L1031.06,70.312L1031.06,75.937ZM1019.81,78.47L1019.81,59.062L1050.75,59.062L1050.75,64.687L1053.56,64.687L1053.56,53.718C1053.56,52.009 1052.2,50.625 1050.52,50.625L1049.34,50.625L1049.34,52.031C1049.34,53.58 1048.08,54.844 1046.53,54.844C1044.98,54.844 1043.72,53.58 1043.72,52.031L1043.72,50.625L1026.84,50.625L1026.84,52.031C1026.84,53.58 1025.58,54.844 1024.03,54.844C1022.48,54.844 1021.22,53.58 1021.22,52.031L1021.22,50.625L1020.05,50.625C1018.36,50.625 1017,52.009 1017,53.718L1017,78.47C1017,80.173 1018.36,81.562 1020.05,81.562L1036.69,81.562L1036.69,78.75L1020.05,78.75C1019.92,78.75 1019.81,78.618 1019.81,78.47ZM1045.12,67.5L1045.12,61.875L1039.5,61.875L1039.5,67.5L1045.12,67.5ZM1054.97,78.75L1050.75,78.75L1050.75,74.531C1050.75,73.754 1050.12,73.125 1049.34,73.125C1048.57,73.125 1047.94,73.754 1047.94,74.531L1047.94,80.156C1047.94,80.933 1048.57,81.562 1049.34,81.562L1054.97,81.562C1055.75,81.562 1056.38,80.933 1056.38,80.156C1056.38,79.379 1055.75,78.75 1054.97,78.75Z" style="fill:rgb(0,191,243);fill-rule:nonzero;"/>
    </g>
</svg>
