<?xml version="1.0" standalone="no"?>
<!DOCTYPE svg PUBLIC "-//W3C//DTD SVG 1.1//EN" "http://www.w3.org/Graphics/SVG/1.1/DTD/svg11.dtd">
<svg width="100%" height="100%" viewBox="0 0 21 17" version="1.1" xmlns="http://www.w3.org/2000/svg" xmlns:xlink="http://www.w3.org/1999/xlink" xml:space="preserve" style="fill-rule:evenodd;clip-rule:evenodd;stroke-linejoin:round;stroke-miterlimit:1.41421;">
    <g transform="matrix(1,0,0,1,-1217,-59.9998)">
        <path id="Forma 1 copy 7" d="M1225.62,76.987C1225.61,76.99 1225.6,76.992 1225.59,76.994C1225.59,76.994 1225.58,76.995 1225.58,76.996C1225.58,76.996 1225.58,76.996 1225.58,76.996C1225.56,76.998 1225.55,76.999 1225.54,76.999C1225.53,76.999 1225.53,77 1225.53,77C1225.52,77 1225.5,76.998 1225.48,76.996C1225.48,76.996 1225.48,76.996 1225.48,76.996C1225.48,76.996 1225.48,76.995 1225.48,76.995C1225.46,76.993 1225.45,76.989 1225.43,76.985L1225.42,76.98C1225.41,76.976 1225.4,76.97 1225.38,76.965L1225.38,76.961C1225.37,76.955 1225.36,76.948 1225.34,76.941L1225.34,76.935C1225.33,76.93 1225.32,76.924 1225.32,76.919C1225.31,76.917 1225.31,76.915 1225.31,76.913C1225.31,76.912 1225.31,76.91 1225.3,76.908L1225.29,76.898C1225.29,76.895 1225.29,76.893 1225.29,76.89C1225.28,76.886 1225.28,76.882 1225.28,76.879L1225.27,76.865C1225.27,76.863 1225.26,76.862 1225.26,76.86C1225.26,76.85 1225.25,76.839 1225.24,76.827C1225.24,76.825 1225.24,76.822 1225.24,76.819C1225.23,76.807 1225.23,76.794 1225.22,76.782L1225.22,76.774L1223.28,70.802L1217.21,68.478C1217.08,68.429 1217,68.308 1217,68.173C1217,68.038 1217.08,67.917 1217.21,67.868L1237.55,60.022L1237.56,60.018C1237.57,60.016 1237.57,60.015 1237.58,60.013C1237.58,60.012 1237.59,60.01 1237.59,60.009C1237.59,60.009 1237.6,60.009 1237.6,60.008C1237.6,60.007 1237.61,60.006 1237.61,60.005C1237.62,60.005 1237.62,60.004 1237.62,60.003C1237.63,60.003 1237.63,60.002 1237.63,60.002C1237.64,60.002 1237.64,60.001 1237.64,60.001C1237.65,60.001 1237.65,60 1237.66,60C1237.66,60 1237.67,60 1237.67,60L1237.68,60C1237.68,60 1237.69,60 1237.69,60C1237.69,60 1237.7,60.001 1237.7,60.001C1237.71,60.002 1237.71,60.002 1237.72,60.003C1237.72,60.003 1237.72,60.003 1237.72,60.003C1237.73,60.004 1237.73,60.005 1237.73,60.006C1237.74,60.007 1237.75,60.008 1237.75,60.01L1237.77,60.014C1237.77,60.016 1237.78,60.017 1237.78,60.018C1237.79,60.02 1237.79,60.022 1237.79,60.023L1237.81,60.03C1237.82,60.033 1237.82,60.035 1237.83,60.038C1237.83,60.04 1237.83,60.042 1237.84,60.045C1237.85,60.049 1237.85,60.052 1237.86,60.056C1237.86,60.059 1237.86,60.06 1237.87,60.062C1237.87,60.065 1237.87,60.067 1237.87,60.07C1237.88,60.07 1237.88,60.071 1237.88,60.072C1237.88,60.073 1237.88,60.074 1237.88,60.075L1237.89,60.083C1237.89,60.088 1237.9,60.092 1237.9,60.097C1237.91,60.099 1237.91,60.101 1237.91,60.103C1237.91,60.105 1237.91,60.106 1237.91,60.107C1237.92,60.11 1237.92,60.114 1237.92,60.117C1237.93,60.122 1237.93,60.128 1237.94,60.133L1237.94,60.141C1237.95,60.148 1237.95,60.154 1237.95,60.161L1237.96,60.175C1237.96,60.179 1237.97,60.184 1237.97,60.189L1237.98,60.203C1237.98,60.206 1237.98,60.208 1237.98,60.21C1237.98,60.213 1237.98,60.216 1237.98,60.218C1237.98,60.224 1237.99,60.23 1237.99,60.236L1237.99,60.249C1237.99,60.255 1237.99,60.261 1237.99,60.267C1238,60.271 1238,60.275 1238,60.279L1238,60.296C1238,60.296 1238,60.297 1238,60.298C1238,60.302 1238,60.307 1238,60.311L1238,60.343C1238,60.348 1238,60.353 1238,60.358L1238,60.376L1235.73,75.108C1235.71,75.206 1235.65,75.292 1235.57,75.341C1235.52,75.371 1235.46,75.386 1235.4,75.386C1235.37,75.386 1235.33,75.379 1235.29,75.364L1227.45,72.401L1226.62,74.653L1227.66,73.25C1227.77,73.105 1227.98,73.075 1228.12,73.182C1228.27,73.289 1228.3,73.494 1228.19,73.639L1225.8,76.867C1225.79,76.868 1225.79,76.869 1225.79,76.87C1225.79,76.871 1225.79,76.872 1225.79,76.874C1225.79,76.875 1225.79,76.876 1225.79,76.876C1225.78,76.887 1225.77,76.897 1225.76,76.907C1225.76,76.91 1225.76,76.912 1225.75,76.914C1225.75,76.917 1225.75,76.92 1225.74,76.922C1225.74,76.925 1225.74,76.927 1225.73,76.93C1225.73,76.934 1225.72,76.938 1225.72,76.942C1225.72,76.942 1225.72,76.943 1225.71,76.944C1225.71,76.946 1225.71,76.949 1225.7,76.951C1225.7,76.955 1225.69,76.959 1225.68,76.962C1225.68,76.963 1225.68,76.965 1225.67,76.967L1225.67,76.969C1225.66,76.971 1225.66,76.974 1225.65,76.976C1225.65,76.979 1225.64,76.98 1225.64,76.982C1225.64,76.983 1225.63,76.983 1225.63,76.984L1225.62,76.987ZM1235.44,61.538L1226.07,68.32C1225.92,68.426 1225.89,68.631 1225.99,68.777C1226.06,68.865 1226.16,68.912 1226.26,68.912C1226.33,68.912 1226.39,68.891 1226.45,68.849L1235.4,62.371L1227.03,71.745C1226.99,71.777 1226.97,71.816 1226.95,71.862C1226.95,71.869 1226.94,71.877 1226.94,71.885L1225.55,75.671L1223.85,70.452C1223.82,70.355 1223.75,70.283 1223.66,70.248C1223.66,70.248 1223.66,70.248 1223.66,70.248L1218.24,68.172L1235.44,61.538ZM1235.14,74.61L1227.82,71.841L1237.18,61.369L1235.14,74.61ZM1224.61,70.107C1224.68,70.107 1224.74,70.086 1224.8,70.044L1225.44,69.583C1225.59,69.476 1225.62,69.272 1225.51,69.126C1225.4,68.98 1225.2,68.947 1225.05,69.054L1224.42,69.515C1224.27,69.621 1224.24,69.826 1224.34,69.972C1224.41,70.06 1224.51,70.107 1224.61,70.107Z" style="fill:rgb(0,189,243);"/>
    </g>
</svg>
