<?xml version="1.0" standalone="no"?>
<!DOCTYPE svg PUBLIC "-//W3C//DTD SVG 1.1//EN" "http://www.w3.org/Graphics/SVG/1.1/DTD/svg11.dtd">
<svg width="100%" height="100%" viewBox="0 0 24 25" version="1.1" xmlns="http://www.w3.org/2000/svg" xmlns:xlink="http://www.w3.org/1999/xlink" xml:space="preserve" style="fill-rule:evenodd;clip-rule:evenodd;stroke-linejoin:round;stroke-miterlimit:1.41421;">
    <g transform="matrix(1,0,0,1,-1605,-50)">
        <path id="Forma 1 copy 9" d="M1623.31,65.566C1621.86,65.566 1620.57,66.231 1619.71,67.274L1614.11,64.076C1614.28,63.583 1614.38,63.053 1614.38,62.5C1614.38,61.948 1614.28,61.418 1614.11,60.925L1619.7,57.726C1620.57,58.769 1621.86,59.434 1623.31,59.434C1625.9,59.434 1628,57.318 1628,54.716C1628,52.116 1625.9,50 1623.31,50C1620.73,50 1618.62,52.116 1618.62,54.716C1618.62,55.269 1618.72,55.799 1618.89,56.292L1613.3,59.491C1612.43,58.449 1611.14,57.784 1609.69,57.784C1607.1,57.784 1605,59.9 1605,62.5C1605,65.101 1607.1,67.217 1609.69,67.217C1611.14,67.217 1612.43,66.552 1613.3,65.51L1618.89,68.708C1618.72,69.201 1618.62,69.731 1618.62,70.284C1618.62,72.884 1620.73,75 1623.31,75C1625.9,75 1628,72.884 1628,70.284C1628,67.683 1625.9,65.566 1623.31,65.566ZM1623.31,51.65C1624.99,51.65 1626.36,53.026 1626.36,54.716C1626.36,56.408 1624.99,57.784 1623.31,57.784C1621.63,57.784 1620.27,56.408 1620.27,54.716C1620.27,53.026 1621.63,51.65 1623.31,51.65ZM1609.69,65.566C1608.01,65.566 1606.64,64.191 1606.64,62.5C1606.64,60.81 1608.01,59.434 1609.69,59.434C1611.37,59.434 1612.74,60.81 1612.74,62.5C1612.74,64.191 1611.37,65.566 1609.69,65.566ZM1623.31,73.35C1621.63,73.35 1620.27,71.974 1620.27,70.284C1620.27,68.593 1621.63,67.217 1623.31,67.217C1624.99,67.217 1626.36,68.593 1626.36,70.284C1626.36,71.974 1624.99,73.35 1623.31,73.35Z" style="fill:rgb(0,189,243);fill-rule:nonzero;"/>
    </g>
</svg>
