<?xml version="1.0" standalone="no"?>
<!DOCTYPE svg PUBLIC "-//W3C//DTD SVG 1.1//EN" "http://www.w3.org/Graphics/SVG/1.1/DTD/svg11.dtd">
<svg width="100%" height="100%" viewBox="0 0 14 11" version="1.1" xmlns="http://www.w3.org/2000/svg" xmlns:xlink="http://www.w3.org/1999/xlink" xml:space="preserve" style="fill-rule:evenodd;clip-rule:evenodd;stroke-linejoin:round;stroke-miterlimit:1.41421;">
    <g transform="matrix(1,0,0,1,-176,-479)">
        <path id="Forma 1 copy 20" d="M183.551,487.704C184.213,487.705 184.75,488.215 184.75,488.84L184.75,488.863C184.75,489.489 184.211,489.999 183.551,489.999L177.199,489.999C176.538,489.999 176,489.489 176,488.863L176,488.84C176,488.215 176.537,487.705 177.199,487.704L183.551,487.704ZM188.801,483.354C189.463,483.355 190,483.865 190,484.49L190,484.513C190,485.139 189.463,485.649 188.801,485.65L177.199,485.65C176.538,485.65 176,485.14 176,484.513L176,484.49C176,483.865 176.537,483.355 177.199,483.354L188.801,483.354ZM185.336,479C185.997,479.001 186.534,479.511 186.534,480.136L186.534,480.159C186.534,480.785 185.997,481.295 185.336,481.296L177.203,481.296C176.538,481.296 176,480.785 176.005,480.159L176.005,480.136C176.005,479.511 176.542,479.001 177.203,479L185.336,479Z" style="fill:rgb(0,191,243);"/>
    </g>
</svg>
