<?xml version="1.0" standalone="no"?>
<!DOCTYPE svg PUBLIC "-//W3C//DTD SVG 1.1//EN" "http://www.w3.org/Graphics/SVG/1.1/DTD/svg11.dtd">
<svg width="100%" height="100%" viewBox="0 0 32 37" version="1.1" xmlns="http://www.w3.org/2000/svg" xmlns:xlink="http://www.w3.org/1999/xlink" xml:space="preserve" style="fill-rule:evenodd;clip-rule:evenodd;stroke-linejoin:round;stroke-miterlimit:1.41421;">
    <g transform="matrix(1,0,0,1,-743,-48.9998)">
        <path id="Forma 1 copy 2" d="M759.028,76.62L759.059,76.624L759.09,76.629L759.12,76.637L759.149,76.646L759.178,76.658L759.206,76.671L759.232,76.687L759.258,76.704L759.282,76.722L759.305,76.743L759.326,76.765L759.346,76.789L759.365,76.814L759.382,76.84L759.397,76.868L760.507,79.122L762.991,79.484L763.022,79.49L763.052,79.497L763.082,79.507L763.11,79.519L763.138,79.533L763.165,79.548L763.19,79.565L763.214,79.584L763.237,79.605L763.258,79.627L763.278,79.651L763.296,79.675L763.312,79.702L763.327,79.729L763.34,79.758L763.351,79.788L763.359,79.818L763.366,79.849L763.37,79.88L763.372,79.911L763.372,79.942L763.37,79.972L763.366,80.003L763.36,80.033L763.351,80.062L763.341,80.091L763.328,80.119L763.314,80.147L763.298,80.173L763.28,80.199L763.26,80.223L763.238,80.246L761.441,82L761.865,84.478L761.869,84.509L761.871,84.541L761.871,84.572L761.869,84.603L761.864,84.633L761.858,84.663L761.849,84.693L761.839,84.722L761.826,84.75L761.812,84.777L761.795,84.803L761.777,84.828L761.757,84.852L761.736,84.874L761.713,84.895L761.688,84.915L761.658,84.935L761.627,84.952L761.595,84.967L761.562,84.979L761.528,84.988L761.494,84.995L761.46,84.999L761.425,85L761.399,84.999L761.372,84.997L761.346,84.993L761.319,84.987L761.293,84.98L761.268,84.971L761.243,84.961L761.218,84.949L758.997,83.779L756.775,84.949L756.747,84.963L756.718,84.974L756.688,84.984L756.658,84.991L756.627,84.996L756.597,84.999L756.566,85L756.536,84.999L756.505,84.996L756.475,84.99L756.445,84.983L756.416,84.973L756.387,84.962L756.359,84.948L756.332,84.933L756.306,84.915L756.281,84.895L756.257,84.874L756.236,84.852L756.216,84.828L756.198,84.803L756.182,84.777L756.167,84.75L756.155,84.722L756.144,84.693L756.135,84.664L756.129,84.633L756.124,84.603L756.122,84.572L756.122,84.541L756.124,84.509L756.128,84.478L756.552,82.001L754.755,80.246L754.733,80.223L754.713,80.199L754.695,80.173L754.679,80.147L754.665,80.12L754.652,80.091L754.642,80.063L754.634,80.033L754.627,80.003L754.623,79.973L754.621,79.942L754.621,79.911L754.623,79.88L754.627,79.849L754.634,79.818L754.642,79.788L754.653,79.758L754.666,79.729L754.681,79.702L754.697,79.676L754.715,79.651L754.735,79.627L754.756,79.605L754.779,79.584L754.803,79.565L754.828,79.548L754.855,79.533L754.883,79.519L754.911,79.507L754.941,79.497L754.971,79.49L755.002,79.484L757.486,79.122L758.597,76.868L758.612,76.84L758.628,76.814L758.647,76.789L758.667,76.765L758.688,76.743L758.711,76.722L758.736,76.704L758.761,76.687L758.788,76.671L758.815,76.658L758.844,76.646L758.873,76.637L758.903,76.629L758.934,76.624L758.965,76.62L758.997,76.619L759.028,76.62ZM770.649,76.62L770.68,76.624L770.711,76.629L770.741,76.637L770.77,76.646L770.798,76.658L770.826,76.671L770.853,76.686L770.878,76.704L770.902,76.722L770.925,76.743L770.947,76.765L770.967,76.789L770.985,76.814L771.002,76.84L771.017,76.868L772.128,79.122L774.611,79.484L774.642,79.49L774.673,79.497L774.702,79.507L774.731,79.519L774.759,79.533L774.785,79.548L774.811,79.565L774.835,79.584L774.857,79.605L774.879,79.627L774.898,79.651L774.917,79.676L774.933,79.702L774.948,79.729L774.96,79.758L774.971,79.788L774.98,79.818L774.986,79.849L774.991,79.88L774.993,79.911L774.993,79.942L774.991,79.973L774.986,80.003L774.98,80.033L774.972,80.062L774.961,80.091L774.949,80.12L774.935,80.147L774.919,80.173L774.9,80.199L774.88,80.223L774.858,80.246L773.061,82L773.486,84.478L773.49,84.509L773.492,84.541L773.492,84.572L773.489,84.603L773.485,84.633L773.478,84.663L773.47,84.693L773.459,84.722L773.447,84.75L773.432,84.777L773.416,84.803L773.398,84.828L773.378,84.852L773.356,84.874L773.333,84.895L773.308,84.915L773.278,84.935L773.248,84.952L773.216,84.967L773.183,84.979L773.149,84.988L773.115,84.995L773.081,84.999L773.046,85L773.019,84.999L772.993,84.997L772.966,84.993L772.94,84.987L772.914,84.98L772.888,84.971L772.863,84.961L772.838,84.949L770.617,83.779L768.396,84.949L768.371,84.961L768.346,84.971L768.32,84.98L768.294,84.987L768.268,84.993L768.241,84.997L768.215,84.999L768.188,85L768.154,84.999L768.119,84.995L768.085,84.988L768.052,84.979L768.019,84.967L767.987,84.952L767.956,84.935L767.926,84.915L767.901,84.895L767.878,84.874L767.856,84.852L767.836,84.828L767.818,84.803L767.802,84.777L767.788,84.75L767.775,84.722L767.765,84.693L767.756,84.663L767.749,84.633L767.745,84.603L767.743,84.572L767.742,84.541L767.744,84.509L767.749,84.478L768.173,82L766.376,80.246L766.354,80.223L766.334,80.199L766.316,80.173L766.3,80.147L766.285,80.12L766.273,80.091L766.262,80.062L766.254,80.033L766.248,80.003L766.244,79.973L766.241,79.942L766.241,79.911L766.243,79.88L766.248,79.849L766.254,79.818L766.263,79.788L766.274,79.758L766.287,79.729L766.301,79.702L766.318,79.675L766.336,79.651L766.356,79.627L766.377,79.605L766.4,79.584L766.424,79.565L766.449,79.548L766.476,79.533L766.503,79.519L766.532,79.507L766.561,79.497L766.592,79.489L766.623,79.484L769.106,79.122L770.217,76.868L770.232,76.84L770.249,76.814L770.267,76.789L770.287,76.765L770.309,76.743L770.332,76.722L770.356,76.704L770.382,76.686L770.408,76.671L770.436,76.658L770.464,76.646L770.494,76.637L770.524,76.629L770.554,76.624L770.585,76.62L770.617,76.619L770.649,76.62ZM747.408,76.62L747.439,76.624L747.47,76.629L747.5,76.637L747.529,76.646L747.557,76.658L747.585,76.671L747.611,76.687L747.637,76.704L747.661,76.722L747.684,76.743L747.706,76.765L747.726,76.789L747.744,76.814L747.761,76.84L747.776,76.868L748.887,79.122L751.37,79.484L751.401,79.49L751.432,79.497L751.461,79.507L751.49,79.519L751.517,79.533L751.544,79.548L751.569,79.565L751.593,79.584L751.616,79.605L751.638,79.627L751.657,79.651L751.675,79.675L751.692,79.702L751.707,79.729L751.719,79.758L751.73,79.788L751.739,79.818L751.745,79.849L751.75,79.88L751.752,79.911L751.752,79.942L751.75,79.972L751.745,80.003L751.739,80.033L751.731,80.062L751.72,80.091L751.708,80.119L751.694,80.147L751.677,80.173L751.659,80.199L751.639,80.223L751.617,80.246L749.82,82L750.244,84.478L750.249,84.509L750.251,84.541L750.251,84.572L750.248,84.603L750.244,84.633L750.237,84.663L750.229,84.693L750.218,84.722L750.206,84.75L750.191,84.777L750.175,84.803L750.157,84.828L750.137,84.852L750.115,84.874L750.092,84.895L750.067,84.915L750.037,84.935L750.006,84.952L749.974,84.967L749.941,84.979L749.908,84.988L749.874,84.995L749.84,84.999L749.805,85L749.778,84.999L749.752,84.997L749.725,84.993L749.699,84.987L749.673,84.98L749.647,84.971L749.622,84.961L749.597,84.949L747.376,83.779L745.155,84.949L745.126,84.963L745.097,84.974L745.067,84.984L745.037,84.991L745.007,84.996L744.976,84.999L744.946,85L744.915,84.999L744.884,84.996L744.854,84.99L744.824,84.983L744.795,84.973L744.766,84.962L744.738,84.948L744.711,84.932L744.685,84.915L744.66,84.895L744.637,84.874L744.615,84.852L744.595,84.828L744.577,84.803L744.561,84.777L744.547,84.75L744.534,84.722L744.523,84.693L744.515,84.663L744.508,84.633L744.504,84.603L744.501,84.572L744.501,84.541L744.503,84.509L744.508,84.478L744.932,82.001L743.135,80.246L743.113,80.223L743.093,80.199L743.075,80.173L743.058,80.147L743.044,80.12L743.032,80.091L743.021,80.063L743.013,80.033L743.007,80.003L743.002,79.973L743,79.942L743,79.911L743.002,79.88L743.007,79.849L743.013,79.818L743.022,79.788L743.033,79.758L743.045,79.729L743.06,79.702L743.077,79.676L743.095,79.651L743.115,79.627L743.136,79.605L743.159,79.584L743.183,79.565L743.208,79.548L743.234,79.533L743.262,79.519L743.291,79.507L743.32,79.497L743.351,79.49L743.382,79.484L745.865,79.122L746.976,76.868L746.991,76.84L747.008,76.814L747.026,76.789L747.046,76.765L747.068,76.743L747.091,76.722L747.115,76.704L747.141,76.687L747.167,76.671L747.195,76.658L747.223,76.646L747.252,76.637L747.282,76.629L747.313,76.624L747.344,76.62L747.376,76.619L747.408,76.62ZM770.617,82.768L771.033,82.987L772.451,83.733L772.18,82.152L772.101,81.688L772.437,81.359L773.585,80.239L771.999,80.008L771.534,79.941L771.326,79.519L770.617,78.08L770.617,82.768ZM758.178,80.074L756.344,80.341L757.671,81.637L757.359,83.464L758.996,82.602L760.635,83.464L760.322,81.637L761.649,80.341L759.815,80.074L758.997,78.413L758.178,80.074ZM746.558,80.074L744.724,80.341L746.051,81.637L745.738,83.464L747.376,82.602L749.014,83.464L748.701,81.637L750.028,80.341L748.194,80.074L747.376,78.413L746.558,80.074ZM767.965,80.341L769.292,81.637L768.979,83.464L769.575,83.15L769.575,80.107L767.965,80.341ZM765.29,49.001L765.331,49.005L765.372,49.01L765.412,49.017L765.452,49.026L765.491,49.037L765.529,49.05L765.567,49.065L765.603,49.081L765.639,49.1L765.674,49.12L765.708,49.142L765.74,49.165L765.772,49.19L765.802,49.217L765.831,49.245L765.859,49.275L765.885,49.306L765.91,49.339L765.933,49.372L765.954,49.407L765.973,49.442L765.991,49.479L766.007,49.516L766.021,49.554L766.033,49.592L766.043,49.632L766.051,49.671L766.057,49.711L766.062,49.752L766.064,49.793L766.064,49.834L766.063,49.874L766.2,49.897L766.334,49.922L766.464,49.949L766.59,49.977L766.713,50.007L766.833,50.038L766.949,50.071L767.061,50.106L767.171,50.141L767.277,50.179L767.38,50.217L767.48,50.257L767.576,50.299L767.67,50.341L767.76,50.385L767.848,50.43L767.932,50.476L768.014,50.523L768.093,50.571L768.169,50.62L768.242,50.669L768.312,50.72L768.38,50.772L768.446,50.824L768.508,50.878L768.568,50.931L768.626,50.986L768.682,51.041L768.734,51.097L768.785,51.153L768.833,51.21L768.879,51.268L768.923,51.325L768.965,51.384L769.005,51.442L769.042,51.501L769.078,51.56L769.111,51.619L769.143,51.678L769.173,51.738L769.201,51.797L769.227,51.857L769.252,51.916L769.275,51.976L769.296,52.035L769.316,52.095L769.334,52.154L769.351,52.213L769.366,52.271L769.38,52.329L769.392,52.387L769.404,52.445L769.414,52.502L769.422,52.559L769.43,52.615L769.436,52.67L769.442,52.725L769.446,52.779L769.45,52.833L769.452,52.886L769.454,52.938L769.455,52.989L769.455,53.04L769.454,53.089L769.451,53.185L769.445,53.28L769.437,53.375L769.426,53.47L769.413,53.565L769.398,53.66L769.381,53.754L769.361,53.848L769.339,53.942L769.316,54.035L769.29,54.128L769.262,54.221L769.233,54.313L769.202,54.405L769.169,54.496L769.135,54.587L769.099,54.677L769.061,54.767L769.022,54.856L768.982,54.944L768.94,55.032L768.898,55.12L768.854,55.206L768.808,55.292L768.762,55.377L768.715,55.461L768.667,55.545L768.618,55.627L768.568,55.709L768.518,55.79L768.467,55.87L768.415,55.949L768.363,56.028L768.31,56.105L768.257,56.181L768.203,56.256L768.149,56.33L768.095,56.404L768.041,56.476L767.987,56.546L767.878,56.685L767.77,56.818L767.663,56.946L767.557,57.07L767.454,57.187L767.352,57.299L767.254,57.406L767.159,57.506L767.068,57.599L766.982,57.687L766.901,57.768L766.825,57.841L766.74,57.922L766.655,58.002L766.57,58.08L766.485,58.158L766.4,58.234L766.314,58.309L766.228,58.382L766.142,58.455L766.056,58.526L765.97,58.596L765.884,58.665L765.798,58.732L765.711,58.798L765.625,58.863L765.539,58.926L765.452,58.988L765.366,59.049L765.28,59.109L765.194,59.167L765.107,59.224L765.022,59.279L764.936,59.333L764.85,59.386L764.765,59.437L764.679,59.487L764.594,59.535L764.509,59.582L764.425,59.628L764.34,59.672L764.256,59.714L764.172,59.755L764.089,59.795L764.001,59.975L763.956,60.064L763.911,60.152L763.826,60.313L763.74,60.471L763.652,60.625L763.563,60.777L763.472,60.925L763.381,61.07L763.288,61.211L763.194,61.349L763.099,61.484L763.002,61.616L762.905,61.744L762.806,61.868L762.756,61.929L762.706,61.99L762.656,62.049L762.605,62.107L762.554,62.165L762.503,62.222L762.452,62.278L762.4,62.333L762.349,62.387L762.296,62.44L762.244,62.493L762.191,62.544L762.139,62.595L762.086,62.645L762.032,62.694L761.979,62.742L761.925,62.789L761.871,62.835L761.816,62.88L761.762,62.925L761.707,62.968L761.652,63.011L761.597,63.053L761.542,63.094L761.486,63.134L761.43,63.173L761.374,63.211L761.318,63.248L761.262,63.285L761.205,63.32L761.148,63.355L761.091,63.389L761.034,63.421L760.977,63.453L760.919,63.484L760.861,63.514L760.803,63.543L760.745,63.571L760.687,63.598L760.628,63.625L760.628,70.231L762.726,70.231L762.784,70.233L762.842,70.237L762.899,70.244L762.955,70.254L763.01,70.267L763.064,70.283L763.117,70.3L763.168,70.321L763.219,70.344L763.268,70.369L763.316,70.396L763.362,70.426L763.406,70.458L763.449,70.492L763.491,70.527L763.53,70.565L763.568,70.605L763.603,70.646L763.637,70.689L763.669,70.734L763.699,70.78L763.726,70.828L763.751,70.877L763.774,70.927L763.794,70.979L763.812,71.032L763.827,71.086L763.84,71.141L763.85,71.197L763.857,71.255L763.862,71.312L763.863,71.371L763.863,72.801L763.862,72.859L763.857,72.917L763.85,72.974L763.84,73.03L763.828,73.085L763.813,73.139L763.795,73.191L763.775,73.243L763.752,73.293L763.727,73.342L763.7,73.39L763.67,73.436L763.639,73.48L763.605,73.523L763.569,73.565L763.532,73.604L763.492,73.642L763.451,73.678L763.408,73.712L763.364,73.743L763.317,73.773L763.27,73.801L763.221,73.826L763.17,73.849L763.119,73.87L763.066,73.888L763.011,73.903L762.956,73.916L762.9,73.927L762.843,73.934L762.785,73.939L762.726,73.941L755.268,73.941L755.209,73.939L755.152,73.935L755.095,73.928L755.039,73.918L754.984,73.905L754.93,73.89L754.877,73.872L754.825,73.851L754.775,73.828L754.726,73.803L754.678,73.776L754.632,73.746L754.587,73.714L754.544,73.681L754.503,73.645L754.463,73.607L754.426,73.567L754.39,73.526L754.356,73.483L754.324,73.438L754.295,73.392L754.268,73.344L754.242,73.295L754.22,73.245L754.199,73.193L754.181,73.14L754.166,73.086L754.153,73.031L754.143,72.975L754.136,72.918L754.132,72.86L754.13,72.801L754.13,71.371L754.132,71.313L754.136,71.255L754.143,71.198L754.153,71.142L754.166,71.087L754.181,71.034L754.199,70.981L754.219,70.929L754.242,70.879L754.267,70.83L754.294,70.782L754.323,70.736L754.355,70.692L754.389,70.649L754.424,70.607L754.462,70.568L754.501,70.53L754.542,70.494L754.585,70.461L754.63,70.429L754.676,70.399L754.724,70.371L754.773,70.346L754.823,70.323L754.875,70.303L754.928,70.284L754.982,70.269L755.037,70.256L755.094,70.246L755.151,70.238L755.209,70.233L755.268,70.231L757.365,70.231L757.365,63.625L757.306,63.598L757.248,63.571L757.19,63.543L757.132,63.514L757.074,63.484L757.017,63.453L756.959,63.421L756.902,63.389L756.845,63.355L756.788,63.32L756.732,63.285L756.675,63.248L756.619,63.211L756.563,63.173L756.507,63.134L756.452,63.094L756.396,63.053L756.341,63.011L756.286,62.968L756.231,62.925L756.177,62.88L756.123,62.835L756.069,62.789L756.015,62.742L755.961,62.694L755.908,62.645L755.855,62.595L755.802,62.544L755.749,62.493L755.697,62.44L755.645,62.387L755.593,62.333L755.541,62.278L755.49,62.222L755.439,62.165L755.388,62.107L755.338,62.049L755.287,61.99L755.237,61.929L755.187,61.868L755.089,61.744L754.991,61.616L754.895,61.484L754.8,61.349L754.706,61.211L754.613,61.07L754.521,60.925L754.431,60.777L754.342,60.625L754.254,60.471L754.167,60.313L754.082,60.152L754.037,60.064L753.992,59.975L753.904,59.795L753.821,59.755L753.737,59.714L753.653,59.671L753.569,59.627L753.484,59.582L753.399,59.535L753.314,59.486L753.229,59.437L753.143,59.385L753.058,59.333L752.972,59.279L752.886,59.223L752.8,59.166L752.714,59.108L752.627,59.049L752.541,58.988L752.455,58.926L752.368,58.862L752.282,58.798L752.196,58.732L752.109,58.664L752.023,58.596L751.937,58.526L751.851,58.454L751.765,58.382L751.679,58.308L751.594,58.233L751.508,58.157L751.423,58.08L751.338,58.001L751.253,57.922L751.168,57.841L751.093,57.767L751.011,57.686L750.925,57.599L750.834,57.505L750.739,57.405L750.641,57.299L750.54,57.187L750.436,57.069L750.33,56.946L750.223,56.818L750.115,56.684L750.006,56.546L749.952,56.475L749.898,56.403L749.844,56.33L749.79,56.256L749.736,56.181L749.683,56.104L749.631,56.027L749.578,55.949L749.526,55.87L749.475,55.79L749.425,55.709L749.375,55.627L749.326,55.544L749.278,55.461L749.231,55.376L749.185,55.291L749.14,55.205L749.095,55.119L749.053,55.032L749.011,54.944L748.971,54.855L748.932,54.766L748.894,54.677L748.858,54.586L748.824,54.496L748.791,54.404L748.76,54.313L748.731,54.22L748.703,54.128L748.678,54.035L748.654,53.941L748.632,53.848L748.613,53.754L748.595,53.659L748.58,53.565L748.567,53.47L748.556,53.375L748.548,53.279L748.542,53.184L748.539,53.088L748.538,53.039L748.538,52.989L748.539,52.937L748.541,52.885L748.543,52.833L748.547,52.779L748.551,52.725L748.557,52.67L748.563,52.614L748.571,52.558L748.58,52.502L748.59,52.445L748.601,52.387L748.613,52.329L748.627,52.271L748.642,52.212L748.659,52.153L748.677,52.094L748.697,52.035L748.718,51.976L748.741,51.916L748.766,51.857L748.792,51.797L748.82,51.737L748.85,51.678L748.882,51.619L748.915,51.559L748.951,51.5L748.989,51.442L749.028,51.383L749.07,51.325L749.114,51.267L749.16,51.21L749.208,51.153L749.259,51.097L749.312,51.041L749.367,50.986L749.425,50.931L749.485,50.877L749.548,50.824L749.613,50.772L749.681,50.72L749.751,50.669L749.825,50.619L749.901,50.57L749.98,50.522L750.061,50.475L750.146,50.43L750.233,50.385L750.324,50.341L750.417,50.299L750.514,50.257L750.613,50.217L750.716,50.179L750.822,50.141L750.932,50.106L751.045,50.071L751.161,50.038L751.28,50.007L751.403,49.977L751.529,49.949L751.659,49.922L751.793,49.897L751.93,49.874L751.929,49.834L751.929,49.793L751.932,49.752L751.936,49.711L751.942,49.671L751.95,49.632L751.96,49.592L751.972,49.554L751.986,49.516L752.002,49.479L752.02,49.442L752.039,49.407L752.06,49.372L752.083,49.339L752.108,49.306L752.134,49.275L752.162,49.245L752.191,49.217L752.221,49.19L752.253,49.165L752.286,49.142L752.319,49.12L752.354,49.1L752.39,49.081L752.426,49.065L752.464,49.05L752.502,49.037L752.541,49.026L752.581,49.017L752.621,49.01L752.662,49.005L752.703,49.001L752.745,49L765.248,49L765.29,49.001ZM752.977,50.042L752.997,50.751L752.993,50.751L753.054,51.64L753.068,51.831L753.083,52.02L753.099,52.209L753.116,52.396L753.135,52.582L753.154,52.766L753.174,52.95L753.195,53.132L753.217,53.313L753.24,53.492L753.264,53.671L753.289,53.848L753.315,54.023L753.342,54.198L753.37,54.371L753.399,54.542L753.429,54.713L753.46,54.882L753.491,55.049L753.524,55.215L753.558,55.38L753.592,55.543L753.628,55.705L753.664,55.866L753.701,56.025L753.739,56.182L753.779,56.338L753.819,56.493L753.86,56.646L753.901,56.797L754.509,58.929L754.681,59.01L754.926,59.513L754.966,59.593L755.006,59.671L755.084,59.819L755.163,59.963L755.243,60.104L755.324,60.241L755.406,60.375L755.488,60.506L755.572,60.632L755.656,60.756L755.74,60.876L755.826,60.992L755.912,61.105L756,61.216L756.042,61.267L756.085,61.32L756.129,61.372L756.173,61.422L756.217,61.472L756.261,61.521L756.305,61.569L756.349,61.616L756.394,61.663L756.438,61.708L756.482,61.752L756.527,61.796L756.572,61.839L756.616,61.881L756.661,61.922L756.706,61.962L756.751,62.001L756.795,62.04L756.84,62.077L756.885,62.114L756.93,62.15L756.975,62.185L757.02,62.219L757.065,62.252L757.11,62.285L757.155,62.316L757.2,62.347L757.246,62.377L757.29,62.406L757.336,62.434L757.381,62.461L757.426,62.488L757.471,62.514L757.516,62.539L757.56,62.563L757.605,62.586L757.65,62.609L757.695,62.63L757.74,62.651L758.407,62.951L758.407,71.273L755.285,71.273L755.268,71.274L755.262,71.274L755.256,71.275L755.251,71.276L755.246,71.277L755.241,71.278L755.236,71.28L755.231,71.282L755.227,71.284L755.223,71.286L755.219,71.288L755.215,71.291L755.211,71.294L755.207,71.297L755.203,71.3L755.2,71.304L755.196,71.307L755.194,71.31L755.19,71.314L755.188,71.318L755.185,71.322L755.183,71.326L755.181,71.329L755.179,71.333L755.178,71.338L755.176,71.342L755.175,71.346L755.174,71.35L755.173,71.355L755.173,71.36L755.172,71.365L755.172,71.384L755.172,72.788L755.172,72.807L755.173,72.817L755.175,72.827L755.178,72.835L755.182,72.844L755.186,72.852L755.191,72.86L755.197,72.867L755.204,72.874L755.212,72.88L755.22,72.886L755.228,72.89L755.235,72.893L755.244,72.896L755.252,72.898L755.262,72.899L755.281,72.899L762.709,72.899L762.725,72.899L762.731,72.898L762.737,72.897L762.743,72.896L762.748,72.895L762.753,72.894L762.757,72.892L762.762,72.89L762.766,72.888L762.771,72.886L762.774,72.884L762.779,72.881L762.783,72.878L762.786,72.875L762.79,72.872L762.794,72.869L762.797,72.865L762.8,72.862L762.803,72.858L762.806,72.854L762.808,72.85L762.81,72.847L762.812,72.842L762.814,72.838L762.816,72.834L762.817,72.83L762.818,72.826L762.819,72.822L762.82,72.817L762.821,72.813L762.821,72.807L762.822,72.788L762.822,71.384L762.821,71.365L762.821,71.36L762.82,71.354L762.819,71.349L762.818,71.346L762.817,71.341L762.816,71.337L762.814,71.333L762.812,71.329L762.81,71.325L762.808,71.32L762.805,71.316L762.802,71.312L762.799,71.309L762.796,71.305L762.793,71.301L762.789,71.298L762.785,71.295L762.782,71.292L762.778,71.289L762.774,71.286L762.77,71.284L762.766,71.282L762.762,71.28L762.758,71.279L762.754,71.277L762.75,71.276L762.746,71.275L762.741,71.274L762.737,71.274L762.731,71.273L762.712,71.273L759.587,71.273L759.587,62.951L760.253,62.651L760.298,62.63L760.343,62.609L760.388,62.586L760.433,62.563L760.478,62.539L760.523,62.514L760.568,62.488L760.613,62.461L760.658,62.434L760.703,62.406L760.748,62.377L760.793,62.347L760.838,62.316L760.883,62.285L760.928,62.252L760.973,62.219L761.018,62.185L761.063,62.15L761.108,62.114L761.153,62.077L761.198,62.04L761.243,62.001L761.288,61.962L761.332,61.922L761.377,61.881L761.422,61.839L761.466,61.796L761.511,61.753L761.556,61.708L761.6,61.662L761.644,61.616L761.688,61.569L761.733,61.521L761.777,61.472L761.821,61.422L761.865,61.372L761.908,61.32L761.952,61.267L761.994,61.216L762.082,61.105L762.168,60.992L762.253,60.876L762.338,60.756L762.422,60.632L762.505,60.506L762.588,60.375L762.669,60.241L762.75,60.104L762.83,59.963L762.909,59.819L762.987,59.671L763.027,59.593L763.067,59.513L763.313,59.01L763.485,58.929L764.092,56.797L764.134,56.646L764.175,56.493L764.215,56.338L764.254,56.182L764.292,56.025L764.329,55.866L764.366,55.705L764.401,55.544L764.436,55.38L764.469,55.216L764.502,55.049L764.534,54.882L764.564,54.713L764.594,54.543L764.623,54.371L764.651,54.198L764.678,54.024L764.704,53.848L764.729,53.671L764.753,53.492L764.776,53.313L764.798,53.132L764.819,52.95L764.84,52.766L764.859,52.582L764.877,52.396L764.894,52.209L764.91,52.02L764.925,51.831L764.939,51.64L765,50.751L764.999,50.751L765.017,50.042L752.977,50.042ZM765.979,51.714L765.964,51.911L765.948,52.106L765.932,52.301L765.914,52.494L765.895,52.686L765.875,52.877L765.855,53.067L765.833,53.255L765.81,53.443L765.786,53.629L765.761,53.813L765.735,53.997L765.708,54.179L765.68,54.361L765.651,54.54L765.621,54.719L765.59,54.896L765.558,55.072L765.525,55.247L765.491,55.42L765.456,55.592L765.419,55.763L765.382,55.932L765.344,56.1L765.305,56.267L765.265,56.432L765.224,56.596L765.182,56.758L765.139,56.919L765.095,57.079L765.05,57.237L765.131,57.169L765.212,57.101L765.293,57.031L765.374,56.96L765.454,56.888L765.534,56.814L765.614,56.74L765.693,56.664L765.813,56.547L765.93,56.429L766.044,56.31L766.155,56.191L766.263,56.071L766.368,55.951L766.47,55.831L766.569,55.711L766.664,55.591L766.756,55.471L766.845,55.351L766.93,55.232L767.012,55.112L767.09,54.994L767.165,54.876L767.235,54.758L767.303,54.642L767.366,54.526L767.426,54.411L767.454,54.354L767.481,54.298L767.508,54.241L767.533,54.185L767.557,54.13L767.581,54.074L767.603,54.019L767.624,53.964L767.644,53.91L767.664,53.856L767.682,53.802L767.699,53.749L767.715,53.697L767.73,53.644L767.744,53.592L767.756,53.541L767.768,53.49L767.779,53.44L767.788,53.39L767.796,53.34L767.804,53.291L767.81,53.243L767.815,53.195L767.819,53.148L767.821,53.101L767.823,53.055L767.823,53.018L767.823,52.981L767.821,52.945L767.819,52.909L767.815,52.874L767.811,52.839L767.806,52.804L767.8,52.77L767.792,52.736L767.784,52.703L767.776,52.67L767.766,52.637L767.755,52.605L767.743,52.574L767.731,52.542L767.717,52.511L767.703,52.481L767.687,52.451L767.671,52.421L767.654,52.392L767.636,52.363L767.617,52.335L767.597,52.307L767.576,52.279L767.554,52.252L767.531,52.225L767.508,52.199L767.483,52.173L767.458,52.147L767.431,52.122L767.404,52.098L767.376,52.073L767.347,52.049L767.317,52.026L767.286,52.003L767.254,51.98L767.221,51.958L767.188,51.936L767.153,51.915L767.117,51.894L767.081,51.874L767.044,51.853L767.005,51.834L766.966,51.814L766.926,51.796L766.885,51.777L766.8,51.741L766.712,51.707L766.62,51.675L766.525,51.644L766.425,51.616L766.322,51.588L766.216,51.563L766.106,51.539L765.992,51.516L765.979,51.714ZM751.888,51.539L751.777,51.563L751.671,51.588L751.568,51.615L751.469,51.644L751.373,51.675L751.281,51.707L751.193,51.741L751.108,51.777L751.067,51.795L751.027,51.814L750.988,51.834L750.95,51.853L750.912,51.873L750.876,51.894L750.84,51.915L750.806,51.936L750.772,51.958L750.739,51.98L750.707,52.003L750.676,52.026L750.646,52.049L750.617,52.073L750.589,52.097L750.562,52.122L750.535,52.147L750.51,52.173L750.485,52.199L750.462,52.225L750.439,52.252L750.417,52.279L750.396,52.306L750.377,52.334L750.357,52.363L750.339,52.392L750.322,52.421L750.306,52.451L750.29,52.481L750.276,52.511L750.263,52.542L750.25,52.573L750.238,52.605L750.227,52.637L750.218,52.67L750.209,52.703L750.201,52.736L750.194,52.77L750.187,52.804L750.182,52.838L750.178,52.873L750.175,52.909L750.172,52.945L750.171,52.981L750.17,53.018L750.17,53.055L750.172,53.101L750.174,53.147L750.178,53.195L750.183,53.243L750.189,53.291L750.197,53.34L750.205,53.389L750.214,53.439L750.225,53.49L750.237,53.541L750.25,53.592L750.263,53.644L750.278,53.696L750.294,53.749L750.311,53.802L750.33,53.856L750.349,53.91L750.369,53.964L750.39,54.019L750.413,54.074L750.436,54.129L750.46,54.185L750.486,54.241L750.512,54.297L750.539,54.354L750.568,54.411L750.627,54.526L750.69,54.641L750.758,54.758L750.829,54.875L750.903,54.993L750.981,55.112L751.063,55.231L751.148,55.351L751.237,55.471L751.329,55.591L751.424,55.711L751.523,55.831L751.625,55.951L751.73,56.071L751.838,56.19L751.949,56.31L752.063,56.428L752.18,56.546L752.3,56.664L752.379,56.739L752.459,56.814L752.539,56.887L752.619,56.959L752.7,57.03L752.781,57.1L752.862,57.169L752.943,57.236L752.898,57.078L752.854,56.919L752.811,56.758L752.769,56.595L752.728,56.432L752.688,56.266L752.649,56.1L752.611,55.932L752.574,55.763L752.538,55.592L752.503,55.42L752.468,55.247L752.435,55.072L752.403,54.896L752.372,54.719L752.342,54.54L752.313,54.36L752.285,54.179L752.258,53.997L752.232,53.813L752.207,53.628L752.183,53.442L752.161,53.255L752.139,53.067L752.118,52.877L752.098,52.686L752.079,52.494L752.062,52.301L752.045,52.106L752.029,51.911L752.015,51.714L752.001,51.516L751.888,51.539Z" style="fill:rgb(0,190,242);"/>
    </g>
</svg>
